<svg width="180" height="70" viewBox="0 0 180 70" fill="none" xmlns="http://www.w3.org/2000/svg">
<rect width="180" height="70" fill="white"/>
<path d="M9.21165 51V21.9091H19.8651C21.9295 21.9091 23.6387 22.25 24.9929 22.9318C26.3471 23.6042 27.3603 24.518 28.0327 25.6733C28.705 26.8191 29.0412 28.1117 29.0412 29.5511C29.0412 30.7633 28.8187 31.786 28.3736 32.6193C27.9285 33.4432 27.3319 34.1061 26.5838 34.608C25.8452 35.1004 25.0308 35.4602 24.1406 35.6875V35.9716C25.1065 36.0189 26.0488 36.3314 26.9673 36.9091C27.8954 37.4773 28.6624 38.2869 29.2685 39.3381C29.8745 40.3892 30.1776 41.6676 30.1776 43.1733C30.1776 44.66 29.8272 45.9953 29.1264 47.179C28.4351 48.3532 27.3651 49.286 25.9162 49.9773C24.4673 50.6591 22.616 51 20.3622 51H9.21165ZM13.6009 47.2358H19.9361C22.0384 47.2358 23.544 46.8286 24.4531 46.0142C25.3622 45.1998 25.8168 44.1818 25.8168 42.9602C25.8168 42.0417 25.5848 41.1989 25.1207 40.4318C24.6567 39.6648 23.9938 39.054 23.1321 38.5994C22.2798 38.1449 21.2666 37.9176 20.0923 37.9176H13.6009V47.2358ZM13.6009 34.4943H19.4815C20.4664 34.4943 21.3518 34.3049 22.1378 33.9261C22.9332 33.5473 23.563 33.017 24.027 32.3352C24.5005 31.6439 24.7372 30.8295 24.7372 29.892C24.7372 28.6894 24.3158 27.6809 23.473 26.8665C22.6302 26.0521 21.3376 25.6449 19.5952 25.6449H13.6009V34.4943ZM35.0426 51V29.1818H39.1477V32.6477H39.375C39.7727 31.4735 40.4735 30.5502 41.4773 29.8778C42.4905 29.196 43.6364 28.8551 44.9148 28.8551C45.1799 28.8551 45.4924 28.8646 45.8523 28.8835C46.2216 28.9025 46.5104 28.9261 46.7188 28.9545V33.017C46.5483 32.9697 46.2453 32.9176 45.8097 32.8608C45.3741 32.7945 44.9384 32.7614 44.5028 32.7614C43.4991 32.7614 42.6042 32.9744 41.8182 33.4006C41.0417 33.8172 40.4261 34.3996 39.9716 35.1477C39.517 35.8864 39.2898 36.7292 39.2898 37.6761V51H35.0426ZM56.5483 51.483C55.1657 51.483 53.9157 51.2273 52.7983 50.7159C51.6809 50.1951 50.7955 49.4422 50.142 48.4574C49.4981 47.4725 49.1761 46.2652 49.1761 44.8352C49.1761 43.6042 49.4129 42.5909 49.8864 41.7955C50.3598 41 50.9991 40.3703 51.804 39.9062C52.6089 39.4422 53.5085 39.0919 54.5028 38.8551C55.4972 38.6184 56.5104 38.4384 57.5426 38.3153C58.8494 38.1638 59.91 38.0407 60.7244 37.946C61.5388 37.8419 62.1307 37.6761 62.5 37.4489C62.8693 37.2216 63.054 36.8523 63.054 36.3409V36.2415C63.054 35.0009 62.7036 34.0398 62.0028 33.358C61.3116 32.6761 60.2794 32.3352 58.9062 32.3352C57.4763 32.3352 56.3494 32.6525 55.5256 33.2869C54.7112 33.9119 54.1477 34.608 53.8352 35.375L49.8438 34.4659C50.3172 33.1402 51.0085 32.0701 51.9176 31.2557C52.8362 30.4318 53.892 29.8352 55.0852 29.4659C56.2784 29.0871 57.5331 28.8977 58.8494 28.8977C59.7206 28.8977 60.6439 29.0019 61.6193 29.2102C62.6042 29.4091 63.5227 29.7784 64.375 30.3182C65.2367 30.858 65.9422 31.6297 66.4915 32.6335C67.0407 33.6278 67.3153 34.9205 67.3153 36.5114V51H63.1676V48.017H62.9972C62.7225 48.5663 62.3106 49.1061 61.7614 49.6364C61.2121 50.1667 60.5066 50.607 59.6449 50.9574C58.7831 51.3078 57.7509 51.483 56.5483 51.483ZM57.4716 48.0739C58.6458 48.0739 59.6496 47.8419 60.483 47.3778C61.3258 46.9138 61.965 46.3078 62.4006 45.5597C62.8456 44.8021 63.0682 43.9924 63.0682 43.1307V40.3182C62.9167 40.4697 62.6231 40.6117 62.1875 40.7443C61.7614 40.8674 61.2737 40.9763 60.7244 41.071C60.1752 41.1562 59.6402 41.2367 59.1193 41.3125C58.5985 41.3788 58.1629 41.4356 57.8125 41.483C56.9886 41.5871 56.2358 41.7623 55.554 42.0085C54.8816 42.2547 54.3419 42.6098 53.9347 43.0739C53.5369 43.5284 53.3381 44.1345 53.3381 44.892C53.3381 45.9432 53.7263 46.7386 54.5028 47.2784C55.2794 47.8087 56.2689 48.0739 57.4716 48.0739ZM72.9723 51V29.1818H77.2195V51H72.9723ZM75.1172 25.8153C74.3786 25.8153 73.7441 25.5691 73.2138 25.0767C72.6929 24.5748 72.4325 23.9782 72.4325 23.2869C72.4325 22.5862 72.6929 21.9896 73.2138 21.4972C73.7441 20.9953 74.3786 20.7443 75.1172 20.7443C75.8558 20.7443 76.4856 20.9953 77.0064 21.4972C77.5367 21.9896 77.8018 22.5862 77.8018 23.2869C77.8018 23.9782 77.5367 24.5748 77.0064 25.0767C76.4856 25.5691 75.8558 25.8153 75.1172 25.8153ZM87.1804 38.0455V51H82.9332V29.1818H87.0099V32.733H87.2798C87.7817 31.5777 88.5677 30.6496 89.6378 29.9489C90.7173 29.2481 92.0762 28.8977 93.7145 28.8977C95.2012 28.8977 96.5033 29.2102 97.6207 29.8352C98.7382 30.4508 99.6046 31.3693 100.22 32.5909C100.836 33.8125 101.143 35.3229 101.143 37.1222V51H96.8963V37.6335C96.8963 36.0521 96.4844 34.8163 95.6605 33.9261C94.8366 33.0265 93.705 32.5767 92.2656 32.5767C91.2808 32.5767 90.4048 32.7898 89.6378 33.2159C88.8802 33.642 88.2789 34.267 87.8338 35.0909C87.3982 35.9053 87.1804 36.8902 87.1804 38.0455Z" fill="#1E1D1D"/>
<path d="M111.684 51H102.706V21.9091H112.081C114.903 21.9091 117.318 22.4915 119.326 23.6562C121.333 24.8116 122.872 26.4735 123.942 28.642C125.012 30.8011 125.547 33.3864 125.547 36.3977C125.547 39.428 125.007 42.0369 123.928 44.2244C122.848 46.4025 121.276 48.0786 119.212 49.2528C117.148 50.4176 114.638 51 111.684 51ZM106.229 47.875H111.456C113.862 47.875 115.855 47.411 117.436 46.483C119.018 45.5549 120.197 44.2339 120.973 42.5199C121.75 40.8059 122.138 38.7652 122.138 36.3977C122.138 34.0492 121.755 32.0275 120.988 30.3324C120.221 28.6278 119.075 27.321 117.55 26.4119C116.025 25.4934 114.127 25.0341 111.854 25.0341H106.229V47.875ZM140.15 51.4545C138.047 51.4545 136.234 50.9905 134.709 50.0625C133.194 49.125 132.025 47.8182 131.201 46.142C130.386 44.4564 129.979 42.4962 129.979 40.2614C129.979 38.0265 130.386 36.0568 131.201 34.3523C132.025 32.6383 133.17 31.303 134.638 30.3466C136.115 29.3807 137.839 28.8977 139.809 28.8977C140.945 28.8977 142.067 29.0871 143.175 29.4659C144.283 29.8447 145.292 30.4602 146.201 31.3125C147.11 32.1553 147.834 33.2727 148.374 34.6648C148.914 36.0568 149.184 37.7708 149.184 39.8068V41.2273H132.365V38.3295H145.775C145.775 37.0985 145.528 36 145.036 35.0341C144.553 34.0682 143.862 33.3059 142.962 32.7472C142.072 32.1884 141.021 31.9091 139.809 31.9091C138.473 31.9091 137.318 32.2405 136.343 32.9034C135.377 33.5568 134.633 34.4091 134.113 35.4602C133.592 36.5114 133.331 37.6383 133.331 38.8409V40.7727C133.331 42.4205 133.615 43.8172 134.184 44.9631C134.761 46.0994 135.561 46.9659 136.584 47.5625C137.607 48.1496 138.795 48.4432 140.15 48.4432C141.03 48.4432 141.826 48.3201 142.536 48.0739C143.256 47.8182 143.876 47.4394 144.397 46.9375C144.917 46.4261 145.32 45.7917 145.604 45.0341L148.843 45.9432C148.502 47.0417 147.929 48.0076 147.124 48.8409C146.319 49.6648 145.325 50.3087 144.141 50.7727C142.957 51.2273 141.627 51.4545 140.15 51.4545ZM171.46 29.1818L163.392 51H159.983L151.914 29.1818H155.551L161.574 46.5682H161.801L167.824 29.1818H171.46Z" fill="#2684BF"/>
</svg>
