<svg version="1.1" id="Layer_1" xmlns="http://www.w3.org/2000/svg" xmlns:xlink="http://www.w3.org/1999/xlink" x="0px" y="0px"
	 width="100%" viewBox="0 0 500 500" enable-background="new 0 0 500 500" xml:space="preserve">
<path fill="#141414" opacity="1.000000" stroke="none" 
	d="
M291.000000,501.000000 
	C194.000031,501.000000 97.500046,501.000000 1.000052,501.000000 
	C1.000035,334.333405 1.000035,167.666794 1.000017,1.000141 
	C167.666565,1.000094 334.333130,1.000094 500.999756,1.000047 
	C500.999847,167.666519 500.999847,334.333038 500.999939,500.999786 
	C431.166656,501.000000 361.333344,501.000000 291.000000,501.000000 
M166.036972,219.026489 
	C166.036972,219.026489 166.040115,218.998901 165.503021,219.307190 
	C165.276489,219.865433 165.049957,220.423691 164.954193,221.010010 
	C164.954193,221.010010 164.981537,220.879089 164.365692,221.019562 
	C164.130356,221.367752 163.895004,221.715942 163.178329,222.482605 
	C155.034485,233.508591 151.172318,246.099869 150.374237,259.576294 
	C149.249954,278.561188 154.103668,295.762177 167.198624,310.858124 
	C172.391312,315.368317 177.584000,319.878510 183.242310,324.863037 
	C185.496246,325.916718 187.750168,326.970398 190.458237,328.550934 
	C194.645020,329.853394 198.831818,331.155853 203.805542,332.809784 
	C216.426270,334.728729 228.902542,334.765594 241.758911,329.986542 
	C247.475555,326.975098 253.192200,323.963623 259.565765,320.781464 
	C267.803619,313.506012 274.229645,304.862671 279.580353,294.599823 
	C282.151917,288.724396 284.723480,282.848969 287.934448,276.846161 
	C289.597534,273.018158 291.260590,269.190155 293.652313,265.585297 
	C298.234161,268.109314 302.816010,270.633301 307.898743,273.686829 
	C318.647644,279.218781 329.706085,283.041840 342.784943,279.869446 
	C355.783508,276.616730 365.000458,269.196991 369.489136,255.474030 
	C375.425262,238.038559 369.842743,217.984177 355.958099,207.256882 
	C355.732849,207.025375 355.459778,206.891266 354.767578,206.287674 
	C346.091064,200.138168 336.459015,197.490875 326.007721,199.606537 
	C310.083679,202.830124 297.209686,211.152481 286.884674,224.010788 
	C286.271790,223.608765 285.658875,223.206726 284.778534,222.207657 
	C279.214966,217.770325 273.651367,213.333008 267.912140,208.448502 
	C267.690369,208.160629 267.402771,208.059296 266.785126,207.864304 
	C266.785126,207.864304 266.403290,207.813660 266.000092,207.245163 
	C262.095947,205.128387 258.191772,203.011627 253.872543,200.309662 
	C248.939224,198.575989 244.005890,196.842316 238.390427,194.668442 
	C233.266418,193.846344 228.142395,193.024246 222.110352,192.052658 
	C216.057907,192.760864 210.005463,193.469070 203.191788,194.134857 
	C188.587234,198.250656 175.952042,205.357529 167.007126,218.007858 
	C167.007126,218.007858 166.999695,217.955612 166.484039,218.108780 
	C166.326828,218.418961 166.169601,218.729156 166.036972,219.026489 
M344.566833,283.721680 
	C340.714935,284.084930 336.863037,284.448181 332.319794,284.471832 
	C326.879425,283.992004 321.439087,283.512146 315.710602,282.589722 
	C315.235229,282.185974 314.759827,281.782257 314.284454,281.378510 
	C314.154846,281.585571 314.025269,281.792603 313.895660,281.999634 
	C314.615723,282.323975 315.335815,282.648315 316.505676,283.463043 
	C325.089813,288.733398 334.107666,291.116638 344.829895,287.523285 
	C351.731384,285.675293 357.401581,282.147156 361.910126,275.720978 
	C355.864227,278.655609 350.606171,281.207825 344.566833,283.721680 
M297.381866,206.066711 
	C293.460449,208.972153 289.434906,211.753815 285.707031,214.889374 
	C284.977203,215.503235 285.400391,217.487915 285.244324,219.430954 
	C291.966064,214.000259 297.617798,209.434052 303.269501,204.867844 
	C303.098877,204.539703 302.928223,204.211578 302.757568,203.883438 
	C301.175903,204.515610 299.594238,205.147797 297.381866,206.066711 
z"/>
<path fill="#503AEC" opacity="1.000000" stroke="none" 
	d="
M166.942307,310.267120 
	C154.103668,295.762177 149.249954,278.561188 150.374237,259.576294 
	C151.172318,246.099869 155.034485,233.508591 163.690399,222.134308 
	C164.462158,221.483688 164.721848,221.181396 164.981537,220.879089 
	C164.981537,220.879089 164.954193,221.010010 165.146545,220.825912 
	C165.572647,220.094177 165.806381,219.546539 166.040115,218.998901 
	C166.040115,218.998901 166.036972,219.026489 166.270660,218.938858 
	C166.669464,218.552689 166.834579,218.254150 166.999695,217.955612 
	C166.999695,217.955612 167.007126,218.007858 167.332672,217.985916 
	C171.820709,215.352432 175.983215,212.740891 180.029175,210.441940 
	C178.751907,211.888580 177.372116,212.871964 176.469955,214.183838 
	C173.246765,218.870819 170.185638,223.669266 166.977783,228.750916 
	C161.181946,239.745331 157.238510,250.761139 160.008102,263.155396 
	C160.797562,266.688293 161.416107,270.259430 162.200714,274.100891 
	C162.856705,274.922455 163.425003,275.456177 164.000061,275.992310 
	C164.006821,275.994781 164.007477,276.009033 163.989075,276.399048 
	C166.321457,281.903961 168.672211,287.018860 170.681671,292.260803 
	C169.207672,298.347656 168.074982,304.307373 166.942307,310.267120 
z"/>
<path fill="#730AB1" opacity="1.000000" stroke="none" 
	d="
M307.397858,273.157318 
	C302.816010,270.633301 298.234161,268.109314 293.224915,265.188416 
	C288.538910,261.886230 284.280334,258.980927 279.796326,255.817566 
	C277.705048,253.381638 275.839111,251.203781 273.982605,248.599396 
	C272.227692,242.221130 271.551361,235.584763 268.368073,230.525894 
	C265.631104,226.176346 260.302399,223.168869 255.621933,220.413467 
	C251.077484,217.738144 248.700317,214.428177 249.255630,209.278351 
	C250.721664,209.911270 251.873016,210.482727 253.241608,211.302795 
	C257.907074,214.050201 262.355255,216.548981 266.831818,219.117493 
	C266.860168,219.187225 267.009613,219.169083 267.083496,219.360931 
	C267.332123,219.782410 267.561768,219.921463 267.868347,220.041336 
	C267.890381,220.112701 268.034302,220.152725 268.107544,220.335770 
	C268.342133,220.736633 268.551849,220.886978 269.013123,221.246704 
	C273.814697,225.340225 278.413025,229.156876 283.215027,233.235382 
	C287.890411,237.732285 292.362122,241.967361 296.856262,246.618958 
	C296.951233,254.001785 299.128937,259.630707 305.695465,263.276520 
	C309.912201,265.617706 310.114349,268.606873 307.397858,273.157318 
z"/>
<path fill="#EA02DB" opacity="1.000000" stroke="none" 
	d="
M369.025269,256.056000 
	C365.000458,269.196991 355.783508,276.616730 342.426697,279.521362 
	C342.600159,277.837067 343.131866,276.500824 343.162201,276.424652 
	C339.233765,265.668823 329.780518,267.223083 322.216583,264.841797 
	C321.763977,264.699310 321.391998,264.300476 321.449524,264.006439 
	C325.399933,264.010010 328.884613,264.098083 332.366455,264.032623 
	C341.755096,263.856201 355.253876,251.463074 353.097168,239.703888 
	C352.653229,237.283310 351.945984,234.911011 351.726532,232.575378 
	C361.264801,234.858841 365.521912,241.891479 368.912170,250.244965 
	C368.967987,252.479462 368.996643,254.267731 369.025269,256.056000 
z"/>
<path fill="#FB33E6" opacity="1.000000" stroke="none" 
	d="
M351.360107,232.516464 
	C351.945984,234.911011 352.653229,237.283310 353.097168,239.703888 
	C355.253876,251.463074 341.755096,263.856201 332.366455,264.032623 
	C328.884613,264.098083 325.399933,264.010010 321.459167,263.997498 
	C321.001770,264.003082 320.996246,264.026062 320.787415,263.806641 
	C320.003815,263.430237 319.429016,263.273254 318.562256,262.944336 
	C311.124756,257.249054 303.979309,251.725739 296.833832,246.202423 
	C292.362122,241.967361 287.890411,237.732285 283.237549,232.836319 
	C283.719574,229.051834 284.382782,225.928268 285.045990,222.804688 
	C285.658875,223.206726 286.271790,223.608765 287.243408,224.419876 
	C289.039185,226.174026 290.476227,227.519073 292.077393,229.151550 
	C293.766113,230.988541 295.290771,232.538101 296.917969,234.410858 
	C299.668518,237.518906 302.316559,240.303787 305.104858,243.393555 
	C311.552734,247.204376 317.860321,250.710327 324.468872,254.412750 
	C328.841614,255.029678 332.909454,255.754486 336.986023,255.807144 
	C345.434113,255.916260 350.916046,250.323837 350.867920,241.825500 
	C350.851288,238.886841 350.322815,235.951096 350.324768,232.934174 
	C350.816193,232.791061 351.011017,232.727798 351.224060,232.606323 
	C351.242249,232.548096 351.360107,232.516464 351.360107,232.516464 
z"/>
<path fill="#BF35E8" opacity="1.000000" stroke="none" 
	d="
M279.033936,294.994934 
	C274.229645,304.862671 267.803619,313.506012 259.032654,320.531342 
	C258.671661,314.479492 258.843750,308.677734 259.148590,302.635010 
	C259.827728,301.657288 260.374115,300.920532 261.106567,299.860474 
	C261.522522,296.041626 261.752411,292.546082 262.203247,288.799622 
	C268.311676,279.297913 274.199158,270.047089 280.407227,260.928955 
	C281.362457,261.723145 281.997040,262.384583 282.316406,263.283295 
	C281.462067,264.887543 280.615723,266.215363 280.435669,267.628143 
	C279.539520,274.659912 278.696350,281.703949 278.112915,288.766663 
	C277.944641,290.803497 278.701324,292.916718 279.033936,294.994934 
z"/>
<path fill="#AB05CE" opacity="1.000000" stroke="none" 
	d="
M296.856262,246.618958 
	C303.979309,251.725739 311.124756,257.249054 318.788574,263.141052 
	C319.869995,263.681824 320.433136,263.853943 320.996246,264.026062 
	C320.996246,264.026062 321.001770,264.003082 320.992126,264.012024 
	C321.391998,264.300476 321.763977,264.699310 322.216583,264.841797 
	C329.780518,267.223083 339.233765,265.668823 343.162201,276.424652 
	C343.131866,276.500824 342.600159,277.837067 342.050049,279.521484 
	C329.706085,283.041840 318.647644,279.218781 307.648315,273.422058 
	C310.114349,268.606873 309.912201,265.617706 305.695465,263.276520 
	C299.128937,259.630707 296.951233,254.001785 296.856262,246.618958 
z"/>
<path fill="#FB33E6" opacity="1.000000" stroke="none" 
	d="
M241.006744,329.954620 
	C228.902542,334.765594 216.426270,334.728729 203.406921,332.217224 
	C203.343369,326.704102 203.678436,321.783478 204.317825,316.906921 
	C205.381622,317.206238 206.141083,317.461548 207.330627,317.759827 
	C218.523590,320.155029 229.245880,321.192535 240.113739,317.035034 
	C240.827011,318.727631 241.543701,320.195648 241.559860,321.671295 
	C241.590088,324.430054 241.213852,327.193268 241.006744,329.954620 
z"/>
<path fill="#9824E5" opacity="1.000000" stroke="none" 
	d="
M167.070465,310.562622 
	C168.074982,304.307373 169.207672,298.347656 170.893250,292.497375 
	C176.636826,297.729004 181.827499,302.851166 186.711182,308.194397 
	C185.914261,309.746796 185.248749,311.042236 184.967590,312.416290 
	C184.154434,316.390137 183.495926,320.395630 182.776688,324.388702 
	C177.584000,319.878510 172.391312,315.368317 167.070465,310.562622 
z"/>
<path fill="#0B0FE8" opacity="1.000000" stroke="none" 
	d="
M291.913269,228.864120 
	C290.476227,227.519073 289.039185,226.174026 287.511597,224.498917 
	C297.209686,211.152481 310.083679,202.830124 326.007721,199.606537 
	C336.459015,197.490875 346.091064,200.138168 354.883362,206.654953 
	C354.999115,207.022232 354.861908,207.192001 354.486938,207.149292 
	C350.063171,206.039963 346.014343,204.973358 341.586731,203.750702 
	C339.853821,203.373367 338.499695,203.152069 336.910461,202.695374 
	C323.331360,201.009628 311.971436,204.806686 303.084534,215.122375 
	C303.079193,215.086227 303.152252,215.087875 302.832642,215.183807 
	C301.997498,216.194702 301.481964,217.109650 300.997375,218.025452 
	C301.028259,218.026291 301.023743,217.964645 300.743622,218.010284 
	C300.294983,218.380676 300.126434,218.705429 299.995056,219.029587 
	C300.032196,219.028992 300.033203,218.954666 299.733032,219.091644 
	C299.240784,219.620743 299.048706,220.012894 298.618469,220.599442 
	C296.224640,223.483932 294.068939,226.174026 291.913269,228.864120 
z"/>
<path fill="#DA34E7" opacity="1.000000" stroke="none" 
	d="
M241.382812,329.970581 
	C241.213852,327.193268 241.590088,324.430054 241.559860,321.671295 
	C241.543701,320.195648 240.827011,318.727631 240.352020,316.803070 
	C241.825485,315.504944 243.373413,314.659943 245.251404,313.731934 
	C249.384140,310.103180 253.186813,306.557373 256.994751,303.005859 
	C257.000000,303.000092 257.011963,302.990509 257.346863,303.020874 
	C258.126434,302.992859 258.571136,302.934448 259.015839,302.876007 
	C258.843750,308.677734 258.671661,314.479492 258.704224,320.616699 
	C253.192200,323.963623 247.475555,326.975098 241.382812,329.970581 
z"/>
<path fill="#3A0DE2" opacity="1.000000" stroke="none" 
	d="
M369.257202,255.765015 
	C368.996643,254.267731 368.967987,252.479462 368.944092,249.871216 
	C368.308167,246.205673 367.667542,243.360123 367.029663,240.150879 
	C366.687683,239.183640 366.342957,238.580093 366.000916,237.987045 
	C366.003662,237.997559 366.020203,238.011612 366.075073,237.623230 
	C364.162811,233.731934 362.195648,230.229004 360.195801,226.439484 
	C360.102325,225.773483 360.041534,225.394089 359.977966,224.602875 
	C358.614441,218.867905 357.253723,213.544769 355.960083,208.078796 
	C356.027161,207.935959 356.178986,207.659286 356.178986,207.659286 
	C369.842743,217.984177 375.425262,238.038559 369.257202,255.765015 
z"/>
<path fill="#DA34E7" opacity="1.000000" stroke="none" 
	d="
M284.912262,222.506165 
	C284.382782,225.928268 283.719574,229.051834 283.033875,232.574463 
	C278.413025,229.156876 273.814697,225.340225 268.927521,221.075592 
	C268.478882,220.416382 268.277405,220.258087 268.034302,220.152725 
	C268.034302,220.152725 267.890381,220.112701 267.767426,219.872147 
	C267.473450,219.421722 267.261810,219.267563 267.009613,219.169083 
	C267.009613,219.169083 266.860168,219.187225 266.706451,218.804611 
	C261.832367,212.653366 261.808502,210.959442 266.403290,207.813660 
	C266.403290,207.813660 266.785126,207.864304 267.059082,208.170013 
	C267.546875,208.683548 267.798462,208.823532 268.087799,208.895691 
	C273.651367,213.333008 279.214966,217.770325 284.912262,222.506165 
z"/>
<path fill="#DA34E7" opacity="1.000000" stroke="none" 
	d="
M204.013489,316.862885 
	C203.678436,321.783478 203.343369,326.704102 203.013458,332.041504 
	C198.831818,331.155853 194.645020,329.853394 190.262833,327.871155 
	C191.065399,322.115784 192.063385,317.040192 193.414505,312.026367 
	C197.182922,313.679718 200.598221,315.271301 204.013489,316.862885 
z"/>
<path fill="#0B0FE8" opacity="1.000000" stroke="none" 
	d="
M180.145721,210.129364 
	C175.983215,212.740891 171.820709,215.352432 167.307434,217.978256 
	C175.952042,205.357529 188.587234,198.250656 203.559631,194.456573 
	C203.939743,196.835358 203.952026,198.892456 203.600845,201.065643 
	C196.852707,203.479706 190.468018,205.777649 183.856476,208.112579 
	C183.323654,208.253479 183.098648,208.450027 182.897125,208.757080 
	C182.839706,208.774963 182.746155,208.850586 182.473755,208.875320 
	C181.751465,209.190842 181.301590,209.481628 180.677704,209.866608 
	C180.503723,209.960800 180.145721,210.129364 180.145721,210.129364 
z"/>
<path fill="#9824E5" opacity="1.000000" stroke="none" 
	d="
M253.024368,211.054199 
	C251.873016,210.482727 250.721664,209.911270 248.988464,209.134903 
	C247.869659,208.664261 247.332703,208.398514 246.666595,207.817749 
	C242.805222,205.859161 239.072998,204.215591 235.216949,202.192017 
	C231.918945,199.989105 228.744766,198.166214 224.688385,195.836670 
	C230.228653,195.556259 234.650604,195.332443 239.072571,195.108627 
	C244.005890,196.842316 248.939224,198.575989 253.679718,200.653442 
	C248.474808,202.369049 247.947067,204.172134 251.340012,207.737793 
	C252.158875,208.598312 252.476334,209.935959 253.024368,211.054199 
z"/>
<path fill="#9824E5" opacity="1.000000" stroke="none" 
	d="
M279.307129,294.797363 
	C278.701324,292.916718 277.944641,290.803497 278.112915,288.766663 
	C278.696350,281.703949 279.539520,274.659912 280.435669,267.628143 
	C280.615723,266.215363 281.462067,264.887543 282.525757,263.508942 
	C284.465240,267.989410 285.880157,272.481506 287.295074,276.973572 
	C284.723480,282.848969 282.151917,288.724396 279.307129,294.797363 
z"/>
<path fill="#BF35E8" opacity="1.000000" stroke="none" 
	d="
M253.241608,211.302811 
	C252.476334,209.935959 252.158875,208.598312 251.340012,207.737793 
	C247.947067,204.172134 248.474808,202.369049 253.887268,200.946045 
	C258.191772,203.011627 262.095947,205.128387 266.201691,207.529419 
	C261.808502,210.959442 261.832367,212.653366 266.678101,218.734879 
	C262.355255,216.548981 257.907074,214.050201 253.241608,211.302811 
z"/>
<path fill="#440C9D" opacity="1.000000" stroke="none" 
	d="
M287.614746,276.909851 
	C285.880157,272.481506 284.465240,267.989410 282.841003,263.271698 
	C281.997040,262.384583 281.362457,261.723145 280.400513,260.543579 
	C280.020935,258.997101 279.968719,257.968781 279.939209,256.723816 
	C279.961884,256.507172 280.021729,256.075653 280.021729,256.075653 
	C284.280334,258.980927 288.538910,261.886230 292.860596,265.076813 
	C291.260590,269.190155 289.597534,273.018158 287.614746,276.909851 
z"/>
<path fill="#BF35E8" opacity="1.000000" stroke="none" 
	d="
M193.061356,311.964630 
	C192.063385,317.040192 191.065399,322.115784 190.035767,327.607727 
	C187.750168,326.970398 185.496246,325.916718 183.009491,324.625854 
	C183.495926,320.395630 184.154434,316.390137 184.967590,312.416290 
	C185.248749,311.042236 185.914261,309.746796 187.014801,308.331696 
	C189.437393,309.486847 191.249374,310.725739 193.061356,311.964630 
z"/>
<path fill="#3A0DE2" opacity="1.000000" stroke="none" 
	d="
M203.964310,200.949539 
	C203.952026,198.892456 203.939743,196.835358 203.940247,194.477768 
	C210.005463,193.469070 216.057907,192.760864 222.396484,192.446686 
	C219.053574,193.786133 215.424561,194.731567 211.259003,195.816757 
	C214.187790,196.281784 216.703537,196.397278 219.010880,197.150848 
	C220.466110,197.626129 221.609665,199.055618 222.439331,200.059586 
	C215.978516,200.357910 209.971420,200.653717 203.964310,200.949539 
z"/>
<path fill="#6D08E7" opacity="1.000000" stroke="none" 
	d="
M222.893036,200.057068 
	C221.609665,199.055618 220.466110,197.626129 219.010880,197.150848 
	C216.703537,196.397278 214.187790,196.281784 211.259003,195.816757 
	C215.424561,194.731567 219.053574,193.786133 222.850494,192.521423 
	C228.142395,193.024246 233.266418,193.846344 238.731506,194.888535 
	C234.650604,195.332443 230.228653,195.556259 224.688385,195.836670 
	C228.744766,198.166214 231.918945,199.989105 234.768463,202.056061 
	C230.593552,201.552444 226.743301,200.804749 222.893036,200.057068 
z"/>
<path fill="#440C9D" opacity="1.000000" stroke="none" 
	d="
M344.012573,287.595490 
	C334.107666,291.116638 325.089813,288.733398 316.263306,283.229919 
	C316.020905,282.996826 315.998718,283.032288 315.998718,283.032288 
	C321.439087,283.512146 326.879425,283.992004 332.805908,285.002808 
	C336.837769,285.654358 340.383453,285.774902 343.991760,286.318420 
	C344.040436,287.026062 344.026520,287.310760 344.012573,287.595490 
z"/>
<path fill="#440C9D" opacity="1.000000" stroke="none" 
	d="
M297.697235,205.923340 
	C299.594238,205.147797 301.175903,204.515610 302.757568,203.883438 
	C302.928223,204.211578 303.098877,204.539703 303.269501,204.867844 
	C297.617798,209.434052 291.966064,214.000259 285.244324,219.430954 
	C285.400391,217.487915 284.977203,215.503235 285.707031,214.889374 
	C289.434906,211.753815 293.460449,208.972153 297.697235,205.923340 
z"/>
<path fill="#AB05CE" opacity="1.000000" stroke="none" 
	d="
M344.421234,287.559387 
	C344.026520,287.310760 344.040436,287.026062 344.242188,286.231659 
	C344.736053,285.067963 345.042084,284.414001 345.348114,283.760040 
	C350.606171,281.207825 355.864227,278.655609 361.910126,275.720978 
	C357.401581,282.147156 351.731384,285.675293 344.421234,287.559387 
z"/>
<path fill="#6D08E7" opacity="1.000000" stroke="none" 
	d="
M344.957458,283.740845 
	C345.042084,284.414001 344.736053,285.067963 344.179596,285.808685 
	C340.383453,285.774902 336.837769,285.654358 333.151611,285.172607 
	C336.863037,284.448181 340.714935,284.084930 344.957458,283.740845 
z"/>
<path fill="#440C9D" opacity="1.000000" stroke="none" 
	d="
M316.038391,282.984741 
	C315.335815,282.648315 314.615723,282.323975 313.895660,281.999634 
	C314.025269,281.792603 314.154846,281.585571 314.284454,281.378510 
	C314.759827,281.782257 315.235229,282.185974 315.854675,282.811005 
	C315.998718,283.032288 316.020905,282.996826 316.038391,282.984741 
z"/>
<path fill="#0B0FE8" opacity="1.000000" stroke="none" 
	d="
M165.771576,219.153046 
	C165.806381,219.546539 165.572647,220.094177 165.081177,220.811874 
	C165.049957,220.423691 165.276489,219.865433 165.771576,219.153046 
z"/>
<path fill="#BF35E8" opacity="1.000000" stroke="none" 
	d="
M267.999969,208.672089 
	C267.798462,208.823532 267.546875,208.683548 267.191223,208.310120 
	C267.402771,208.059296 267.690369,208.160629 267.999969,208.672089 
z"/>
<path fill="#0B0FE8" opacity="1.000000" stroke="none" 
	d="
M166.741867,218.032196 
	C166.834579,218.254150 166.669464,218.552689 166.258362,218.945282 
	C166.169601,218.729156 166.326828,218.418961 166.741867,218.032196 
z"/>
<path fill="#0B0FE8" opacity="1.000000" stroke="none" 
	d="
M164.673615,220.949326 
	C164.721848,221.181396 164.462158,221.483688 163.931061,221.925064 
	C163.895004,221.715942 164.130356,221.367752 164.673615,220.949326 
z"/>
<path fill="#0B0FE8" opacity="1.000000" stroke="none" 
	d="
M355.068970,206.938385 
	C355.459778,206.891266 355.732849,207.025375 356.068542,207.458084 
	C356.178986,207.659286 356.027161,207.935959 355.770569,207.923126 
	C355.251465,207.711838 355.034119,207.472412 354.861908,207.192001 
	C354.861908,207.192001 354.999115,207.022232 355.068970,206.938385 
z"/>
<path fill="#0B10A5" opacity="1.000000" stroke="none" 
	d="
M162.113022,273.813019 
	C161.416107,270.259430 160.797562,266.688293 160.008102,263.155396 
	C157.238510,250.761139 161.181946,239.745331 167.272400,228.546555 
	C174.034256,217.911484 182.566528,210.370224 193.899261,206.273895 
	C203.665466,202.743835 213.672272,201.268188 224.014282,203.650269 
	C223.593536,207.394608 224.989761,209.484314 228.385757,209.826416 
	C233.409286,210.332489 234.852600,213.516388 234.469376,217.877808 
	C230.075836,216.856247 226.024307,215.958267 222.011322,214.912415 
	C220.806519,214.598419 218.861710,214.059219 218.695557,213.305740 
	C217.272049,206.850418 212.421906,208.988556 208.735245,209.458603 
	C187.673553,212.143951 176.283432,225.316803 171.303406,244.969849 
	C168.933975,254.320465 169.408707,263.585907 173.896851,272.453918 
	C173.666183,270.074371 173.435501,267.694794 173.204834,265.315247 
	C174.858658,266.929443 175.165802,268.759155 175.990753,270.314178 
	C179.142792,276.255737 181.499847,282.978180 189.394592,285.107727 
	C196.975754,292.660522 205.834702,297.070892 215.649033,299.300690 
	C210.922028,299.237640 206.495972,298.959076 201.767090,298.485596 
	C186.582764,294.891144 173.346603,288.725647 164.007477,276.009033 
	C164.007477,276.009033 164.006821,275.994781 163.950607,275.685120 
	C163.300598,274.854645 162.706802,274.333832 162.113022,273.813019 
z"/>
<path fill="#3A0DE2" opacity="1.000000" stroke="none" 
	d="
M163.989075,276.399048 
	C173.346603,288.725647 186.582764,294.891144 201.768585,298.902527 
	C202.513657,301.238678 202.939270,302.967010 203.398087,304.686493 
	C204.557602,309.032074 205.732071,313.373657 206.900543,317.716858 
	C206.141083,317.461548 205.381622,317.206238 204.317841,316.906921 
	C200.598221,315.271301 197.182922,313.679718 193.414490,312.026367 
	C191.249374,310.725739 189.437393,309.486847 187.321777,308.110657 
	C181.827499,302.851166 176.636826,297.729004 171.234558,292.370270 
	C168.672211,287.018860 166.321457,281.903961 163.989075,276.399048 
z"/>
<path fill="#8B76F3" opacity="1.000000" stroke="none" 
	d="
M224.008560,203.254807 
	C213.672272,201.268188 203.665466,202.743835 193.899261,206.273895 
	C182.566528,210.370224 174.034256,217.911484 167.357819,228.221191 
	C170.185638,223.669266 173.246765,218.870819 176.469955,214.183838 
	C177.372116,212.871964 178.751907,211.888580 180.029175,210.441940 
	C180.145721,210.129364 180.503723,209.960800 180.959305,209.864319 
	C181.858643,209.462097 182.302399,209.156342 182.746155,208.850586 
	C182.746155,208.850586 182.839706,208.774963 183.116699,208.709946 
	C183.680069,208.523590 183.909943,208.333817 184.083344,208.075592 
	C190.468018,205.777649 196.852707,203.479706 203.600845,201.065643 
	C209.971420,200.653717 215.978516,200.357910 222.439331,200.059570 
	C226.743301,200.804749 230.593552,201.552444 234.892303,202.436066 
	C239.072998,204.215591 242.805222,205.859161 246.296371,207.808594 
	C238.706390,206.494553 231.357483,204.874680 224.008560,203.254807 
z"/>
<path fill="#3A0DE2" opacity="1.000000" stroke="none" 
	d="
M162.200714,274.100891 
	C162.706802,274.333832 163.300598,274.854645 163.943848,275.682648 
	C163.425003,275.456177 162.856705,274.922455 162.200714,274.100891 
z"/>
<path fill="#440C9D" opacity="1.000000" stroke="none" 
	d="
M224.014282,203.650269 
	C231.357483,204.874680 238.706390,206.494553 246.425537,208.123596 
	C247.332703,208.398514 247.869659,208.664261 248.673767,209.073456 
	C248.700317,214.428177 251.077484,217.738144 255.621933,220.413467 
	C260.302399,223.168869 265.631104,226.176346 268.368073,230.525894 
	C271.551361,235.584763 272.227692,242.221130 273.679474,248.607056 
	C273.165161,249.055389 272.963379,249.069534 272.680298,248.762329 
	C262.743927,241.236282 252.888870,234.031601 243.019287,226.444473 
	C243.428665,220.182373 238.046448,220.152664 234.826157,217.944702 
	C234.852600,213.516388 233.409286,210.332489 228.385757,209.826416 
	C224.989761,209.484314 223.593536,207.394608 224.014282,203.650269 
z"/>
<path fill="#0D1178" opacity="1.000000" stroke="none" 
	d="
M272.761597,249.083694 
	C272.963379,249.069534 273.165161,249.055389 273.670044,249.033600 
	C275.839111,251.203781 277.705048,253.381638 279.796326,255.817566 
	C280.021729,256.075653 279.961884,256.507172 279.596008,256.715454 
	C278.781708,257.012817 278.333282,257.101929 277.529266,257.081299 
	C274.752991,256.258850 272.332306,255.546143 269.955444,254.500656 
	C270.920044,252.473145 271.840820,250.778412 272.761597,249.083694 
z"/>
<path fill="#BF35E8" opacity="1.000000" stroke="none" 
	d="
M268.107544,220.335770 
	C268.277405,220.258087 268.478882,220.416382 268.724304,220.798706 
	C268.551849,220.886978 268.342133,220.736633 268.107544,220.335770 
z"/>
<path fill="#BF35E8" opacity="1.000000" stroke="none" 
	d="
M267.083496,219.360931 
	C267.261810,219.267563 267.473450,219.421722 267.745361,219.800781 
	C267.561768,219.921463 267.332123,219.782410 267.083496,219.360931 
z"/>
<path fill="#880D7D" opacity="1.000000" stroke="none" 
	d="
M367.026947,240.514572 
	C367.667542,243.360123 368.308167,246.205673 368.916870,249.424988 
	C365.521912,241.891479 361.264801,234.858841 351.726532,232.575378 
	C351.360107,232.516464 351.242249,232.548096 351.120605,232.431274 
	C350.760498,232.153290 350.498474,232.090759 349.914490,232.021423 
	C349.407867,231.881653 349.199677,231.847351 348.685181,231.636520 
	C346.968231,231.307129 345.557556,231.154251 343.866821,230.814087 
	C341.360504,228.256882 339.134247,225.886978 337.300720,223.431213 
	C340.375031,223.666031 343.056610,223.986679 346.036499,224.497345 
	C348.175629,225.168762 350.016388,225.650177 352.107605,226.359741 
	C354.570496,227.774155 356.782990,228.960419 359.169556,230.417831 
	C361.569153,233.129852 363.794678,235.570740 366.020203,238.011627 
	C366.020203,238.011612 366.003662,237.997559 366.009491,238.340698 
	C366.352539,239.294098 366.689728,239.904327 367.026947,240.514572 
z"/>
<path fill="#151416" opacity="1.000000" stroke="none" 
	d="
M336.907959,223.517059 
	C339.134247,225.886978 341.360504,228.256882 343.911682,231.198914 
	C348.918671,243.791931 344.537994,252.603439 332.499115,254.766983 
	C329.840881,255.244705 326.951111,254.433807 324.167938,254.216278 
	C317.860321,250.710327 311.552734,247.204376 305.365173,243.173889 
	C307.340149,239.818192 309.195099,236.987015 311.369507,234.036835 
	C313.803955,232.004593 315.918915,230.091354 318.347717,228.082550 
	C320.142303,227.125366 321.623016,226.263733 323.463684,225.318573 
	C325.212860,224.761703 326.602142,224.288345 328.391663,223.841553 
	C331.497253,223.751099 334.202606,223.634079 336.907959,223.517059 
z"/>
<path fill="#EA02DB" opacity="1.000000" stroke="none" 
	d="
M292.077393,229.151550 
	C294.068939,226.174026 296.224640,223.483932 298.866058,220.395264 
	C299.578949,219.649353 299.806061,219.302002 300.033203,218.954666 
	C300.033203,218.954666 300.032196,219.028992 300.251709,218.942978 
	C300.655396,218.559525 300.839569,218.262085 301.023743,217.964645 
	C301.023743,217.964645 301.028259,218.026291 301.321167,217.914291 
	C302.126801,216.897491 302.639526,215.992676 303.152252,215.087860 
	C303.152252,215.087875 303.079193,215.086227 303.435364,215.252167 
	C307.894653,212.952667 311.997742,210.487213 316.155762,208.387222 
	C316.883057,211.168243 317.555450,213.583801 317.908936,216.141129 
	C315.349792,217.590530 313.109528,218.898178 310.586700,220.350006 
	C305.807892,225.025345 301.311646,229.556503 296.815399,234.087677 
	C295.290771,232.538101 293.766113,230.988541 292.077393,229.151550 
z"/>
<path fill="#503AEC" opacity="1.000000" stroke="none" 
	d="
M296.917969,234.410858 
	C301.311646,229.556503 305.807892,225.025345 310.600586,220.774780 
	C310.948059,225.422195 310.999054,229.789032 311.050049,234.155853 
	C309.195099,236.987015 307.340149,239.818192 305.224884,242.869019 
	C302.316559,240.303787 299.668518,237.518906 296.917969,234.410858 
z"/>
<path fill="#EA02DB" opacity="1.000000" stroke="none" 
	d="
M324.468872,254.412735 
	C326.951111,254.433807 329.840881,255.244705 332.499115,254.766983 
	C344.537994,252.603439 348.918671,243.791931 344.191742,231.386200 
	C345.557556,231.154251 346.968231,231.307129 348.763123,231.897827 
	C349.425690,232.545349 349.704041,232.755020 349.992523,232.978241 
	C350.002686,232.991776 350.028168,233.014008 350.028168,233.014008 
	C350.322815,235.951096 350.851288,238.886841 350.867920,241.825500 
	C350.916046,250.323837 345.434113,255.916260 336.986023,255.807144 
	C332.909454,255.754486 328.841614,255.029678 324.468872,254.412735 
z"/>
<path fill="#EA02DB" opacity="1.000000" stroke="none" 
	d="
M320.787415,263.806641 
	C320.433136,263.853943 319.869995,263.681824 319.080566,263.312988 
	C319.429016,263.273254 320.003815,263.430237 320.787415,263.806641 
z"/>
<path fill="#EA02DB" opacity="1.000000" stroke="none" 
	d="
M350.212891,232.126862 
	C350.498474,232.090759 350.760498,232.153290 351.102386,232.489502 
	C351.011017,232.727798 350.816193,232.791061 350.324768,232.934174 
	C350.028168,233.014008 350.002686,232.991776 350.061157,232.771820 
	C350.119598,232.551880 350.212891,232.126862 350.212891,232.126862 
z"/>
<path fill="#AB05CE" opacity="1.000000" stroke="none" 
	d="
M277.884827,257.191040 
	C278.333282,257.101929 278.781708,257.012817 279.573334,256.932068 
	C279.968719,257.968781 280.020935,258.997101 280.079895,260.410858 
	C274.199158,270.047089 268.311676,279.297913 261.924530,288.970154 
	C257.771637,292.285278 254.118393,295.178955 250.108765,297.792542 
	C249.282791,296.749695 248.813202,295.986908 248.572968,294.993591 
	C250.360580,293.573120 252.129639,292.577789 253.439651,291.158691 
	C258.361267,285.827148 263.133179,280.357391 267.977753,274.965637 
	C267.994324,274.991821 267.932861,274.983734 268.223053,274.849731 
	C268.675934,274.129822 268.838623,273.543976 269.008606,272.985229 
	C269.015900,273.012360 268.959717,273.012146 269.238983,272.971008 
	C269.671875,272.600098 269.825470,272.270264 269.990845,271.969086 
	C270.002594,271.997711 269.941010,272.003876 270.238586,271.793091 
	C270.708435,270.891479 270.880707,270.200684 271.234070,269.248169 
	C273.571716,265.054626 275.728271,261.122833 277.884827,257.191040 
z"/>
<path fill="#DA34E7" opacity="1.000000" stroke="none" 
	d="
M250.465149,298.072662 
	C254.118393,295.178955 257.771637,292.285278 261.703552,289.221039 
	C261.752411,292.546082 261.522522,296.041626 260.778198,299.874451 
	C259.179840,301.137939 258.095917,302.064240 257.011963,302.990509 
	C257.011963,302.990509 257.000000,303.000092 256.655975,303.065552 
	C254.034698,304.122406 251.757462,305.113770 249.167160,305.835571 
	C248.556351,303.965393 248.258621,302.364746 248.135651,300.515472 
	C249.028687,299.535431 249.746918,298.804047 250.465149,298.072662 
z"/>
<path fill="#9824E5" opacity="1.000000" stroke="none" 
	d="
M257.346863,303.020874 
	C258.095917,302.064240 259.179840,301.137939 260.592133,300.197693 
	C260.374115,300.920532 259.827728,301.657288 259.148590,302.635010 
	C258.571136,302.934448 258.126434,302.992859 257.346863,303.020874 
z"/>
<path fill="#6D08E7" opacity="1.000000" stroke="none" 
	d="
M250.108765,297.792542 
	C249.746918,298.804047 249.028687,299.535431 247.796082,300.629028 
	C238.435196,304.941315 229.588684,308.891388 220.742157,312.841431 
	C220.816315,313.286469 220.890472,313.731506 220.964630,314.176575 
	C228.670425,312.649109 236.376236,311.121674 244.112183,309.954773 
	C244.401978,311.481873 244.661636,312.648376 244.921326,313.814911 
	C243.373413,314.659943 241.825485,315.504944 240.039291,316.581940 
	C229.245880,321.192535 218.523590,320.155029 207.330627,317.759827 
	C205.732071,313.373657 204.557602,309.032074 203.398087,304.686493 
	C202.939270,302.967010 202.513657,301.238678 202.071411,299.097443 
	C206.495972,298.959076 210.922028,299.237640 216.088135,299.270905 
	C219.135574,298.959412 221.442978,298.893219 224.078644,299.054382 
	C227.471207,299.146973 230.535507,299.012177 233.976013,298.917664 
	C239.016006,297.713348 243.679810,296.468750 248.343628,295.224121 
	C248.813202,295.986908 249.282791,296.749695 250.108765,297.792542 
z"/>
<path fill="#6D08E7" opacity="1.000000" stroke="none" 
	d="
M354.486938,207.149292 
	C355.034119,207.472412 355.251465,207.711838 355.703491,208.065948 
	C357.253723,213.544769 358.614441,218.867905 359.695496,224.441589 
	C357.610565,223.132462 355.805267,221.572815 353.770233,219.764069 
	C351.696381,218.681213 349.852234,217.847473 347.722870,216.898163 
	C346.618073,216.163666 345.798523,215.544754 344.892426,214.561371 
	C343.859100,210.766861 342.912292,207.336807 341.965515,203.906754 
	C346.014343,204.973358 350.063171,206.039963 354.486938,207.149292 
z"/>
<path fill="#9824E5" opacity="1.000000" stroke="none" 
	d="
M341.586731,203.750702 
	C342.912292,207.336807 343.859100,210.766861 344.508850,214.543671 
	C341.486633,214.263397 338.761444,213.636337 336.003662,212.622665 
	C334.531097,209.355026 333.091095,206.473984 331.983887,203.437256 
	C333.926300,203.164642 335.535919,203.047699 337.145569,202.930771 
	C338.499695,203.152069 339.853821,203.373367 341.586731,203.750702 
z"/>
<path fill="#8B76F3" opacity="1.000000" stroke="none" 
	d="
M336.910461,202.695374 
	C335.535919,203.047699 333.926300,203.164642 331.581787,203.479950 
	C325.931580,205.126129 321.016235,206.573959 316.100861,208.021759 
	C311.997742,210.487213 307.894653,212.952667 303.440704,215.288315 
	C311.971436,204.806686 323.331360,201.009628 336.910461,202.695374 
z"/>
<path fill="#8B76F3" opacity="1.000000" stroke="none" 
	d="
M302.832642,215.183807 
	C302.639526,215.992676 302.126801,216.897491 301.290283,217.913452 
	C301.481964,217.109650 301.997498,216.194702 302.832642,215.183807 
z"/>
<path fill="#8B76F3" opacity="1.000000" stroke="none" 
	d="
M300.743622,218.010284 
	C300.839569,218.262085 300.655396,218.559525 300.214539,218.943573 
	C300.126434,218.705429 300.294983,218.380676 300.743622,218.010284 
z"/>
<path fill="#8B76F3" opacity="1.000000" stroke="none" 
	d="
M299.733032,219.091644 
	C299.806061,219.302002 299.578949,219.649353 299.104218,220.200867 
	C299.048706,220.012894 299.240784,219.620743 299.733032,219.091644 
z"/>
<path fill="#9824E5" opacity="1.000000" stroke="none" 
	d="
M245.251389,313.731934 
	C244.661636,312.648376 244.401978,311.481873 244.332001,309.753723 
	C246.174545,308.163147 247.827377,307.134125 249.480225,306.105103 
	C251.757462,305.113770 254.034698,304.122406 256.650726,303.071320 
	C253.186813,306.557373 249.384140,310.103180 245.251389,313.731934 
z"/>
<path fill="#BF35E8" opacity="1.000000" stroke="none" 
	d="
M353.999969,220.013153 
	C355.805267,221.572815 357.610565,223.132462 359.698303,224.853394 
	C360.041534,225.394089 360.102325,225.773483 360.115417,226.796631 
	C359.710327,228.342468 359.352905,229.244568 358.995483,230.146683 
	C356.782990,228.960419 354.570496,227.774155 352.416565,226.140289 
	C352.983429,223.799500 353.491699,221.906326 353.999969,220.013153 
z"/>
<path fill="#9824E5" opacity="1.000000" stroke="none" 
	d="
M359.169556,230.417831 
	C359.352905,229.244568 359.710327,228.342468 360.148132,227.083221 
	C362.195648,230.229004 364.162811,233.731934 366.075073,237.623245 
	C363.794678,235.570740 361.569153,233.129852 359.169556,230.417831 
z"/>
<path fill="#9824E5" opacity="1.000000" stroke="none" 
	d="
M367.029663,240.150879 
	C366.689728,239.904327 366.352539,239.294098 366.006775,238.330200 
	C366.342957,238.580093 366.687683,239.183640 367.029663,240.150879 
z"/>
<path fill="#503AEC" opacity="1.000000" stroke="none" 
	d="
M182.473755,208.875320 
	C182.302399,209.156342 181.858643,209.462097 181.133301,209.770142 
	C181.301590,209.481628 181.751465,209.190842 182.473755,208.875320 
z"/>
<path fill="#503AEC" opacity="1.000000" stroke="none" 
	d="
M183.856476,208.112579 
	C183.909943,208.333817 183.680069,208.523590 183.174133,208.692062 
	C183.098648,208.450027 183.323654,208.253479 183.856476,208.112579 
z"/>
<path fill="#151416" opacity="1.000000" stroke="none" 
	d="
M223.750381,298.827026 
	C221.442978,298.893219 219.135574,298.959412 216.389069,299.055389 
	C205.834702,297.070892 196.975754,292.660522 189.313873,284.770203 
	C182.743332,275.921021 180.233582,266.659149 180.796631,256.227264 
	C181.605423,241.242432 193.276123,226.631012 207.744446,222.780624 
	C220.122131,219.486588 231.684906,221.878006 243.033798,226.826920 
	C252.888870,234.031601 262.743927,241.236282 272.680298,248.762329 
	C271.840820,250.778412 270.920044,252.473145 269.716675,254.755035 
	C265.515594,261.886566 261.797577,268.561584 257.635956,274.947510 
	C249.544662,287.363373 238.877518,296.307037 223.750381,298.827026 
M249.320206,275.659576 
	C248.965637,276.125183 248.611053,276.590790 247.762268,277.525482 
	C243.527649,281.365723 239.293030,285.205933 234.721191,289.089447 
	C234.568375,289.234314 234.415543,289.379181 234.262741,289.524078 
	C234.513077,289.347534 234.763412,289.171021 235.737320,288.915710 
	C242.590363,285.747589 249.097839,282.158417 253.261078,274.615143 
	C255.154678,271.765839 257.048279,268.916565 259.493347,265.662018 
	C262.232086,261.138916 264.898285,256.569672 267.736816,252.110092 
	C269.427521,249.453903 268.768250,248.023285 265.916809,247.172211 
	C262.403656,253.572983 259.003662,259.767578 255.071854,266.322876 
	C253.347595,269.526733 251.623337,272.730591 249.961105,275.969513 
	C249.961105,275.969513 249.956314,275.898438 249.320206,275.659576 
M215.449493,228.094742 
	C205.659760,226.923172 198.442551,231.278564 191.539474,239.206390 
	C193.308243,238.853363 194.072769,238.929398 194.483414,238.584320 
	C200.111389,233.855118 206.664185,231.542526 213.894745,230.736526 
	C214.998276,230.613510 215.985184,229.444275 217.832489,229.005386 
	C225.193512,230.400116 232.554535,231.794846 239.915558,233.189590 
	C233.246109,227.506516 225.558304,225.111359 216.894470,226.014664 
	C216.603104,226.045029 216.438568,227.292084 215.449493,228.094742 
M231.543365,290.506866 
	C231.543365,290.506866 231.502121,290.507446 231.543365,290.506866 
z"/>
<path fill="#0D1178" opacity="1.000000" stroke="none" 
	d="
M243.019287,226.444473 
	C231.684906,221.878006 220.122131,219.486588 207.744446,222.780624 
	C193.276123,226.631012 181.605423,241.242432 180.796631,256.227264 
	C180.233582,266.659149 182.743332,275.921021 189.045761,284.576111 
	C181.499847,282.978180 179.142792,276.255737 175.990753,270.314178 
	C175.165802,268.759155 174.858658,266.929443 173.204834,265.315247 
	C173.435501,267.694794 173.666183,270.074371 173.896851,272.453918 
	C169.408707,263.585907 168.933975,254.320465 171.303406,244.969849 
	C176.283432,225.316803 187.673553,212.143951 208.735245,209.458603 
	C212.421906,208.988556 217.272049,206.850418 218.695557,213.305740 
	C218.861710,214.059219 220.806519,214.598419 222.011322,214.912415 
	C226.024307,215.958267 230.075836,216.856247 234.469376,217.877808 
	C238.046448,220.152664 243.428665,220.182373 243.019287,226.444473 
z"/>
<path fill="#0B0FE8" opacity="1.000000" stroke="none" 
	d="
M224.078644,299.054382 
	C238.877518,296.307037 249.544662,287.363373 257.635956,274.947510 
	C261.797577,268.561584 265.515594,261.886566 269.672852,255.087830 
	C272.332306,255.546143 274.752991,256.258850 277.529266,257.081299 
	C275.728271,261.122833 273.571716,265.054626 270.983582,269.505707 
	C270.348297,270.684631 270.144653,271.344238 269.941010,272.003876 
	C269.941010,272.003876 270.002594,271.997711 269.703339,271.996094 
	C269.255951,272.333679 269.107819,272.672913 268.959717,273.012146 
	C268.959717,273.012146 269.015900,273.012360 268.703979,273.111084 
	C268.238983,273.801117 268.085907,274.392426 267.932861,274.983734 
	C267.932861,274.983734 267.994324,274.991821 267.632751,274.945801 
	C258.168243,285.870544 247.567719,294.738342 233.599808,298.877350 
	C230.535507,299.012177 227.471207,299.146973 224.078644,299.054382 
z"/>
<path fill="#FB33E6" opacity="1.000000" stroke="none" 
	d="
M336.036255,213.009277 
	C338.761444,213.636337 341.486633,214.263397 344.595398,214.908142 
	C345.798523,215.544754 346.618073,216.163666 347.704346,217.284958 
	C347.226746,219.960678 346.482452,222.134003 345.738159,224.307343 
	C343.056610,223.986679 340.375031,223.666031 337.300720,223.431213 
	C334.202606,223.634079 331.497253,223.751099 328.390808,223.395355 
	C327.970184,219.905167 327.950653,216.887741 328.307587,213.733521 
	C331.134796,213.400925 333.585510,213.205109 336.036255,213.009277 
z"/>
<path fill="#DA34E7" opacity="1.000000" stroke="none" 
	d="
M346.036499,224.497345 
	C346.482452,222.134003 347.226746,219.960678 347.989563,217.400543 
	C349.852234,217.847473 351.696381,218.681213 353.770233,219.764069 
	C353.491699,221.906326 352.983429,223.799500 352.166168,225.912140 
	C350.016388,225.650177 348.175629,225.168762 346.036499,224.497345 
z"/>
<path fill="#FB33E6" opacity="1.000000" stroke="none" 
	d="
M349.914490,232.021423 
	C350.212891,232.126862 350.119598,232.551880 350.050964,232.758286 
	C349.704041,232.755020 349.425690,232.545349 349.069427,232.074371 
	C349.199677,231.847351 349.407867,231.881653 349.914490,232.021423 
z"/>
<path fill="#9824E5" opacity="1.000000" stroke="none" 
	d="
M311.369507,234.036835 
	C310.999054,229.789032 310.948059,225.422195 310.883179,220.630600 
	C313.109528,218.898178 315.349792,217.590530 318.049957,216.162354 
	C318.509857,216.041824 318.797455,216.084274 318.822327,216.499756 
	C318.576080,220.669525 318.304962,224.423813 318.033844,228.178116 
	C315.918915,230.091354 313.803955,232.004593 311.369507,234.036835 
z"/>
<path fill="#BF35E8" opacity="1.000000" stroke="none" 
	d="
M318.347717,228.082550 
	C318.304962,224.423813 318.576080,220.669525 319.194214,216.404510 
	C320.975861,215.529022 322.410492,215.164230 323.802582,215.221664 
	C323.541290,218.896622 323.322510,222.149368 323.103760,225.402100 
	C321.623016,226.263733 320.142303,227.125366 318.347717,228.082550 
z"/>
<path fill="#DA34E7" opacity="1.000000" stroke="none" 
	d="
M323.463684,225.318573 
	C323.322510,222.149368 323.541290,218.896622 324.103088,215.028687 
	C325.607758,214.232437 326.769440,214.051376 327.931091,213.870300 
	C327.950653,216.887741 327.970184,219.905167 327.990540,223.368805 
	C326.602142,224.288345 325.212860,224.761703 323.463684,225.318573 
z"/>
<path fill="#AB05CE" opacity="1.000000" stroke="none" 
	d="
M328.307556,213.733521 
	C326.769440,214.051376 325.607758,214.232437 324.145630,214.606476 
	C322.410492,215.164230 320.975861,215.529022 319.169342,215.989044 
	C318.797455,216.084274 318.509857,216.041824 318.368835,216.020599 
	C317.555450,213.583801 316.883057,211.168243 316.155762,208.387238 
	C321.016235,206.573959 325.931580,205.126129 331.249023,203.635620 
	C333.091095,206.473984 334.531097,209.355026 336.003662,212.622681 
	C333.585510,213.205109 331.134796,213.400925 328.307556,213.733521 
z"/>
<path fill="#8B76F3" opacity="1.000000" stroke="none" 
	d="
M233.976013,298.917664 
	C247.567719,294.738342 258.168243,285.870544 267.616180,274.919586 
	C263.133179,280.357391 258.361267,285.827148 253.439651,291.158691 
	C252.129639,292.577789 250.360580,293.573120 248.572968,294.993591 
	C243.679810,296.468750 239.016006,297.713348 233.976013,298.917664 
z"/>
<path fill="#8B76F3" opacity="1.000000" stroke="none" 
	d="
M270.238586,271.793091 
	C270.144653,271.344238 270.348297,270.684631 270.802490,269.767456 
	C270.880707,270.200684 270.708435,270.891479 270.238586,271.793091 
z"/>
<path fill="#8B76F3" opacity="1.000000" stroke="none" 
	d="
M268.223022,274.849731 
	C268.085907,274.392426 268.238983,273.801117 268.696716,273.083954 
	C268.838623,273.543976 268.675934,274.129822 268.223022,274.849731 
z"/>
<path fill="#8B76F3" opacity="1.000000" stroke="none" 
	d="
M269.238983,272.971008 
	C269.107819,272.672913 269.255951,272.333679 269.691589,271.967468 
	C269.825470,272.270264 269.671875,272.600098 269.238983,272.971008 
z"/>
<path fill="#FB33E6" opacity="1.000000" stroke="none" 
	d="
M249.167145,305.835571 
	C247.827377,307.134125 246.174545,308.163147 244.301880,309.393188 
	C236.376236,311.121674 228.670425,312.649109 220.964630,314.176575 
	C220.890472,313.731506 220.816315,313.286469 220.742157,312.841431 
	C229.588684,308.891388 238.435196,304.941315 247.621307,300.877686 
	C248.258621,302.364746 248.556351,303.965393 249.167145,305.835571 
z"/>
<path fill="#AB05CE" opacity="1.000000" stroke="none" 
	d="
M216.214920,227.972015 
	C216.438568,227.292084 216.603104,226.045029 216.894470,226.014664 
	C225.558304,225.111359 233.246109,227.506516 239.915558,233.189590 
	C232.554535,231.794846 225.193512,230.400116 217.378983,228.678055 
	C216.761292,228.088089 216.524429,227.961853 216.214920,227.972015 
z"/>
<path fill="#440C9D" opacity="1.000000" stroke="none" 
	d="
M215.832214,228.033386 
	C216.524429,227.961853 216.761292,228.088089 216.975754,228.554840 
	C215.985184,229.444275 214.998276,230.613510 213.894745,230.736526 
	C206.664185,231.542526 200.111389,233.855118 194.483414,238.584320 
	C194.072769,238.929398 193.308243,238.853363 191.539474,239.206390 
	C198.442551,231.278564 205.659760,226.923172 215.832214,228.033386 
z"/>
<path fill="#AB05CE" opacity="1.000000" stroke="none" 
	d="
M255.603668,265.962189 
	C259.003662,259.767578 262.403656,253.572983 265.916809,247.172211 
	C268.768250,248.023285 269.427521,249.453903 267.736816,252.110092 
	C264.898285,256.569672 262.232086,261.138916 258.800415,265.862823 
	C257.272888,266.029816 256.438263,265.996002 255.603668,265.962189 
z"/>
<path fill="#440C9D" opacity="1.000000" stroke="none" 
	d="
M235.058395,289.046143 
	C239.293030,285.205933 243.527649,281.365723 248.273438,277.227020 
	C249.175186,276.585175 249.565750,276.241791 249.956299,275.898438 
	C249.956314,275.898438 249.961105,275.969513 250.220551,275.888550 
	C251.214355,275.541229 251.948715,275.274872 252.683060,275.008484 
	C249.097839,282.158417 242.590363,285.747589 235.383698,288.969543 
	C235.030090,289.023346 235.058395,289.046143 235.058395,289.046143 
z"/>
<path fill="#730AB1" opacity="1.000000" stroke="none" 
	d="
M252.972076,274.811829 
	C251.948715,275.274872 251.214355,275.541229 250.189545,275.871033 
	C251.623337,272.730591 253.347595,269.526733 255.337769,266.142517 
	C256.438263,265.996002 257.272888,266.029816 258.524689,266.065430 
	C257.048279,268.916565 255.154678,271.765839 252.972076,274.811829 
z"/>
<path fill="#440C9D" opacity="1.000000" stroke="none" 
	d="
M235.021912,289.008911 
	C234.763412,289.171021 234.513077,289.347534 234.262726,289.524048 
	C234.415543,289.379181 234.568375,289.234314 234.889801,289.067810 
	C235.058395,289.046143 235.030090,289.023346 235.021912,289.008911 
z"/>
<path fill="#730AB1" opacity="1.000000" stroke="none" 
	d="
M249.638245,275.778992 
	C249.565750,276.241791 249.175186,276.585175 248.520538,276.992493 
	C248.611053,276.590790 248.965637,276.125183 249.638245,275.778992 
z"/>
<path fill="#440C9D" opacity="1.000000" stroke="none" 
	d="
M231.522736,290.507141 
	C231.502121,290.507446 231.543365,290.506866 231.522736,290.507141 
z"/>
</svg>