 <svg  version="1.0" xmlns="http://www.w3.org/2000/svg"  width="300.000000pt" height="300.000000pt" viewBox="0 0 300.000000 300.000000"  preserveAspectRatio="xMidYMid meet">  <g transform="translate(0.000000,300.000000) scale(0.100000,-0.100000)" fill="#e1e1e1" stroke="none"> <path d="M1548 2633 c-54 -8 -27 -20 60 -26 48 -4 114 -14 147 -22 65 -17 167 -55 175 -65 9 -12 122 -71 127 -66 5 5 -68 55 -117 81 -19 9 -73 30 -120 46 -47 15 -75 28 -64 29 37 0 177 -50 229 -82 199 -124 317 -282 371 -496 27 -108 29 -124 11 -97 -8 11 -19 47 -26 80 -33 150 -119 304 -224 395 -64 55 -52 26 16 -38 95 -92 183 -260 202 -385 4 -26 11 -47 16 -47 17 0 10 -154 -9 -211 -15 -44 -17 -67 -11 -124 9 -83 22 -122 78 -234 23 -46 40 -90 37 -98 -3 -8 -2 -12 3 -9 5 3 12 -1 15 -10 3 -8 2 -13 -3 -10 -4 3 -13 -6 -19 -19 -7 -15 -8 -26 -2 -30 19 -12 10 -26 -9 -15 -11 5 -25 10 -32 10 -21 0 1 -14 41 -26 77 -23 80 27 10 163 -59 116 -100 232 -100 284 0 20 12 68 26 105 24 63 26 79 22 174 -4 84 -11 124 -37 200 -57 169 -122 268 -243 370 -113 95 -291 166 -388 155 -33 -4 -40 -3 -25 4 14 7 3 9 -40 6 -43 -3 -53 -2 -35 4 22 8 20 9 -15 9 -22 -1 -52 -3 -67 -5z"/> <path d="M1418 2604 c-17 -16 8 -24 78 -24 43 0 74 4 74 10 0 6 -20 10 -44 10 -24 0 -56 3 -72 6 -16 3 -32 2 -36 -2z"/> <path d="M1590 2591 c0 -6 17 -13 38 -16 20 -3 59 -10 85 -15 60 -12 70 -12 63 -1 -3 5 -36 14 -73 20 -38 7 -78 14 -90 17 -13 2 -23 0 -23 -5z"/> <path d="M1460 2555 c-15 -18 -5 -35 21 -35 12 0 19 7 19 19 0 24 -25 34 -40 16z"/> <path d="M1547 2553 c-26 -26 12 -80 47 -67 21 8 30 42 16 59 -13 15 -51 20 -63 8z"/> <path d="M1248 2543 c23 -2 61 -2 85 0 23 2 4 4 -43 4 -47 0 -66 -2 -42 -4z"/> <path d="M1776 2521 c-45 -86 -114 -241 -107 -241 4 0 36 58 71 129 54 108 67 127 84 123 13 -3 17 -1 12 6 -13 22 -45 13 -60 -17z"/> <path d="M1645 2506 c0 -34 36 -54 62 -35 10 8 18 25 19 38 l1 24 -18 -21 c-21 -27 -27 -27 -47 -1 -17 20 -17 20 -17 -5z"/> <path d="M1850 2525 c0 -4 79 -45 87 -45 2 0 3 4 3 8 0 5 -16 16 -35 25 -36 17 -55 21 -55 12z"/> <path d="M1792 2475 c-12 -25 -22 -49 -22 -53 0 -8 89 -57 93 -51 1 2 17 25 35 51 l33 47 -38 19 c-73 37 -77 37 -101 -13z m75 13 c38 -14 40 -22 13 -65 -23 -39 -31 -40 -64 -10 -24 21 -25 24 -11 55 16 36 16 36 62 20z"/> <path d="M1021 2505 c7 -6 420 -8 427 -1 3 3 -93 6 -213 6 -120 0 -216 -2 -214 -5z"/> <path d="M1028 2482 c-175 -1 -318 -6 -318 -10 0 -4 180 -6 400 -5 332 2 400 0 400 -11 0 -7 13 -16 29 -19 16 -4 57 -19 90 -35 49 -23 61 -26 66 -14 7 19 -15 34 -89 62 -80 30 -180 36 -578 32z"/> <path d="M1950 2484 c0 -5 33 -33 73 -63 152 -112 260 -294 288 -483 11 -78 2 -169 -18 -175 -9 -3 -9 5 -1 34 13 47 3 149 -23 245 -36 131 -137 277 -247 358 -37 28 -71 50 -75 50 -19 0 1 -20 60 -64 60 -44 167 -167 199 -228 8 -16 27 -64 41 -106 30 -91 44 -264 23 -277 -8 -5 -11 -4 -7 2 8 13 -31 40 -69 48 -24 5 -22 3 8 -11 23 -10 35 -21 31 -28 -3 -6 -3 -8 1 -4 5 4 20 -6 35 -21 24 -25 26 -33 21 -82 -5 -56 8 -149 22 -149 4 0 5 -6 2 -13 -3 -8 2 -14 11 -14 10 0 14 6 10 16 -4 9 -11 54 -17 100 -7 64 -7 94 3 130 44 153 -25 405 -150 557 -61 74 -221 202 -221 178z"/> <path d="M1510 2410 c0 -20 70 -45 113 -41 20 2 29 -3 35 -20 7 -18 10 -19 15 -6 8 22 -7 31 -90 59 -65 22 -73 23 -73 8z"/> <path d="M1023 2413 c20 -2 54 -2 75 0 20 2 3 4 -38 4 -41 0 -58 -2 -37 -4z"/> <path d="M1183 2413 c26 -2 67 -2 90 0 23 2 2 3 -48 3 -49 0 -68 -1 -42 -3z"/> <path d="M1914 2404 c3 -8 2 -12 -4 -9 -5 3 -23 -13 -40 -36 -23 -33 -27 -45 -18 -56 15 -18 18 -16 68 41 39 46 41 51 24 63 -24 18 -37 16 -30 -3z"/> <path d="M1120 2391 c0 -6 9 -20 19 -30 17 -17 36 -20 138 -22 64 -1 119 3 120 7 2 5 -49 7 -113 5 -114 -3 -139 2 -139 31 0 6 -6 13 -12 16 -7 2 -13 -1 -13 -7z"/> <path d="M1420 2380 c0 -16 7 -20 33 -20 17 -1 56 -9 85 -19 48 -17 52 -17 52 -1 0 13 -19 23 -72 39 -90 26 -98 26 -98 1z"/> <path d="M1740 2375 c-13 -23 -12 -27 11 -42 13 -9 45 -38 71 -63 36 -35 50 -44 58 -35 8 9 -9 30 -59 78 -73 69 -84 93 -22 52 37 -26 57 -32 46 -15 -6 9 -78 50 -88 50 -2 0 -10 -11 -17 -25z"/> <path d="M980 2381 l-45 -6 53 -6 c51 -6 92 -32 92 -59 0 -5 7 -10 15 -10 8 0 15 2 15 5 0 6 -79 86 -82 83 -2 0 -23 -4 -48 -7z"/> <path d="M1966 2381 c-7 -10 113 -116 121 -107 7 7 -96 116 -109 116 -4 0 -9 -4 -12 -9z"/> <path d="M597 2373 c-13 -12 -7 -26 6 -15 7 6 40 13 72 15 l60 3 -66 2 c-36 1 -69 -1 -72 -5z"/> <path d="M1617 2353 c-4 -3 -7 -12 -7 -20 0 -15 26 -18 34 -4 7 11 -18 33 -27 24z"/> <path d="M1428 2304 c4 -39 7 -44 28 -44 13 0 54 -12 90 -26 157 -63 274 -236 274 -406 0 -45 3 -58 15 -58 25 0 29 28 16 108 -29 191 -174 360 -345 403 -56 14 -66 25 -26 31 16 2 27 1 24 -4 -3 -4 0 -8 6 -8 6 0 37 -12 68 -27 31 -14 62 -26 69 -26 7 0 11 -2 8 -5 -8 -9 40 -40 54 -34 9 3 12 1 7 -6 -3 -6 0 -14 7 -19 7 -4 17 -16 20 -26 4 -10 11 -15 17 -12 5 3 7 0 5 -8 -7 -17 30 -53 40 -37 13 21 -101 142 -166 175 -43 23 -147 61 -184 68 l-30 6 3 -45z"/> <path d="M1922 2314 c-35 -39 -36 -42 -22 -64 8 -12 17 -8 51 27 36 36 41 44 30 57 -19 22 -23 21 -59 -20z"/> <path d="M1702 2305 c-19 -42 -14 -53 8 -17 22 36 24 42 12 42 -5 0 -14 -11 -20 -25z"/> <path d="M1730 2293 c-24 -46 -24 -49 -6 -33 20 16 47 22 43 10 -4 -14 71 -81 79 -69 4 6 -17 35 -48 66 l-54 54 -14 -28z"/> <path d="M1990 2285 c-19 -20 -21 -28 -12 -37 10 -10 18 -7 38 13 21 21 23 28 11 37 -11 9 -19 6 -37 -13z"/> <path d="M782 2273 c2 -10 10 -18 18 -18 8 0 16 8 18 18 2 12 -3 17 -18 17 -15 0 -20 -5 -18 -17z"/> <path d="M1025 2270 c105 -4 199 -3 210 1 11 4 -74 7 -190 7 l-210 -1 190 -7z"/> <path d="M2033 2259 c-8 -8 -1 -25 22 -60 33 -48 75 -146 75 -174 0 -8 5 -17 10 -20 34 -21 -11 103 -72 198 -17 26 -28 50 -25 53 10 11 67 -81 98 -162 18 -46 36 -84 41 -84 11 0 11 2 -13 67 -12 32 -37 82 -55 111 -19 28 -30 52 -24 52 5 0 12 -5 15 -10 4 -6 11 -7 17 -4 6 4 8 2 4 -4 -3 -6 9 -37 28 -69 19 -32 40 -77 47 -100 8 -30 18 -43 30 -43 22 0 17 18 -31 112 -58 113 -78 139 -104 132 -13 -3 -27 -1 -30 5 -9 14 -19 14 -33 0z"/> <path d="M1735 2250 c-4 -7 6 -26 22 -43 17 -18 42 -49 58 -69 15 -21 31 -35 36 -32 5 3 7 -1 4 -8 -6 -15 40 -133 52 -132 16 1 14 32 -4 50 -10 9 -17 19 -15 21 8 11 0 33 -10 27 -8 -5 -9 -2 -5 10 9 23 -22 73 -72 119 -22 20 -37 37 -35 40 3 2 -2 10 -10 16 -10 9 -16 9 -21 1z"/> <path d="M1970 2210 c38 -48 100 -167 100 -192 0 -10 5 -18 11 -18 13 0 5 27 -32 108 -30 67 -84 142 -101 142 -5 0 5 -18 22 -40z"/> <path d="M1259 2226 c-25 -6 -72 -27 -104 -45 -57 -32 -61 -33 -169 -32 -61 1 -122 5 -135 8 -17 4 -22 2 -19 -7 3 -10 31 -13 121 -11 100 2 117 0 117 -13 0 -8 9 -20 20 -26 16 -8 22 -6 35 13 21 33 107 73 184 87 58 10 103 9 154 -6 12 -4 17 0 17 14 0 14 -9 21 -31 26 -49 9 -139 6 -190 -8z"/> <path d="M1886 2222 c-9 -14 44 -103 56 -96 16 10 7 40 -20 74 -20 23 -31 30 -36 22z"/> <path d="M1937 2208 c12 -13 36 -52 53 -88 18 -36 35 -60 37 -53 8 22 -79 163 -100 163 -6 0 -1 -10 10 -22z"/> <path d="M2000 2225 c0 -3 11 -21 24 -38 34 -45 62 -106 70 -149 4 -21 12 -38 18 -38 6 0 8 11 4 28 -10 42 -89 195 -103 200 -7 2 -13 1 -13 -3z"/> <path d="M1506 2203 c-7 -18 -8 -17 20 -31 17 -9 25 -8 34 3 9 11 6 17 -18 29 -27 14 -31 14 -36 -1z"/> <path d="M540 2195 c0 -6 36 -9 94 -7 93 4 94 3 98 -20 3 -20 9 -23 48 -24 l45 -1 -41 4 c-36 3 -42 8 -47 31 l-6 27 -95 0 c-57 0 -96 -4 -96 -10z"/> <path d="M1855 2180 c-4 -6 7 -32 23 -58 16 -26 33 -57 37 -70 3 -12 11 -19 17 -16 7 4 8 2 4 -5 -11 -17 3 -51 20 -51 20 0 13 22 -33 117 -38 78 -57 101 -68 83z"/> <path d="M1581 2166 c-14 -17 21 -51 44 -43 21 9 18 19 -9 39 -20 14 -26 15 -35 4z"/> <path d="M1273 2155 c-3 -9 -3 -18 0 -21 10 -10 47 7 47 22 0 19 -39 18 -47 -1z"/> <path d="M1342 2158 c6 -17 110 -28 120 -14 11 17 -13 26 -70 26 -39 0 -53 -4 -50 -12z"/> <path d="M1217 2143 c-3 -5 -2 -15 3 -22 10 -17 43 -6 38 12 -6 15 -34 22 -41 10z"/> <path d="M1480 2136 c0 -17 35 -30 51 -20 9 5 6 11 -6 21 -24 17 -45 17 -45 -1z"/> <path d="M1955 2119 c-3 -9 3 -43 14 -75 10 -33 25 -94 31 -136 10 -59 16 -75 27 -71 18 7 10 90 -18 183 -25 85 -45 121 -54 99z"/> <path d="M1161 2104 c-15 -11 -19 -20 -12 -27 12 -12 65 19 56 33 -9 14 -17 12 -44 -6z"/> <path d="M1559 2104 c-9 -11 -9 -18 -1 -26 14 -14 42 -3 42 16 0 20 -27 27 -41 10z"/> <path d="M1645 2110 c-3 -5 10 -29 29 -54 19 -25 44 -71 55 -103 12 -32 26 -66 31 -76 19 -33 -29 -228 -66 -264 -14 -14 -14 -18 -1 -31 19 -18 40 -6 34 19 -3 10 0 17 6 16 6 -1 22 27 35 63 20 55 23 79 20 155 -4 100 -31 173 -89 246 -31 40 -43 46 -54 29z"/> <path d="M410 2090 c0 -5 0 -13 0 -16 0 -3 84 -6 186 -7 185 -2 186 -2 207 -27 22 -25 24 -25 137 -20 78 3 108 8 92 13 -13 5 -59 7 -102 6 -43 -2 -82 0 -86 4 -4 4 -16 7 -26 7 -11 0 -23 11 -28 25 -10 26 -24 32 -35 15 -7 -12 -313 -11 -321 1 -7 12 -24 11 -24 -1z"/> <path d="M1268 2088 c-16 -5 -28 -14 -28 -20 0 -6 8 -7 18 -3 9 4 32 11 50 15 19 5 36 11 39 14 10 10 -50 5 -79 -6z"/> <path d="M1807 2088 c-6 -18 24 -78 35 -72 5 3 9 0 7 -7 -4 -32 2 -49 17 -49 18 0 13 21 -22 93 -26 50 -30 54 -37 35z"/> <path d="M1445 2080 c3 -5 12 -10 19 -10 7 0 30 -11 51 -25 20 -14 42 -24 49 -22 15 5 -83 67 -107 67 -10 0 -15 -4 -12 -10z"/> <path d="M1162 2015 c-46 -52 -75 -108 -69 -133 3 -15 5 -14 11 3 5 11 13 33 18 48 6 16 31 48 54 73 24 25 44 47 44 49 0 16 -23 -1 -58 -40z"/> <path d="M1081 2041 c-17 -11 -7 -41 13 -41 22 0 30 20 15 36 -9 8 -19 10 -28 5z"/> <path d="M1285 2036 c-141 -61 -192 -258 -93 -363 11 -12 17 -26 14 -31 -3 -5 0 -9 7 -9 6 1 33 -9 60 -22 60 -28 130 -29 188 -3 44 19 103 72 81 72 -6 0 -9 6 -6 14 3 8 11 13 18 10 17 -6 37 40 43 101 6 59 -30 160 -53 151 -7 -3 -16 -1 -19 4 -4 6 -1 10 6 10 7 0 5 8 -7 21 -12 13 -26 18 -40 15 -18 -5 -21 -2 -18 20 2 20 0 24 -9 15 -26 -26 -9 -73 19 -50 7 6 16 4 24 -6 10 -12 10 -15 -1 -15 -7 0 -3 -10 11 -25 25 -26 46 -34 34 -12 -5 9 -4 9 6 0 9 -8 10 -16 4 -25 -11 -15 7 -103 19 -92 4 4 7 -2 7 -14 0 -12 -5 -21 -11 -19 -7 1 -16 -12 -20 -29 -5 -17 -18 -39 -29 -49 -11 -10 -20 -26 -20 -35 0 -10 -7 -23 -16 -30 -12 -11 -15 -11 -12 1 3 16 -1 15 -53 -3 -20 -8 -34 -19 -31 -26 8 -25 -96 -5 -128 25 -9 8 5 5 34 -7 35 -16 51 -19 59 -11 8 8 6 11 -9 11 -11 0 -37 9 -59 20 -24 12 -41 16 -45 10 -4 -6 -14 -1 -26 12 -15 18 -15 20 -1 9 14 -11 17 -11 17 1 0 16 -38 55 -48 50 -4 -2 -8 1 -10 7 -2 6 1 11 7 11 6 0 11 7 11 16 0 10 -6 14 -15 10 -11 -4 -15 2 -15 20 0 14 4 22 10 19 6 -4 10 6 10 22 0 16 9 46 21 67 17 32 18 38 5 33 -14 -6 -14 -4 1 19 10 16 19 21 23 14 7 -11 70 18 70 33 0 11 -14 8 -39 -10 -14 -9 -21 -11 -16 -4 6 11 65 41 79 41 3 0 2 -8 -1 -17 -5 -13 -2 -15 11 -10 10 4 30 7 45 7 20 0 27 5 28 20 1 16 -4 20 -28 20 -18 0 -28 -4 -24 -10 3 -5 2 -10 -4 -10 -5 0 -13 5 -16 10 -8 13 -13 12 -50 -4z"/> <path d="M1647 1997 c-3 -8 -2 -20 3 -27 11 -18 42 -4 38 17 -4 22 -34 29 -41 10z"/> <path d="M2163 1993 c-31 -3 -43 -9 -43 -20 0 -12 7 -14 38 -9 20 3 49 6 65 6 17 0 27 5 27 15 0 9 -8 14 -22 13 -13 -1 -42 -3 -65 -5z"/> <path d="M1608 1943 c23 -41 27 -60 27 -125 0 -81 8 -101 19 -45 13 68 -26 203 -61 214 -7 3 0 -17 15 -44z"/> <path d="M1288 1960 c-97 -52 -109 -200 -22 -269 67 -53 159 -48 220 13 41 41 55 90 42 148 -23 107 -141 160 -240 108z m17 -19 c-49 -22 -75 -65 -75 -123 0 -107 110 -171 209 -120 97 49 91 194 -9 244 -19 10 -29 18 -22 18 27 0 70 -34 91 -70 37 -66 22 -142 -38 -193 -27 -23 -42 -27 -91 -27 -48 0 -64 4 -90 26 -80 68 -81 184 -3 243 15 11 37 20 48 20 13 1 5 -6 -20 -18z m109 -5 c97 -40 103 -187 10 -231 -87 -41 -176 14 -178 111 -1 51 25 91 75 116 41 22 50 22 93 4z"/> <path d="M1323 1915 c-37 -16 -63 -60 -63 -106 0 -48 56 -99 108 -99 75 0 125 67 103 139 -18 62 -87 93 -148 66z m111 -31 c45 -46 33 -119 -25 -150 -63 -32 -129 13 -129 88 0 80 96 119 154 62z"/> <path d="M1343 1890 c-34 -14 -56 -54 -48 -90 15 -70 107 -83 141 -19 32 63 -29 134 -93 109z m67 -30 c39 -39 14 -100 -41 -100 -56 0 -82 73 -37 104 30 21 54 20 78 -4z"/> <path d="M2049 1976 c-9 -9 3 -86 12 -80 6 3 7 14 4 25 -5 14 -2 19 10 19 12 0 16 -6 12 -20 -3 -13 0 -20 9 -20 10 0 14 12 14 40 0 37 -2 40 -28 40 -16 0 -31 -2 -33 -4z"/> <path d="M1932 1956 c-21 -6 -31 -15 -27 -24 3 -7 5 -22 5 -33 0 -16 5 -18 25 -13 23 6 25 4 25 -30 0 -25 4 -36 15 -36 11 0 15 11 15 38 0 49 -11 112 -19 111 -3 -1 -21 -7 -39 -13z m38 -31 c0 -28 -6 -31 -25 -11 -10 10 -11 16 -2 25 18 18 27 13 27 -14z"/> <path d="M435 1940 c11 -5 38 -9 60 -9 22 -1 53 -10 70 -21 27 -18 45 -20 200 -18 l170 2 -169 3 c-163 3 -171 5 -202 28 -27 20 -44 25 -91 24 -42 0 -52 -3 -38 -9z"/> <path d="M1037 1943 c-3 -4 -8 -24 -12 -43 -3 -19 -9 -43 -11 -52 -4 -13 0 -18 14 -18 15 0 20 9 25 43 2 23 6 48 8 56 4 15 -16 27 -24 14z"/> <path d="M1678 1944 c-10 -10 4 -44 18 -44 15 0 17 10 8 34 -6 16 -16 20 -26 10z"/> <path d="M1873 1943 c-19 -7 -17 -73 1 -73 21 0 25 11 18 46 -4 18 -12 29 -19 27z"/> <path d="M2171 1943 l-44 -4 6 -44 c5 -35 3 -47 -11 -55 -14 -10 -13 -11 8 -6 14 3 28 6 33 6 4 0 7 11 7 25 0 17 -6 25 -17 26 -10 1 2 5 27 10 25 5 53 7 63 5 13 -3 17 2 17 20 0 26 4 25 -89 17z"/> <path d="M949 1908 c-1 -7 -1 -47 0 -88 1 -87 18 -160 37 -160 21 0 23 13 8 70 -17 66 -18 114 -2 139 6 10 8 26 5 35 -7 19 -46 22 -48 4z"/> <path d="M2088 1882 c-20 -2 -28 -9 -28 -23 0 -20 24 -25 48 -10 23 14 10 36 -20 33z"/> <path d="M2240 1881 c0 -5 -7 -8 -16 -7 -9 0 -19 -5 -21 -11 -3 -8 3 -13 14 -13 15 0 16 -2 3 -10 -8 -5 -10 -10 -5 -10 18 0 31 15 32 38 1 12 0 22 -3 22 -2 0 -4 -4 -4 -9z"/> <path d="M1690 1864 c-11 -12 -10 -18 3 -32 16 -15 18 -15 34 0 13 14 14 20 3 32 -7 9 -16 16 -20 16 -4 0 -13 -7 -20 -16z"/> <path d="M1877 1853 c-4 -3 -7 -19 -7 -35 0 -43 34 -34 38 10 3 31 -13 44 -31 25z"/> <path d="M453 1843 c30 -3 50 -10 54 -19 7 -18 33 -18 33 0 0 16 -46 27 -99 24 -29 -1 -27 -2 12 -5z"/> <path d="M777 1843 c-24 -23 12 -55 38 -33 12 10 13 16 4 26 -12 15 -31 18 -42 7z"/> <path d="M598 1823 c28 -2 76 -2 105 0 28 2 5 3 -53 3 -58 0 -81 -1 -52 -3z"/> <path d="M1080 1803 c0 -16 5 -35 10 -43 7 -11 10 -4 10 28 0 23 -4 42 -10 42 -5 0 -10 -12 -10 -27z"/> <path d="M373 1778 c-5 -10 -3 -10 93 -8 l80 2 35 -46 34 -45 163 -1 c101 0 162 4 162 10 0 6 -61 10 -162 10 l-163 0 -29 40 -29 39 -89 3 c-50 2 -92 0 -95 -4z"/> <path d="M593 1777 c-3 -5 -1 -13 5 -19 6 -6 12 -6 16 1 4 6 33 11 64 12 68 1 59 6 -21 12 -32 2 -60 0 -64 -6z"/> <path d="M744 1779 c-3 -6 -1 -16 5 -22 9 -9 14 -8 21 3 9 15 4 30 -10 30 -5 0 -12 -5 -16 -11z"/> <path d="M838 1773 c18 -2 45 -2 60 0 15 2 0 4 -33 4 -33 0 -45 -2 -27 -4z"/> <path d="M1965 1760 c-84 -23 -85 -23 -85 -9 0 5 5 7 10 4 6 -3 10 -1 10 5 0 20 -25 4 -26 -17 l-1 -20 61 20 c80 26 211 31 255 10 59 -29 71 -54 66 -146 -2 -45 -7 -93 -10 -107 -5 -17 -4 -21 3 -12 6 10 14 0 27 -35 10 -26 20 -43 22 -36 2 6 -3 28 -11 48 -9 20 -13 42 -9 48 3 5 1 7 -4 4 -8 -5 -10 21 -7 83 5 105 -5 129 -67 161 -49 25 -140 24 -234 -1z"/> <path d="M1017 1756 c-8 -20 20 -43 35 -28 14 14 3 42 -16 42 -7 0 -16 -6 -19 -14z"/> <path d="M1677 1720 c-6 -22 7 -35 23 -25 15 9 12 45 -4 45 -7 0 -16 -9 -19 -20z"/> <path d="M2010 1731 c-15 -4 6 -7 51 -7 42 1 72 4 65 8 -14 9 -82 9 -116 -1z"/> <path d="M1620 1717 c0 -27 -62 -99 -112 -130 -27 -17 -45 -33 -40 -35 28 -9 124 72 153 129 22 44 23 49 9 49 -5 0 -10 -6 -10 -13z"/> <path d="M1109 1693 c5 -10 16 -27 25 -38 21 -27 21 -1 0 30 -19 29 -40 35 -25 8z"/> <path d="M1927 1683 c-17 -4 -16 -7 7 -18 27 -14 81 -6 58 9 -6 3 -13 2 -17 -3 -3 -6 -13 -7 -21 -4 -13 5 -13 7 -2 14 14 9 5 10 -25 2z"/> <path d="M1061 1670 c-11 -6 -7 -18 18 -53 17 -25 35 -49 40 -52 19 -11 22 17 4 42 -10 14 -25 36 -33 49 -11 15 -20 20 -29 14z"/> <path d="M1651 1658 c-10 -17 -10 -22 0 -29 12 -7 38 15 39 32 1 17 -28 15 -39 -3z"/> <path d="M2130 1629 c-7 -24 -9 -64 -6 -89 5 -38 3 -47 -14 -58 -13 -8 -20 -22 -19 -40 1 -26 1 -26 10 6 5 17 11 32 12 32 1 0 3 -75 5 -168 4 -186 10 -208 72 -249 41 -28 66 -29 73 -3 3 11 1 20 -4 20 -5 0 -8 3 -7 8 1 4 -11 21 -28 37 -34 34 -52 111 -33 146 12 24 67 59 92 59 9 0 17 4 17 9 0 10 -48 -1 -72 -15 -7 -4 -26 -7 -43 -7 -26 1 -27 0 -7 -5 l23 -7 -31 -35 c-28 -31 -31 -40 -25 -75 8 -51 28 -81 71 -107 37 -22 42 -28 19 -28 -27 0 -81 58 -94 100 -8 28 -11 80 -7 158 3 71 2 105 -3 87 l-9 -30 0 30 c0 17 3 41 7 55 7 25 8 24 15 -7 4 -18 12 -33 18 -33 6 0 7 7 3 18 -27 61 -37 129 -27 177 12 63 7 72 -8 14z m60 -486 c7 -11 25 -27 39 -36 15 -10 20 -16 11 -17 -20 0 -55 29 -69 57 -6 12 -10 41 -10 65 l1 43 8 -46 c4 -25 14 -55 20 -66z"/> <path d="M367 1644 c-4 -4 -7 -16 -7 -26 0 -20 25 -25 36 -7 8 13 -19 43 -29 33z"/> <path d="M1001 1641 c-12 -8 -12 -13 2 -35 11 -16 23 -23 32 -20 19 8 19 17 -2 43 -13 15 -22 18 -32 12z"/> <path d="M2008 1643 c-31 -7 -19 -23 12 -16 26 5 30 3 30 -16 0 -35 -28 -37 -55 -5 l-25 29 0 -26 c0 -15 6 -31 13 -37 15 -13 75 -37 64 -26 -4 4 2 13 13 21 19 13 29 66 13 61 -5 -1 -17 2 -28 8 -11 6 -28 9 -37 7z"/> <path d="M563 1623 c70 -2 184 -2 255 0 70 1 12 3 -128 3 -140 0 -198 -2 -127 -3z"/> <path d="M2197 1623 c-2 -5 -7 -21 -11 -38 -5 -22 -4 -26 4 -15 7 12 10 8 10 -17 0 -18 14 -71 31 -118 24 -65 34 -83 43 -75 7 5 16 7 19 4 3 -4 -4 19 -16 50 -12 31 -23 52 -25 47 -2 -5 4 -26 13 -47 8 -20 13 -39 10 -42 -14 -14 -63 139 -67 211 -3 49 -4 52 -11 40z"/> <path d="M1588 1581 c-35 -35 -48 -61 -30 -61 18 0 95 77 88 88 -11 18 -17 15 -58 -27z"/> <path d="M540 1584 c0 -15 28 -26 35 -14 4 6 48 10 99 10 86 0 94 -2 116 -25 22 -24 28 -25 129 -23 l106 2 -105 3 c-96 3 -107 5 -125 27 -19 22 -29 24 -137 28 -88 3 -118 1 -118 -8z"/> <path d="M1810 1593 c0 -4 15 -23 33 -42 24 -25 27 -32 12 -27 -33 12 34 -53 78 -75 21 -11 60 -21 86 -22 27 -1 47 -5 45 -9 -3 -4 1 -16 8 -27 10 -16 10 -37 0 -103 -7 -46 -12 -114 -12 -150 0 -56 4 -70 30 -106 29 -41 76 -79 85 -70 3 3 -13 20 -36 38 -68 54 -82 121 -58 270 6 36 7 90 4 120 l-7 55 -54 3 c-46 2 -77 13 -137 49 -4 2 -5 9 -1 14 3 5 19 0 35 -12 17 -11 47 -23 67 -26 43 -5 113 16 120 36 4 10 0 12 -14 6 -61 -25 -94 -27 -141 -11 -27 10 -54 18 -62 18 -7 1 -25 18 -40 39 -24 36 -41 49 -41 32z"/> <path d="M1045 1570 c-4 -6 1 -22 10 -37 15 -22 19 -24 32 -10 13 13 13 17 -3 36 -21 23 -30 26 -39 11z"/> <path d="M1634 1539 c-42 -43 -144 -99 -180 -99 -27 0 -36 -11 -24 -29 18 -30 164 36 233 105 40 41 44 49 23 57 -7 3 -31 -12 -52 -34z"/> <path d="M1146 1555 c-7 -20 95 -80 106 -62 5 7 1 16 -8 22 -9 6 -32 20 -51 33 -40 26 -39 26 -47 7z"/> <path d="M1913 1554 c0 -23 54 -47 75 -34 14 9 14 10 -5 5 -13 -4 -23 -2 -23 3 0 5 -10 17 -23 25 -21 13 -24 13 -24 1z"/> <path d="M1330 1540 c0 -12 77 -12 105 0 14 6 2 9 -42 9 -36 1 -63 -3 -63 -9z"/> <path d="M1104 1509 c-3 -6 3 -20 14 -32 18 -17 23 -18 37 -7 15 13 15 15 -7 32 -27 21 -34 22 -44 7z"/> <path d="M1461 1507 c-14 -17 3 -41 23 -34 9 4 16 13 16 21 0 19 -26 28 -39 13z"/> <path d="M1276 1494 c-8 -22 -9 -21 19 -26 14 -3 25 -1 25 3 0 5 0 12 1 16 0 4 -8 10 -19 14 -14 5 -22 3 -26 -7z"/> <path d="M580 1485 c0 -8 9 -15 20 -15 11 0 20 7 20 15 0 8 -9 15 -20 15 -11 0 -20 -7 -20 -15z"/> <path d="M440 1473 c0 -12 3 -14 8 -6 4 6 34 14 67 16 l60 3 -67 2 c-59 2 -68 0 -68 -15z"/> <path d="M1340 1475 c0 -10 10 -15 30 -15 20 0 30 5 30 15 0 10 -10 15 -30 15 -20 0 -30 -5 -30 -15z"/> <path d="M2320 1486 c0 -2 7 -20 16 -41 8 -21 13 -44 10 -52 -3 -8 -1 -11 4 -8 14 9 12 -8 -2 -25 -11 -12 -10 -12 5 -1 20 15 23 2 5 -19 -11 -12 -10 -12 3 -2 13 10 19 4 39 -37 12 -27 19 -54 16 -60 -9 -13 -72 -31 -113 -31 -34 0 -38 -8 -24 -44 7 -18 8 -18 28 3 11 12 39 27 63 34 66 19 69 33 31 119 -46 103 -48 113 -6 38 45 -81 42 -67 -10 43 -22 48 -46 86 -52 87 -7 0 -13 -2 -13 -4z"/> <path d="M1663 1459 c-60 -30 -87 -76 -81 -141 5 -45 11 -57 48 -91 40 -38 43 -39 101 -35 45 3 65 10 85 29 51 46 67 115 39 169 l-15 29 53 -24 c28 -13 76 -27 105 -31 44 -6 52 -4 52 10 0 12 -10 16 -39 16 -45 0 -111 21 -149 48 -15 11 -45 22 -67 26 -22 5 -51 10 -65 12 -14 3 -44 -5 -67 -17z m112 -13 c41 -18 75 -69 75 -114 0 -73 -52 -122 -131 -122 -33 0 -47 6 -74 33 -64 64 -51 157 25 199 42 22 60 22 105 4z"/> <path d="M1640 1388 c-11 -18 -20 -41 -20 -51 0 -29 29 -85 48 -92 12 -4 10 0 -6 17 -33 36 -38 81 -14 123 12 19 19 35 17 35 -3 0 -14 -15 -25 -32z"/> <path d="M1672 1387 c-45 -48 -10 -137 53 -137 30 0 85 49 85 75 0 24 -27 72 -45 79 -34 13 -72 6 -93 -17z m99 -5 c26 -22 31 -75 8 -97 -43 -42 -119 -13 -119 46 0 59 64 88 111 51z"/> <path d="M1696 1344 c-8 -21 11 -44 35 -44 19 0 35 33 24 50 -10 16 -52 12 -59 -6z m49 -14 c0 -22 -29 -18 -33 3 -3 14 1 18 15 15 10 -2 18 -10 18 -18z"/> <path d="M757 1464 c-14 -14 -7 -35 11 -32 9 2 17 10 17 17 0 16 -18 25 -28 15z"/> <path d="M1177 1463 c-13 -13 -7 -24 20 -34 20 -7 28 -7 34 3 14 21 -36 50 -54 31z"/> <path d="M2200 1462 c0 -16 41 -114 46 -109 2 2 -7 30 -21 63 -13 32 -24 53 -25 46z"/> <path d="M1255 1433 c-7 -19 -7 -19 33 -28 29 -6 33 -4 30 11 -4 24 -55 37 -63 17z"/> <path d="M1340 1416 c0 -17 24 -28 45 -20 27 11 17 34 -15 34 -19 0 -30 -5 -30 -14z"/> <path d="M378 1403 c20 -8 13 -26 -9 -20 -16 4 -18 3 -9 -9 9 -10 17 -11 32 -3 15 8 17 13 7 25 -6 8 -17 14 -23 13 -7 0 -6 -2 2 -6z"/> <path d="M2167 1393 c-12 -11 -7 -40 9 -53 21 -18 49 9 39 39 -6 20 -34 28 -48 14z m41 -26 c2 -12 -3 -17 -17 -17 -12 0 -21 6 -21 13 0 31 32 34 38 4z"/> <path d="M536 1383 c76 -3 95 -7 109 -23 10 -11 26 -20 36 -20 9 0 36 -22 59 -50 26 -31 50 -50 63 -50 l22 -1 -21 -17 c-18 -15 -40 -17 -152 -16 -76 1 -130 -2 -126 -7 3 -5 63 -9 133 -9 124 0 128 1 152 26 l24 26 177 -4 c133 -2 178 0 178 9 0 18 -20 27 -33 14 -7 -7 -73 -11 -193 -11 l-182 0 -38 50 c-26 34 -45 50 -61 50 -12 0 -27 9 -33 20 -10 18 -20 20 -108 18 l-97 -2 91 -3z"/> <path d="M1890 1373 c-1 -4 -5 -27 -9 -51 -7 -36 -6 -44 10 -52 25 -14 24 -14 27 23 1 17 5 40 8 49 3 10 -3 21 -16 28 -11 6 -20 7 -20 3z"/> <path d="M2041 1256 c-25 -133 -24 -172 10 -237 10 -21 32 -47 49 -59 40 -29 38 -16 -4 23 -22 21 -40 51 -50 85 -14 50 -14 61 5 173 27 161 20 172 -10 15z"/> <path d="M1440 1301 l0 -70 -32 -4 c-32 -4 -32 -4 5 -5 l37 -2 0 75 c0 41 -2 75 -5 75 -3 0 -5 -31 -5 -69z"/> <path d="M815 1350 c-4 -6 -1 -17 5 -25 16 -19 52 -2 44 20 -7 17 -40 20 -49 5z"/> <path d="M1100 1340 c0 -15 5 -20 18 -18 9 2 17 10 17 18 0 8 -8 16 -17 18 -13 2 -18 -3 -18 -18z"/> <path d="M1530 1330 c-1 -14 -1 -51 0 -82 2 -55 1 -57 -27 -60 -25 -3 -29 -8 -35 -53 -7 -50 1 -73 21 -61 14 9 14 36 1 36 -5 0 -10 13 -10 29 0 23 5 30 29 34 28 6 29 9 33 69 2 35 1 74 -3 88 l-7 25 -2 -25z"/> <path d="M1940 1299 c-7 -27 -10 -52 -8 -54 2 -2 20 -11 40 -19 l35 -15 13 57 c7 31 15 63 17 70 4 8 -8 12 -40 12 l-45 0 -12 -51z m70 21 c0 -5 -8 -10 -17 -11 -11 0 -13 -3 -5 -6 19 -7 14 -30 -8 -36 -25 -6 -32 5 -24 38 4 18 13 25 30 25 13 0 24 -4 24 -10z"/> <path d="M2101 1326 c0 -17 -6 -67 -13 -112 -15 -104 -4 -148 52 -198 32 -29 48 -36 80 -36 36 0 40 3 40 25 0 14 -4 25 -10 25 -5 0 -10 -7 -10 -15 0 -8 -4 -15 -9 -15 -5 0 -16 -3 -24 -6 -9 -3 -32 9 -56 31 -54 49 -65 92 -51 193 7 43 10 91 7 107 l-4 30 -2 -29z"/> <path d="M928 1333 c29 -2 74 -2 100 0 26 2 2 3 -53 3 -55 0 -76 -1 -47 -3z"/> <path d="M2251 1302 c-19 -9 -41 -28 -48 -42 -15 -25 -15 -25 2 -2 22 28 40 29 25 2 -6 -12 -9 -35 -7 -53 l4 -32 1 36 c2 34 19 59 52 73 8 3 2 3 -15 0 -36 -7 -25 7 18 23 18 6 25 12 17 12 -8 1 -30 -7 -49 -17z"/> <path d="M2359 1309 c-10 -6 -10 -9 -1 -9 21 0 13 -18 -10 -23 l-23 -4 23 -2 c31 -1 18 -21 -14 -21 -14 0 -22 4 -19 10 3 6 -5 10 -19 10 -27 0 -56 -23 -56 -46 0 -15 16 -19 24 -5 3 5 33 11 66 13 33 2 64 9 68 14 5 5 1 23 -8 41 -12 23 -20 29 -31 22z"/> <path d="M1845 1229 c-8 -25 -12 -22 60 -52 l59 -25 12 -72 c9 -52 22 -86 46 -121 18 -27 37 -49 41 -49 19 0 18 33 -2 54 -30 32 -61 117 -61 169 0 42 -1 42 -70 80 -38 20 -71 37 -74 37 -3 0 -8 -9 -11 -21z"/> <path d="M1303 1224 c-3 -8 2 -23 11 -32 15 -15 17 -15 32 0 21 21 11 48 -16 48 -11 0 -23 -7 -27 -16z"/> <path d="M442 1209 c2 -9 -4 -13 -16 -11 -24 4 -12 -14 15 -21 11 -3 18 -3 15 0 -3 3 0 11 7 17 7 6 10 10 8 9 -2 -2 -10 2 -18 9 -11 9 -13 8 -11 -3z"/> <path d="M2201 1197 c-1 -17 9 -37 24 -53 21 -21 30 -23 67 -18 60 9 64 18 5 11 -27 -4 -46 -3 -43 2 3 5 -2 15 -11 22 -12 10 -14 10 -9 2 4 -7 3 -13 -3 -13 -6 0 -13 12 -17 28 -10 45 -12 49 -13 19z"/> <path d="M907 1194 c-14 -14 -7 -35 11 -32 9 2 17 10 17 17 0 16 -18 25 -28 15z"/> <path d="M1174 1189 c-3 -6 0 -18 9 -26 18 -18 37 -9 37 18 0 21 -34 27 -46 8z"/> <path d="M1815 1180 c-4 -6 10 -17 29 -25 21 -9 36 -22 36 -32 0 -9 2 -14 5 -11 13 12 -8 56 -31 67 -30 13 -31 14 -39 1z"/> <path d="M2337 1168 c-15 -11 -11 -13 29 -15 46 -2 47 -1 19 13 -33 17 -28 17 -48 2z"/> <path d="M1727 1163 c-11 -10 -8 -53 3 -53 6 0 10 -22 10 -50 0 -38 4 -50 15 -50 8 0 15 5 15 11 0 5 5 7 10 4 8 -5 8 -11 0 -20 -8 -9 -8 -15 0 -20 5 -3 11 -4 11 -1 5 22 3 34 -9 54 -8 12 -12 25 -8 29 3 3 6 1 6 -6 0 -7 5 -9 12 -5 7 4 8 3 4 -4 -4 -7 -3 -12 3 -12 5 0 8 -9 6 -20 -2 -11 1 -20 7 -20 7 0 4 -6 -5 -13 -15 -10 -17 -22 -11 -70 6 -50 9 -57 28 -56 21 0 21 1 1 9 -18 8 -17 9 8 9 30 1 32 9 17 61 -5 19 -10 40 -11 45 -2 17 -40 88 -55 103 -8 7 -14 17 -14 22 0 4 -7 7 -16 6 -9 0 -19 5 -21 12 -7 19 31 14 59 -8 34 -26 55 -73 83 -183 12 -51 28 -104 35 -119 l13 -27 38 31 c21 17 36 35 33 40 -9 14 7 48 22 48 12 0 11 5 -5 26 -23 29 -61 142 -61 178 0 19 -33 46 -55 46 -10 0 61 -237 77 -257 7 -9 5 -15 -7 -19 -24 -9 -30 2 -55 91 -11 44 -30 94 -42 113 -34 56 -117 100 -141 75z"/> <path d="M1320 1136 c0 -23 -4 -25 -52 -29 l-53 -3 58 -2 57 -2 0 30 c0 17 -2 30 -5 30 -3 0 -5 -11 -5 -24z"/> <path d="M2435 1139 c-33 -14 -80 -31 -81 -27 0 2 -8 -3 -17 -11 -10 -8 -17 -27 -16 -45 l1 -31 8 33 c10 43 21 54 16 16 -2 -16 -1 -22 1 -14 9 27 27 42 70 61 24 10 43 21 43 24 0 6 0 6 -25 -6z"/> <path d="M854 1105 c-14 -22 -24 -25 -97 -28 l-82 -3 82 -2 c75 -2 83 0 100 21 10 13 25 26 33 30 12 4 11 6 -2 6 -10 1 -25 -10 -34 -24z"/> <path d="M983 1113 c42 -2 112 -2 155 0 42 1 7 3 -78 3 -85 0 -120 -2 -77 -3z"/> <path d="M1533 1071 c-18 -16 -33 -37 -33 -45 0 -14 -33 -16 -279 -16 -185 0 -282 4 -286 10 -8 13 -35 -6 -35 -25 0 -19 27 -26 40 -9 10 11 60 14 284 14 l271 0 11 -35 c6 -19 11 -36 10 -37 -1 -1 -111 -4 -246 -8 l-245 -6 228 -2 c187 -2 229 -5 233 -16 8 -20 34 -8 34 15 0 16 3 18 19 9 35 -18 47 -10 14 10 -52 32 -57 86 -11 133 35 36 79 36 113 0 45 -49 27 -119 -38 -147 -18 -8 -25 -15 -16 -15 9 -1 31 9 50 22 31 21 34 28 37 78 4 67 -15 89 -80 96 -37 4 -47 0 -75 -26z"/> <path d="M607 1084 c-16 -16 -6 -35 16 -32 12 2 22 10 22 18 0 16 -26 25 -38 14z"/> <path d="M748 1053 c18 -2 45 -2 60 0 15 2 0 4 -33 4 -33 0 -45 -2 -27 -4z"/> <path d="M1572 1028 c-18 -18 -14 -46 8 -58 28 -15 65 22 50 50 -12 22 -40 26 -58 8z m48 -24 c0 -20 -30 -30 -40 -13 -11 17 7 40 26 32 8 -3 14 -12 14 -19z"/> <path d="M2270 1006 c0 -13 6 -26 12 -28 7 -3 -16 -10 -50 -17 -62 -12 -152 -45 -152 -55 0 -3 24 4 53 15 28 12 68 22 87 24 69 6 90 22 82 61 -6 31 -32 32 -32 0z"/> <path d="M1730 935 c-18 -21 -4 -47 22 -43 29 4 35 34 10 47 -15 8 -23 7 -32 -4z"/> <path d="M2165 915 c-51 -16 -41 -18 25 -4 43 9 55 8 75 -5 14 -9 25 -12 25 -6 0 12 -43 30 -68 29 -9 0 -35 -6 -57 -14z"/> <path d="M2247 884 c-3 -4 -2 -17 4 -31 6 -15 5 -31 -1 -43 -7 -13 -7 -21 0 -25 6 -4 8 -11 4 -16 -4 -6 -12 -4 -23 5 -9 8 -37 20 -63 27 -44 12 -46 14 -27 26 21 16 26 43 7 43 -7 0 -21 -16 -30 -35 -10 -19 -14 -34 -10 -34 4 1 18 0 32 -1 24 -3 24 -3 -5 -10 -24 -6 -22 -7 13 -4 26 2 41 0 37 -6 -4 -6 1 -7 11 -3 13 5 15 3 9 -8 -4 -8 -4 -11 0 -6 5 4 21 -4 35 -18 26 -24 28 -25 41 -8 13 16 12 17 -3 4 -27 -20 -22 2 6 28 21 20 43 97 25 85 -4 -2 -10 0 -14 6 -9 14 -41 30 -48 24z m29 -66 c-4 -20 -2 -27 6 -22 7 4 8 3 4 -4 -4 -6 -13 -9 -21 -6 -11 5 -12 11 -4 26 6 11 8 26 5 34 -4 9 -2 12 5 8 6 -4 8 -19 5 -36z"/> <path d="M2198 844 l5 -37 14 24 14 24 -6 -30 c-4 -24 -3 -27 6 -12 16 27 7 62 -17 65 -18 3 -20 -1 -16 -34z"/> <path d="M1782 818 c-27 -27 -2 -73 35 -66 23 4 24 34 1 30 -10 -2 -18 2 -18 8 0 14 23 13 38 -2 19 -19 23 -4 6 20 -17 24 -43 29 -62 10z"/> <path d="M1963 803 c-7 -2 -13 -13 -13 -23 0 -24 58 -39 71 -19 18 29 10 49 -18 48 -16 0 -34 -3 -40 -6z"/> <path d="M2050 785 c0 -18 5 -25 20 -25 15 0 20 7 20 25 0 18 -5 25 -20 25 -15 0 -20 -7 -20 -25z"/> <path d="M1495 780 c-3 -5 -1 -10 6 -10 8 0 8 -4 -1 -15 -8 -9 -9 -15 -2 -15 6 0 14 5 18 11 4 8 30 10 76 7 48 -4 68 -2 65 6 -2 7 -26 10 -66 8 -37 -2 -67 1 -75 8 -10 7 -16 8 -21 0z"/> <path d="M1867 762 c-38 -41 -6 -91 33 -52 23 23 25 41 8 58 -16 16 -22 15 -41 -6z"/> <path d="M1927 711 c-21 -37 -21 -36 6 -53 48 -32 62 -31 80 7 l17 35 -33 20 c-42 26 -50 25 -70 -9z"/> <path d="M2179 723 c-1 -4 -1 -11 -1 -14 1 -4 -19 -4 -43 -1 -52 5 -86 -12 -115 -61 -50 -81 9 -177 108 -177 103 0 158 137 82 205 -10 9 -16 23 -14 30 3 7 1 16 -5 20 -6 3 -12 3 -12 -2z m12 -49 c30 -27 42 -78 29 -119 -15 -46 -44 -65 -98 -65 -60 0 -102 41 -102 98 0 43 28 87 64 103 29 12 85 3 107 -17z"/> <path d="M2058 650 c-26 -27 -30 -36 -25 -68 19 -114 177 -107 177 8 0 86 -90 121 -152 60z m116 -1 c20 -16 26 -29 26 -58 0 -44 -21 -68 -68 -77 -26 -5 -36 -1 -62 24 -38 38 -38 66 -1 103 35 34 68 37 105 8z"/> <path d="M2076 628 c-9 -12 -16 -29 -16 -38 0 -9 7 -26 16 -38 12 -18 24 -22 52 -20 48 4 70 43 50 86 -18 38 -78 44 -102 10z m90 -13 c15 -23 15 -27 0 -50 -28 -42 -96 -24 -96 25 0 49 68 67 96 25z"/> <path d="M2102 618 c-30 -30 3 -77 40 -57 30 16 16 69 -17 69 -6 0 -16 -5 -23 -12z m43 -18 c9 -15 -14 -40 -31 -33 -22 8 -18 43 5 43 11 0 23 -5 26 -10z"/> <path d="M1740 700 c0 -16 5 -21 23 -18 12 2 22 10 22 18 0 8 -10 16 -22 18 -18 3 -23 -2 -23 -18z"/> <path d="M1795 660 c-15 -17 -16 -24 -7 -45 13 -28 56 -43 76 -26 14 12 16 57 3 79 -12 19 -52 14 -72 -8z m69 -23 c1 -17 -4 -22 -25 -23 -20 -1 -25 4 -24 19 1 11 10 24 21 28 23 8 27 5 28 -24z"/> <path d="M1641 638 c-1 -21 4 -38 9 -38 6 0 10 -6 10 -13 0 -8 6 -14 13 -15 6 0 39 -10 71 -21 86 -31 93 -24 9 7 -84 32 -92 39 -103 84 l-8 33 -1 -37z"/> <path d="M1910 597 c0 -8 11 -19 25 -25 31 -14 33 -42 3 -43 -22 -1 -22 -1 2 -9 36 -12 69 -12 51 -1 -9 6 -12 19 -8 39 5 24 2 31 -19 41 -33 15 -54 14 -54 -2z"/> <path d="M1776 570 c13 -11 112 -42 123 -38 6 2 -22 13 -61 25 -38 11 -66 18 -62 13z"/> <path d="M1831 526 c9 -9 150 -49 155 -43 2 2 -26 12 -63 22 -38 10 -75 20 -83 23 -8 3 -12 2 -9 -2z"/> </g> </svg> 