<?xml version="1.0" encoding="UTF-8"?>
<svg version="1.1" xmlns="http://www.w3.org/2000/svg" width="500" height="500">
<path d="M0 0 C0.89460937 0.39960937 1.78921875 0.79921875 2.7109375 1.2109375 C34.66808962 16.23180711 57.04797755 44.31011477 68.9765625 76.93359375 C79.69058414 109.03476546 76.53358508 144.62242462 62 175 C51.32588381 195.79777347 35.37034653 215.11639635 15 227 C14.30036133 227.40943848 13.60072266 227.81887695 12.87988281 228.24072266 C-17.98695581 245.98948563 -53.38458205 251.36974066 -88.15771484 242.44628906 C-118.70736584 234.17935396 -146.56409055 214.17021465 -163 187 C-163.37705078 186.38688965 -163.75410156 185.7737793 -164.14257812 185.14208984 C-182.10045709 155.71276513 -187.25398925 121.64098368 -180 88 C-171.50561948 53.53429511 -150.29456782 24.4881345 -120 6 C-110.19110779 0.27447898 -99.94561953 -3.94270053 -89 -7 C-88.34354492 -7.19609863 -87.68708984 -7.39219727 -87.01074219 -7.59423828 C-58.78987348 -15.81580151 -26.43141333 -12.26470048 0 0 Z M-22 18 C-22 56.94 -22 95.88 -22 136 C-19.69 134.68 -17.38 133.36 -15 132 C-13.55423232 131.26560186 -12.10657765 130.53489104 -10.65602112 129.80999756 C-2.31781449 125.22019754 -2.31781449 125.22019754 2.94697952 117.59980774 C4.39815661 110.63644009 3.95163642 103.57808015 3.66015625 96.515625 C3.62840232 94.24600272 3.6042255 91.97626297 3.58726501 89.70648193 C3.52270594 83.76521447 3.35608144 77.83114498 3.16729736 71.8927002 C2.99259336 65.82008252 2.91558385 59.7462875 2.83007812 53.671875 C2.64837994 41.77759658 2.34970274 29.89052597 2 18 C-5.92 18 -13.84 18 -22 18 Z M-89 38 C-89 68.03 -89 98.06 -89 129 C-80.69545201 125.67818081 -72.9149492 121.16576274 -65 117 C-65 90.93 -65 64.86 -65 38 C-72.92 38 -80.84 38 -89 38 Z M25 99 C25.309375 99.5775 25.61875 100.155 25.9375 100.75 C26.92583364 102.84294184 27.5168613 104.74535275 28 107 C19.58406752 113.22313493 11.11560674 119.35894466 2.55102539 125.37597656 C-2.66252029 129.04339572 -7.83876517 132.75938559 -13 136.5 C-20.89702773 142.22032653 -28.84851847 147.85923053 -36.82519531 153.46777344 C-39.1444035 155.10173736 -41.4593169 156.74165204 -43.7734375 158.3828125 C-44.55388428 158.93573975 -45.33433105 159.48866699 -46.13842773 160.05834961 C-47.64125179 161.1232689 -49.14339713 162.18914684 -50.64477539 163.25610352 C-51.31758545 163.73233154 -51.99039551 164.20855957 -52.68359375 164.69921875 C-53.27712646 165.12033936 -53.87065918 165.54145996 -54.48217773 165.9753418 C-56 167 -56 167 -58 168 C-58 152.16 -58 136.32 -58 120 C-62.04309497 120.80861899 -64.04594901 121.36083583 -67.45703125 123.265625 C-68.30974609 123.73677734 -69.16246094 124.20792969 -70.04101562 124.69335938 C-70.95560547 125.20705078 -71.87019531 125.72074219 -72.8125 126.25 C-74.7978981 127.34946227 -76.78358529 128.44840264 -78.76953125 129.546875 C-80.30988037 130.40249023 -80.30988037 130.40249023 -81.88134766 131.27539062 C-86.90203755 134.05182349 -91.95154572 136.77448441 -97 139.5 C-105.56968313 144.13613721 -114.13018795 148.78870069 -122.67797852 153.46508789 C-127.59567929 156.15308722 -132.52350912 158.8205064 -137.46484375 161.46484375 C-139.08422852 162.33399414 -139.08422852 162.33399414 -140.73632812 163.22070312 C-142.81232073 164.33406341 -144.89033122 165.44367241 -146.97070312 166.54882812 C-152.2698473 169.39499882 -157.19833114 172.37370488 -162 176 C-160.35 178.97 -158.7 181.94 -157 185 C-153.06109141 184.01527285 -149.91536647 182.51003118 -146.3828125 180.60546875 C-145.7379892 180.26218033 -145.09316589 179.91889191 -144.42880249 179.56520081 C-142.32516242 178.44368005 -140.22503505 177.31575459 -138.125 176.1875 C-136.66485838 175.40695556 -135.20457084 174.62668403 -133.74414062 173.84667969 C-123.04946818 168.12798212 -112.39370452 162.33885519 -101.75830078 156.51074219 C-96.4888043 153.62459913 -91.21472212 150.74699002 -85.9375 147.875 C-84.40996094 147.0392041 -84.40996094 147.0392041 -82.8515625 146.18652344 C-81.89894531 145.66864258 -80.94632812 145.15076172 -79.96484375 144.6171875 C-79.1255835 144.15940918 -78.28632324 143.70163086 -77.42163086 143.22998047 C-75.01611936 142.00818725 -72.50504048 141.00201619 -70 140 C-69.67 156.5 -69.34 173 -69 190 C-65.35968745 188.54387498 -63.19706071 187.61856445 -60.20703125 185.41796875 C-59.50400879 184.90500244 -58.80098633 184.39203613 -58.07666016 183.86352539 C-57.3294873 183.31043701 -56.58231445 182.75734863 -55.8125 182.1875 C-54.19146848 181.00251903 -52.57037298 179.81762558 -50.94921875 178.6328125 C-50.12470215 178.02727539 -49.30018555 177.42173828 -48.45068359 176.79785156 C-44.68699258 174.03676164 -40.90776918 171.29737111 -37.125 168.5625 C-36.38870361 168.02971436 -35.65240723 167.49692871 -34.89379883 166.94799805 C-28.46555939 162.30919833 -21.97114244 157.76804442 -15.46801758 153.23510742 C-9.87847083 149.33266434 -4.33117949 145.37695831 1.1875 141.375 C24.52653205 124.45285097 24.52653205 124.45285097 36 117 C36.40992188 117.5053125 36.81984375 118.010625 37.2421875 118.53125 C37.78101563 119.1809375 38.31984375 119.830625 38.875 120.5 C39.40867187 121.1496875 39.94234375 121.799375 40.4921875 122.46875 C40.98976563 122.9740625 41.48734375 123.479375 42 124 C42.66 124 43.32 124 44 124 C45.50827797 120.23242503 47.00518994 116.46043651 48.5 112.6875 C48.92925781 111.61564453 49.35851562 110.54378906 49.80078125 109.43945312 C50.20683594 108.41142578 50.61289062 107.38339844 51.03125 106.32421875 C51.59682617 104.9024231 51.59682617 104.9024231 52.17382812 103.4519043 C53.15965582 100.95740059 53.15965582 100.95740059 53 98 C43.60394198 97.89268462 34.35912329 98.00736571 25 99 Z " fill="#214D87" transform="translate(304,93)"/>
<path d="M0 0 C8.25 0 16.5 0 25 0 C25 22.77 25 45.54 25 69 C16.75421787 73.49769934 8.40105813 77.79947093 0 82 C0 54.94 0 27.88 0 0 Z " fill="#487EC3" transform="translate(182,159)"/>
<path d="M0 0 C8.25 0 16.5 0 25 0 C25.22639848 8.35410397 25.409634 16.70580486 25.51812172 25.06215763 C25.57020536 28.94291134 25.64076793 32.82144946 25.75439453 36.70092773 C25.86347433 40.44884721 25.92292256 44.19464412 25.94877243 47.94402885 C25.96717824 49.37041081 26.00312786 50.79668291 26.05730057 52.22215462 C26.4632586 63.3522918 26.4632586 63.3522918 22.92254639 67.33932495 C20.36123069 69.15729948 17.809033 70.60176353 15 72 C13.86200805 72.72216665 12.73217328 73.4576403 11.6171875 74.21484375 C10.71226562 74.78332031 9.80734375 75.35179687 8.875 75.9375 C7.94429687 76.52402344 7.01359375 77.11054688 6.0546875 77.71484375 C5.03761719 78.35099609 5.03761719 78.35099609 4 79 C3.98541748 77.76846191 3.97083496 76.53692383 3.95581055 75.26806641 C3.89794348 70.70933642 3.82071068 66.15110643 3.73754883 61.59277344 C3.70424472 59.61792094 3.67623003 57.642972 3.65356445 55.66796875 C3.62011878 52.83291423 3.56780954 49.998748 3.51171875 47.1640625 C3.50532883 46.27756012 3.4989389 45.39105774 3.49235535 44.47769165 C3.47256119 43.65699188 3.45276703 42.83629211 3.43237305 41.99072266 C3.42126999 41.26680328 3.41016693 40.54288391 3.39872742 39.79702759 C3.12509493 37.58351797 3.12509493 37.58351797 0 36 C-0.2667616 33.23371085 -0.34804189 30.69380369 -0.29296875 27.9296875 C-0.28872391 27.13345978 -0.28447906 26.33723206 -0.28010559 25.51687622 C-0.26328834 22.96924271 -0.22563179 20.42239511 -0.1875 17.875 C-0.17245705 16.14975099 -0.15876796 14.42448961 -0.14648438 12.69921875 C-0.11592407 8.46559816 -0.0572119 4.23368055 0 0 Z " fill="#487DC2" transform="translate(247,173)"/>
<path d="M0 0 C0.66 0 1.32 0 2 0 C2 30.03 2 60.06 2 91 C7.94 87.7 13.88 84.4 20 81 C21.32 81.33 22.64 81.66 24 82 C25.2236068 82.0745356 25.2236068 82.0745356 27 81 C28.99960012 80.960008 31.00047242 80.95653201 33 81 C30.46990175 82.68673216 27.97247259 84.14113351 25.30078125 85.58203125 C24.35074219 86.09540039 23.40070313 86.60876953 22.421875 87.13769531 C20.88273437 87.96672363 20.88273437 87.96672363 19.3125 88.8125 C17.71728516 89.67439941 17.71728516 89.67439941 16.08984375 90.55371094 C12.7272847 92.37048181 9.36375796 94.18545 6 96 C1.83243854 98.24834792 -2.3341783 100.49843037 -6.5 102.75 C-7.49298096 103.2855249 -8.48596191 103.8210498 -9.5090332 104.37280273 C-14.03153759 106.81887333 -18.53508613 109.2879657 -22.9921875 111.8515625 C-24.11463867 112.49593262 -24.11463867 112.49593262 -25.25976562 113.15332031 C-26.62997807 113.9447034 -27.99616736 114.74311051 -29.35742188 115.54980469 C-30.87204908 116.42604213 -32.43234043 117.22261265 -34 118 C-34.66 117.67 -35.32 117.34 -36 117 C-34.515 116.505 -34.515 116.505 -33 116 C-33 115.34 -33 114.68 -33 114 C-31.4375 112.6875 -31.4375 112.6875 -29 111 C-27.81025149 110.16988002 -26.62290381 109.33631244 -25.4375 108.5 C-24.56931641 107.89671875 -24.56931641 107.89671875 -23.68359375 107.28125 C-21.964454 106.03423381 -21.964454 106.03423381 -20.4921875 104.48046875 C-16.9777055 100.99358739 -13.41452954 99.10287488 -8.5625 98.75 C-7.716875 98.8325 -6.87125 98.915 -6 99 C-5.9175 97.7625 -5.835 96.525 -5.75 95.25 C-5.25907189 91.12042826 -3.92364215 89.92364215 -1 87 C-0.07758417 81.60349726 0.1412344 76.31144195 0.11352539 70.83984375 C0.11367142 70.06814346 0.11381744 69.29644318 0.1139679 68.50135803 C0.11327768 65.98004226 0.10552751 63.45880268 0.09765625 60.9375 C0.0957889 59.17773479 0.09436649 57.41796905 0.09336853 55.65820312 C0.08956832 51.04854879 0.0797596 46.43892645 0.06866455 41.82928467 C0.05839652 37.11666293 0.0538594 32.40403597 0.04882812 27.69140625 C0.03813488 18.46092352 0.02108875 9.23046443 0 0 Z " fill="#264B7B" transform="translate(213,131)"/>
<path d="M0 0 C0.33 0 0.66 0 1 0 C1.153629 13.26454464 1.30181083 26.52913772 1.4429636 39.79382133 C1.50867334 45.95258805 1.57628689 52.1113218 1.64819336 58.27001953 C1.71746773 64.20919786 1.78181697 70.14841069 1.84269524 76.08768082 C1.86684272 78.35799231 1.89279005 80.62828537 1.92053413 82.89855576 C1.95897556 86.06889714 1.99112026 89.23924267 2.02172852 92.40966797 C2.03467453 93.35625275 2.04762054 94.30283752 2.06095886 95.27810669 C2.06799835 96.13909973 2.07503784 97.00009277 2.08229065 97.88717651 C2.09058679 98.637516 2.09888292 99.38785549 2.10743046 100.16093254 C2 102 2 102 1 104 C3.31 102.68 5.62 101.36 8 100 C6.84998782 103.45003654 6.09155785 103.91470459 3.18359375 105.91796875 C2.41982422 106.44970703 1.65605469 106.98144531 0.86914062 107.52929688 C-0.33452148 108.35010742 -0.33452148 108.35010742 -1.5625 109.1875 C-2.36880859 109.74630859 -3.17511719 110.30511719 -4.00585938 110.88085938 C-5.99923843 112.26089103 -7.99730749 113.63353508 -10 115 C-10.60457031 114.64550781 -11.20914062 114.29101562 -11.83203125 113.92578125 C-12.54746094 113.62027344 -13.26289063 113.31476563 -14 113 C-16.75 114.08333333 -16.75 114.08333333 -19 116 C-19.33 116.99 -19.66 117.98 -20 119 C-20.99 118.01 -21.98 117.02 -23 116 C-19.73339038 113.68148759 -16.46102124 111.37124116 -13.1875 109.0625 C-12.25873047 108.40314453 -11.32996094 107.74378906 -10.37304688 107.06445312 C-9.48037109 106.43603516 -8.58769531 105.80761719 -7.66796875 105.16015625 C-6.84578857 104.57886963 -6.0236084 103.99758301 -5.17651367 103.39868164 C-3 102 -3 102 0 101 C0 67.67 0 34.34 0 0 Z " fill="#284975" transform="translate(306,112)"/>
<path d="M0 0 C0.33 0.66 0.66 1.32 1 2 C3.52733235 2.65555119 3.52733235 2.65555119 6 3 C5.67 3.99 5.34 4.98 5 6 C5.7460698 7.8802101 5.7460698 7.8802101 6.9375 9.6875 C7.618125 10.780625 8.29875 11.87375 9 13 C12.41021743 12.21302675 15.68885166 11.12880057 19 10 C18.04270084 11.12588014 17.08412105 12.2506715 16.125 13.375 C15.59132812 14.00148438 15.05765625 14.62796875 14.5078125 15.2734375 C13.38567993 16.55836651 12.20628025 17.79371975 11 19 C11.3185177 21.10820797 11.3185177 21.10820797 12 23 C12.66 23 13.32 23 14 23 C15.625 25 15.625 25 17 27 C16.34 27 15.68 27 15 27 C14.67 28.32 14.34 29.64 14 31 C6.51543763 21.87477155 0.53598629 12.41674715 -5 2 C-4.34 1.67 -3.68 1.34 -3 1 C-3 1.66 -3 2.32 -3 3 C-2.34 3 -1.68 3 -1 3 C0.4606285 5.64738916 1 6.89448334 1 10 C1.99 10 2.98 10 4 10 C3.34 8.02 2.68 6.04 2 4 C1.01 4.495 1.01 4.495 0 5 C-0.5625 3.0625 -0.5625 3.0625 -1 1 C-0.67 0.67 -0.34 0.34 0 0 Z " fill="#224A7D" transform="translate(138,264)"/>
<path d="M0 0 C2.31 0 4.62 0 7 0 C7.0825 0.7425 7.165 1.485 7.25 2.25 C8.21094934 5.77348093 9.10551778 6.74089192 12 9 C15.27741764 10.79048876 18.61495134 12.42375597 22 14 C22 14.66 22 15.32 22 16 C24.80792614 17.87195076 26.84886624 18.07450196 30.125 17.9375 C31.40375 17.958125 32.6825 17.97875 34 18 C34.66 18.99 35.32 19.98 36 21 C35.505 22.485 35.505 22.485 35 24 C22.0927098 20.05927866 7.93188121 11.0479774 0 0 Z " fill="#264B79" transform="translate(161,303)"/>
<path d="M0 0 C0 15.84 0 31.68 0 48 C-0.33 48 -0.66 48 -1 48 C-1 33.15 -1 18.3 -1 3 C-9.29289322 5.52859548 -9.29289322 5.52859548 -14 8 C-14.66 7.34 -15.32 6.68 -16 6 C-13.9021477 4.79994469 -11.7979751 3.61497017 -9.6875 2.4375 C-8.79514648 1.92413086 -8.79514648 1.92413086 -7.88476562 1.40039062 C-3.33984375 -1.11328125 -3.33984375 -1.11328125 0 0 Z " fill="#284371" transform="translate(235,233)"/>
<path d="M0 0 C0 0.99 0 1.98 0 3 C-3 5 -3 5 -6.0625 5.8125 C-9.21285656 6.71731803 -9.21285656 6.71731803 -10.375 9.625 C-10.684375 10.800625 -10.684375 10.800625 -11 12 C-11.33 11.34 -11.66 10.68 -12 10 C-15.51539407 11.47646551 -18.88996301 12.94074932 -22.25 14.75 C-25 16 -25 16 -28 15 C-23.29746633 10.78877582 -17.87915836 8.12579232 -12.3125 5.25 C-10.86907227 4.49009766 -10.86907227 4.49009766 -9.39648438 3.71484375 C-2.26218202 0 -2.26218202 0 0 0 Z " fill="#294A7A" transform="translate(218,241)"/>
<path d="M0 0 C0.99 0.99 1.98 1.98 3 3 C2.67 3.66 2.34 4.32 2 5 C0.68 4.67 -0.64 4.34 -2 4 C-2.99 5.32 -3.98 6.64 -5 8 C-4.67 8.66 -4.34 9.32 -4 10 C-5.33333333 11.33333333 -6.66666667 12.66666667 -8 14 C-8.66 13.34 -9.32 12.68 -10 12 C-9.34 12 -8.68 12 -8 12 C-8 11.34 -8 10.68 -8 10 C-12.455 11.485 -12.455 11.485 -17 13 C-13.50164156 9.29394681 -9.99149936 6.47800508 -5.6875 3.6875 C-4.08455078 2.64142578 -4.08455078 2.64142578 -2.44921875 1.57421875 C-1.64097656 1.05472656 -0.83273437 0.53523437 0 0 Z M-19 13 C-18.34 13.33 -17.68 13.66 -17 14 C-18.65 15.32 -20.3 16.64 -22 18 C-22.66 17.67 -23.32 17.34 -24 17 C-22.35 15.68 -20.7 14.36 -19 13 Z " fill="#254979" transform="translate(340,209)"/>
<path d="M0 0 C1.32 1.32 2.64 2.64 4 4 C2.48922551 8.39131785 -0.91662276 10.31736792 -4.625 12.75 C-5.54152344 13.36681641 -5.54152344 13.36681641 -6.4765625 13.99609375 C-7.97895328 15.00551256 -9.48876909 16.0038647 -11 17 C-11.66 16.34 -12.32 15.68 -13 15 C-11.68 14.34 -10.36 13.68 -9 13 C-9 11.35 -9 9.7 -9 8 C-5.68885166 6.87119943 -2.41021743 5.78697325 1 5 C0.67 3.35 0.34 1.7 0 0 Z " fill="#254978" transform="translate(329,194)"/>
<path d="M0 0 C1.60031344 3.20062687 0.03173691 5.72271806 -1 9 C-1.66 8.67 -2.32 8.34 -3 8 C-4.01170618 9.24054448 -5.00897797 10.4928702 -6 11.75 C-6.556875 12.44609375 -7.11375 13.1421875 -7.6875 13.859375 C-9.34847198 16.14984749 -9.34847198 16.14984749 -9 20 C-10 22.25 -10 22.25 -11 24 C-12.65 24 -14.3 24 -16 24 C-11.63513058 15.14605755 -6.15418294 7.65016021 0 0 Z " fill="#284B78" transform="translate(152,126)"/>
<path d="M0 0 C1.32 0.33 2.64 0.66 4 1 C1.06703659 3.15208923 -1.87211164 5.2955695 -4.8125 7.4375 C-5.64587891 8.04916016 -6.47925781 8.66082031 -7.33789062 9.29101562 C-8.14033203 9.87431641 -8.94277344 10.45761719 -9.76953125 11.05859375 C-10.87711792 11.86768188 -10.87711792 11.86768188 -12.00708008 12.69311523 C-14 14 -14 14 -17 15 C-15.92598892 12.08482708 -15.22189824 10.22189824 -13 8 C-12.319375 7.835 -11.63875 7.67 -10.9375 7.5 C-10.298125 7.335 -9.65875 7.17 -9 7 C-8.67 6.34 -8.34 5.68 -8 5 C-7.34 5 -6.68 5 -6 5 C-6 4.34 -6 3.68 -6 3 C-5.01 2.67 -4.02 2.34 -3 2 C-2.67 2.33 -2.34 2.66 -2 3 C-1.34 2.01 -0.68 1.02 0 0 Z " fill="#234A7A" transform="translate(272,240)"/>
<path d="M0 0 C0.66 0.33 1.32 0.66 2 1 C-2.625 5 -2.625 5 -6 5 C-6.2475 5.598125 -6.495 6.19625 -6.75 6.8125 C-8.20490739 9.35858793 -9.47949271 10.51734865 -12 12 C-13.32 12 -14.64 12 -16 12 C-16.33 12.66 -16.66 13.32 -17 14 C-17.66 13.34 -18.32 12.68 -19 12 C-7.0457233 2.94639338 -7.0457233 2.94639338 0 0 Z " fill="#264978" transform="translate(192,95)"/>
<path d="M0 0 C0.66 0.33 1.32 0.66 2 1 C1.67 1.66 1.34 2.32 1 3 C0.90108425 4.34750268 0.86173714 5.69967104 0.85473633 7.05078125 C0.84835648 7.88504639 0.84197662 8.71931152 0.83540344 9.57885742 C0.83429062 10.48095947 0.8331778 11.38306152 0.83203125 12.3125 C0.82870285 13.23716064 0.82537445 14.16182129 0.82194519 15.11450195 C0.81687779 17.07144675 0.81453681 19.02840021 0.81469727 20.98535156 C0.81250891 23.98777394 0.79434614 26.98983009 0.77539062 29.9921875 C0.77245711 31.89062374 0.77047203 33.78906173 0.76953125 35.6875 C0.76234573 36.58960205 0.75516022 37.4917041 0.74775696 38.42114258 C0.75083359 39.25540771 0.75391022 40.08967285 0.75708008 40.94921875 C0.75565506 41.68487061 0.75423004 42.42052246 0.75276184 43.1784668 C0.84676461 45.25048317 0.84676461 45.25048317 3 47 C1.02 47.495 1.02 47.495 -1 48 C-1.02526945 41.3247966 -1.04283268 34.64960543 -1.05493164 27.97436523 C-1.05997325 25.70157409 -1.06680637 23.4287862 -1.07543945 21.15600586 C-1.08751261 17.89696449 -1.09322987 14.63796583 -1.09765625 11.37890625 C-1.10281754 10.35599991 -1.10797882 9.33309357 -1.11329651 8.27919006 C-1.11337204 7.33829025 -1.11344757 6.39739044 -1.11352539 5.42797852 C-1.115746 4.59524918 -1.11796661 3.76251984 -1.12025452 2.90455627 C-1 1 -1 1 0 0 Z " fill="#28476D" transform="translate(247,213)"/>
<path d="M0 0 C8.82739302 7.13704117 16.04534823 15.33244771 22 25 C21.01 25 20.02 25 19 25 C17.46484375 23.1015625 17.46484375 23.1015625 15.9375 20.625 C13.69075483 17.02334743 11.45971655 14.43782529 8.375 11.5 C6 9 6 9 6 7 C5.34 7 4.68 7 4 7 C0 2.52941176 0 2.52941176 0 0 Z " fill="#274872" transform="translate(337,116)"/>
<path d="M0 0 C0 0.66 0 1.32 0 2 C-1.95597184 3.39712274 -3.9659094 4.71927629 -6 6 C-11.66634388 9.5848298 -16.12917712 13.49935696 -20 19 C-20.33 18.01 -20.66 17.02 -21 16 C-21.66 15.67 -22.32 15.34 -23 15 C-22.5059668 14.65219482 -22.01193359 14.30438965 -21.50292969 13.94604492 C-19.2515108 12.3604903 -17.00074986 10.77400417 -14.75 9.1875 C-13.97269531 8.64029297 -13.19539063 8.09308594 -12.39453125 7.52929688 C-11.26337891 6.73168945 -11.26337891 6.73168945 -10.109375 5.91796875 C-9.41811523 5.43094482 -8.72685547 4.9439209 -8.01464844 4.44213867 C-6.60739831 3.43479178 -5.22671345 2.38974833 -3.86816406 1.31762695 C-2 0 -2 0 0 0 Z " fill="#274979" transform="translate(302,237)"/>
<path d="M0 0 C-2.35039013 0.98916033 -4.70466861 1.96636681 -7.0625 2.9375 C-7.71927734 3.21529297 -8.37605469 3.49308594 -9.05273438 3.77929688 C-13.40016919 5.55681948 -17.32492583 6.5197258 -22 7 C-21 4 -21 4 -19 2 C-18.01 2 -17.02 2 -16 2 C-15.67 1.34 -15.34 0.68 -15 0 C-14.34 0.66 -13.68 1.32 -13 2 C-10.60004105 1.66897118 -8.71186768 0.87034046 -6.5 -0.125 C-3.7121571 -1.10074502 -2.741985 -0.82491922 0 0 Z " fill="#264A78" transform="translate(304,328)"/>
<path d="M0 0 C0.99 0.66 1.98 1.32 3 2 C2.01 2.99 1.02 3.98 0 5 C-0.99 4.67 -1.98 4.34 -3 4 C-3 4.66 -3 5.32 -3 6 C-3.66 6 -4.32 6 -5 6 C-5.33 6.99 -5.66 7.98 -6 9 C-7.65438613 9.69658363 -9.32254318 10.36096883 -11 11 C-12.77277259 12.52007842 -12.77277259 12.52007842 -14 14 C-14.99 13.34 -15.98 12.68 -17 12 C-16.35933594 11.55269531 -15.71867188 11.10539063 -15.05859375 10.64453125 C-10.01979528 7.12262889 -4.99518082 3.58349928 0 0 Z " fill="#24538E" transform="translate(269,239)"/>
<path d="M0 0 C0.66 0.33 1.32 0.66 2 1 C1.54109375 1.36351563 1.0821875 1.72703125 0.609375 2.1015625 C-3.43179105 5.41260191 -6.12888978 8.59763099 -9 13 C-11.97252424 15.74958492 -14.08202032 17.16161876 -18 18 C-12.55006359 11.46007631 -6.94034209 4.9970463 0 0 Z " fill="#284B77" transform="translate(171,108)"/>
<path d="M0 0 C-1.32 0.33 -2.64 0.66 -4 1 C-4 1.66 -4 2.32 -4 3 C-7.67659937 5.60919956 -11.78427311 7.28034813 -15.9140625 9.03515625 C-18.22669312 10.03980051 -18.22669312 10.03980051 -21 12 C-21.66 11.34 -22.32 10.68 -23 10 C-19.73831763 8.12937507 -16.46433978 6.28142424 -13.1875 4.4375 C-12.25873047 3.90447266 -11.32996094 3.37144531 -10.37304688 2.82226562 C-9.48037109 2.32275391 -8.58769531 1.82324219 -7.66796875 1.30859375 C-6.84578857 0.84251709 -6.0236084 0.37644043 -5.17651367 -0.10375977 C-3 -1 -3 -1 0 0 Z " fill="#294A77" transform="translate(180,263)"/>
<path d="M0 0 C0.66 0.33 1.32 0.66 2 1 C-3.75 6 -3.75 6 -6 6 C-6 6.66 -6 7.32 -6 8 C-6.99 8 -7.98 8 -9 8 C-9.20625 8.598125 -9.4125 9.19625 -9.625 9.8125 C-11.53549209 12.85191923 -13.71404225 13.69930839 -17 15 C-17.66 14.67 -18.32 14.34 -19 14 C-16.39682213 12.04034952 -13.79228758 10.08251018 -11.1875 8.125 C-10.44951172 7.56941406 -9.71152344 7.01382812 -8.95117188 6.44140625 C-8.23896484 5.90644531 -7.52675781 5.37148438 -6.79296875 4.8203125 C-6.1383667 4.32805176 -5.48376465 3.83579102 -4.80932617 3.32861328 C-3.23787519 2.17467505 -1.62218477 1.08145651 0 0 Z " fill="#294977" transform="translate(269,259)"/>
<path d="M0 0 C0.33 0.66 0.66 1.32 1 2 C1.66 2.144375 2.32 2.28875 3 2.4375 C3.66 2.623125 4.32 2.80875 5 3 C6.15957207 6.47871621 5.77456651 7.34219645 4.5625 10.6875 C4.27503906 11.49574219 3.98757813 12.30398437 3.69140625 13.13671875 C3.46324219 13.75160156 3.23507812 14.36648437 3 15 C2.01 15 1.02 15 0 15 C1.32 11.37 2.64 7.74 4 4 C1.69 4 -0.62 4 -3 4 C-2.67 3.01 -2.34 2.02 -2 1 C-1.34 0.67 -0.68 0.34 0 0 Z " fill="#284A79" transform="translate(353,187)"/>
<path d="M0 0 C3.94139078 1.66751148 6.7892812 4.22710649 10 7 C8 9 8 9 4.375 9.125 C3.26125 9.08375 2.1475 9.0425 1 9 C1.20625 8.071875 1.4125 7.14375 1.625 6.1875 C2.36692966 2.84826598 2.36692966 2.84826598 0 0 Z " fill="#244C79" transform="translate(327,108)"/>
<path d="M0 0 C1.98283479 1.11852219 3.96117623 2.24501325 5.9375 3.375 C7.59072266 4.31472656 7.59072266 4.31472656 9.27734375 5.2734375 C12 7 12 7 13 9 C11.68 9.99 10.36 10.98 9 12 C8.34 11.67 7.68 11.34 7 11 C7 9.68 7 8.36 7 7 C5.35666496 5.96210419 3.68756133 4.96432076 2 4 C0.8359375 1.90625 0.8359375 1.90625 0 0 Z " fill="#244B7A" transform="translate(313,98)"/>
<path d="M0 0 C0.33 0 0.66 0 1 0 C1.02727678 2.97923003 1.04697128 5.95820379 1.0625 8.9375 C1.07087891 9.76830078 1.07925781 10.59910156 1.08789062 11.45507812 C1.10966956 17.05226441 0.71159268 22.44733582 0 28 C-0.33 28 -0.66 28 -1 28 C-1.33 24.04 -1.66 20.08 -2 16 C-1.34 16 -0.68 16 0 16 C0 10.72 0 5.44 0 0 Z " fill="#264670" transform="translate(378,201)"/>
<path d="M0 0 C1.32 0.66 2.64 1.32 4 2 C4 2.33 4 2.66 4 3 C-3.59 3 -11.18 3 -19 3 C-19 2.34 -19 1.68 -19 1 C-17.71222656 1.01160156 -16.42445313 1.02320313 -15.09765625 1.03515625 C-13.41927228 1.0445327 -11.74088674 1.05363305 -10.0625 1.0625 C-9.21236328 1.07087891 -8.36222656 1.07925781 -7.48632812 1.08789062 C-6.67744141 1.09111328 -5.86855469 1.09433594 -5.03515625 1.09765625 C-4.2862915 1.10289307 -3.53742676 1.10812988 -2.76586914 1.11352539 C-0.97332261 1.19341752 -0.97332261 1.19341752 0 0 Z " fill="#284B76" transform="translate(234,128)"/>
<path d="M0 0 C-3.05783908 2.40569331 -6.22457996 4.36189615 -9.625 6.25 C-10.58664063 6.79140625 -11.54828125 7.3328125 -12.5390625 7.890625 C-13.75722656 8.43976563 -13.75722656 8.43976563 -15 9 C-15.66 8.67 -16.32 8.34 -17 8 C-16.01 7.67 -15.02 7.34 -14 7 C-14 6.34 -14 5.68 -14 5 C-9.77319325 1.24283845 -5.63713925 -0.32212224 0 0 Z " fill="#254978" transform="translate(194,240)"/>
<path d="M0 0 C0.66 0.33 1.32 0.66 2 1 C1.67 3.31 1.34 5.62 1 8 C0.34 8 -0.32 8 -1 8 C-0.67 5.36 -0.34 2.72 0 0 Z M-2 8 C-0.51145191 10.36416462 0.05764708 11.56188219 -0.3125 14.375 C-0.539375 15.24125 -0.76625 16.1075 -1 17 C-1.33944795 18.99897128 -1.67421616 20.99875639 -2 23 C-2.33 23 -2.66 23 -3 23 C-3.09038099 17.84828377 -2.84681133 13.08086796 -2 8 Z " fill="#284A76" transform="translate(125,177)"/>
<path d="M0 0 C4.19108718 6.28663076 5.50995408 14.52067355 5 22 C2.81786571 18.72679856 2.2598569 16.32331376 1.4375 12.5 C0.73338773 9.26035389 0.04851974 6.14555922 -1 3 C-0.67 2.01 -0.34 1.02 0 0 Z " fill="#274C73" transform="translate(372,170)"/>
<path d="M0 0 C-2.49824489 2.81158409 -5.278476 4.44837831 -8.5625 6.25 C-10.01849609 7.06210937 -10.01849609 7.06210937 -11.50390625 7.890625 C-12.32761719 8.25671875 -13.15132812 8.6228125 -14 9 C-14.66 8.67 -15.32 8.34 -16 8 C-15.360625 7.71125 -14.72125 7.4225 -14.0625 7.125 C-11.84793921 6.17176549 -11.84793921 6.17176549 -11 4 C-7.24476454 1.09822715 -4.81293731 -0.56622792 0 0 Z " fill="#274A75" transform="translate(160,258)"/>
<path d="M0 0 C1.485 0.99 1.485 0.99 3 2 C3.40843923 4.71203652 3.13336867 7.2437142 3 10 C3.66 10.33 4.32 10.66 5 11 C4.67 13.64 4.34 16.28 4 19 C0.52501234 13.0428783 -0.28080706 6.7393695 0 0 Z " fill="#274C77" transform="translate(123,229)"/>
<path d="M0 0 C0.66 0.33 1.32 0.66 2 1 C1 3 1 3 -2 5 C-2.804375 5.66 -3.60875 6.32 -4.4375 7 C-6.59709635 8.68553861 -8.5133185 9.89480822 -11 11 C-11 10.01 -11 9.02 -11 8 C-8.59375 5.95703125 -8.59375 5.95703125 -5.5 3.8125 C-3.96859375 2.73935547 -3.96859375 2.73935547 -2.40625 1.64453125 C-1.6121875 1.10183594 -0.818125 0.55914062 0 0 Z " fill="#2A4973" transform="translate(248,274)"/>
<path d="M0 0 C2.95051654 3.45922629 5.25855517 6.7838704 7 11 C6.67 11.99 6.34 12.98 6 14 C2.67016949 11.30442292 1.45548306 7.95059687 0 4 C0 2.68 0 1.36 0 0 Z M0 12 C2 13 2 13 2 13 Z " fill="#284B7B" transform="translate(360,144)"/>
<path d="M0 0 C-1.79036458 0.9765625 -3.58072917 1.953125 -5.37109375 2.9296875 C-7.16618315 3.91410024 -7.16618315 3.91410024 -8 6 C-10.97 5.505 -10.97 5.505 -14 5 C-9.94779194 1.59614523 -5.27662976 -1.75887659 0 0 Z " fill="#294A76" transform="translate(208,90)"/>
<path d="M0 0 C0.66 0 1.32 0 2 0 C2 0.66 2 1.32 2 2 C2.66 2 3.32 2 4 2 C5.03290841 3.93108963 6.05098672 5.870118 7.0625 7.8125 C7.63097656 8.89144531 8.19945312 9.97039062 8.78515625 11.08203125 C10 14 10 14 9 17 C7.49743011 14.35559624 5.9978388 11.70958148 4.5 9.0625 C4.07074219 8.30775391 3.64148438 7.55300781 3.19921875 6.77539062 C2.79316406 6.05673828 2.38710937 5.33808594 1.96875 4.59765625 C1.59169922 3.93258057 1.21464844 3.26750488 0.82617188 2.58227539 C0 1 0 1 0 0 Z " fill="#284873" transform="translate(133,265)"/>
<path d="M0 0 C1.98 0 3.96 0 6 0 C4.68 2.64 3.36 5.28 2 8 C1.01 8 0.02 8 -1 8 C-0.67 5.36 -0.34 2.72 0 0 Z " fill="#234B7A" transform="translate(356,274)"/>
<path d="M0 0 C4.95 1.98 9.9 3.96 15 6 C15 6.33 15 6.66 15 7 C12.69 7 10.38 7 8 7 C7.67 6.34 7.34 5.68 7 5 C6.01 4.690625 5.02 4.38125 4 4.0625 C3.01 3.711875 2.02 3.36125 1 3 C0.67 2.01 0.34 1.02 0 0 Z " fill="#294770" transform="translate(294,89)"/>
<path d="M0 0 C0.66 0.33 1.32 0.66 2 1 C-1.63 4.63 -5.26 8.26 -9 12 C-9.33 11.01 -9.66 10.02 -10 9 C-8.37660195 7.29115995 -6.70680947 5.62553283 -5 4 C-4.34 4 -3.68 4 -3 4 C-3 3.34 -3 2.68 -3 2 C-2.01 1.34 -1.02 0.68 0 0 Z " fill="#284A74" transform="translate(343,297)"/>
<path d="M0 0 C0.66 0 1.32 0 2 0 C1.48594831 4.96916636 0.76615118 9.29026351 -1 14 C-1.66 14 -2.32 14 -3 14 C-2.01 9.38 -1.02 4.76 0 0 Z " fill="#284673" transform="translate(373,240)"/>
<path d="M0 0 C0.66 0.99 1.32 1.98 2 3 C1.34 3 0.68 3 0 3 C0.33 4.32 0.66 5.64 1 7 C-2 7 -2 7 -3.6875 5.5 C-4.120625 5.005 -4.55375 4.51 -5 4 C-3.35 2.68 -1.7 1.36 0 0 Z " fill="#244B7C" transform="translate(307,232)"/>
<path d="M0 0 C3.3 1.65 6.6 3.3 10 5 C10 5.99 10 6.98 10 8 C6.41726669 6.34643078 3.19026533 4.32019297 0 2 C0 1.34 0 0.68 0 0 Z " fill="#25436B" transform="translate(171,311)"/>
<path d="M0 0 C0.86625 0.4640625 0.86625 0.4640625 1.75 0.9375 C3.85026522 1.92929191 5.74951737 2.47488739 8 3 C8.66 3.33 9.32 3.66 10 4 C9.01 5.32 8.02 6.64 7 8 C5.83035398 6.8572081 4.66435444 5.71068285 3.5 4.5625 C2.8503125 3.92441406 2.200625 3.28632813 1.53125 2.62890625 C0 1 0 1 0 0 Z " fill="#234A79" transform="translate(153,295)"/>
<path d="M0 0 C0.66 0.33 1.32 0.66 2 1 C-1.465 3.97 -1.465 3.97 -5 7 C-5 6.34 -5 5.68 -5 5 C-5.99 4.67 -6.98 4.34 -8 4 C-6.71349294 3.30289269 -5.42059335 2.61757124 -4.125 1.9375 C-3.40570313 1.55464844 -2.68640625 1.17179687 -1.9453125 0.77734375 C-1.30335938 0.52082031 -0.66140625 0.26429688 0 0 Z " fill="#264B74" transform="translate(155,274)"/>
<path d="M0 0 C1.33333333 1.33333333 2.66666667 2.66666667 4 4 C6.10820797 3.6814823 6.10820797 3.6814823 8 3 C6.25 5.0625 6.25 5.0625 4 7 C1.75 6.75 1.75 6.75 0 6 C0 4.02 0 2.04 0 0 Z " fill="#21497A" transform="translate(247,252)"/>
<path d="M0 0 C2.31 0.66 4.62 1.32 7 2 C7 2.99 7 3.98 7 5 C6.01 5.33 5.02 5.66 4 6 C3.896875 5.360625 3.79375 4.72125 3.6875 4.0625 C3.460625 3.381875 3.23375 2.70125 3 2 C2.01 1.67 1.02 1.34 0 1 C0 0.67 0 0.34 0 0 Z " fill="#234B7A" transform="translate(287,87)"/>
<path d="M0 0 C0.66 0.33 1.32 0.66 2 1 C0.68 3.31 -0.64 5.62 -2 8 C-2.6875 6.25 -2.6875 6.25 -3 4 C-1.5625 1.75 -1.5625 1.75 0 0 Z " fill="#2B4A73" transform="translate(365,265)"/>
</svg>
