<?xml version="1.0" encoding="UTF-8"?>
<svg version="1.1" xmlns="http://www.w3.org/2000/svg" width="280" height="280">
<path d="M0 0 C92.4 0 184.8 0 280 0 C280 92.4 280 184.8 280 280 C187.6 280 95.2 280 0 280 C0 187.6 0 95.2 0 0 Z " fill="#FEFEFE" transform="translate(0,0)"/>
<path d="M0 0 C2.30078125 1.39453125 2.30078125 1.39453125 4.375 2.875 C5.02855469 3.33261719 5.68210938 3.79023437 6.35546875 4.26171875 C12.38788584 8.956457 16.62795451 15.41035109 18.375 22.875 C18.45022969 25.20712027 18.46825876 27.5435311 18.375 29.875 C21.345 29.545 24.315 29.215 27.375 28.875 C27.045 28.545 26.715 28.215 26.375 27.875 C25.91456191 23.50083818 25.91456191 23.50083818 27.58203125 21.234375 C29.9318187 19.4528368 31.38744111 19.47360849 34.3125 19.5 C35.16714844 19.49226563 36.02179688 19.48453125 36.90234375 19.4765625 C39.85425464 19.95222587 41.25727182 20.78183944 43.375 22.875 C43.375 23.865 43.375 24.855 43.375 25.875 C42.88 25.730625 42.385 25.58625 41.875 25.4375 C38.39747078 24.65505593 34.91544877 24.28805236 31.375 23.875 C31.375 24.865 31.375 25.855 31.375 26.875 C34.90686832 29.02559309 38.03787993 29.2547728 42.125 29.5 C43.29546875 29.57476562 44.4659375 29.64953125 45.671875 29.7265625 C46.56390625 29.77554688 47.4559375 29.82453125 48.375 29.875 C49.035 26.575 49.695 23.275 50.375 19.875 C51.365 19.875 52.355 19.875 53.375 19.875 C53.045 23.175 52.715 26.475 52.375 29.875 C55.675 29.875 58.975 29.875 62.375 29.875 C62.7875 28.43125 63.2 26.9875 63.625 25.5 C64.85576923 21.19230769 64.85576923 21.19230769 67.484375 19.5859375 C68.10828125 19.35132812 68.7321875 19.11671875 69.375 18.875 C69.5 26.5 69.5 26.5 68.375 29.875 C70.685 29.875 72.995 29.875 75.375 29.875 C75.705 26.575 76.035 23.275 76.375 19.875 C77.695 19.875 79.015 19.875 80.375 19.875 C80.375 22.185 80.375 24.495 80.375 26.875 C81.15875 26.09125 81.9425 25.3075 82.75 24.5 C87.375 19.875 87.375 19.875 90.375 19.625 C93.375 19.875 93.375 19.875 95.375 21.875 C95.375 24.515 95.375 27.155 95.375 29.875 C102.965 29.875 110.555 29.875 118.375 29.875 C118.375 30.535 118.375 31.195 118.375 31.875 C110.785 31.875 103.195 31.875 95.375 31.875 C95.045 35.175 94.715 38.475 94.375 41.875 C94.045 42.535 93.715 43.195 93.375 43.875 C92.385 43.545 91.395 43.215 90.375 42.875 C90.705 39.245 91.035 35.615 91.375 31.875 C88.075 31.875 84.775 31.875 81.375 31.875 C81.106875 32.74125 80.83875 33.6075 80.5625 34.5 C79.40388013 37.79291964 77.99290161 40.78627875 76.375 43.875 C75.385 43.545 74.395 43.215 73.375 42.875 C73.705 39.245 74.035 35.615 74.375 31.875 C72.065 31.875 69.755 31.875 67.375 31.875 C67.395625 32.9475 67.41625 34.02 67.4375 35.125 C67.3892016 38.02290424 67.24344115 40.16112141 66.375 42.875 C65.385 42.875 64.395 42.875 63.375 42.875 C63.375 39.905 63.375 36.935 63.375 33.875 C63.01148438 34.44089844 62.64796875 35.00679687 62.2734375 35.58984375 C58.16800292 41.57956754 58.16800292 41.57956754 54.1875 43.0625 C51.375 42.875 51.375 42.875 49.5 41.9375 C47.69663372 38.63132849 48.19176305 35.60081793 48.375 31.875 C45.735 31.875 43.095 31.875 40.375 31.875 C40.705 32.535 41.035 33.195 41.375 33.875 C41.6875 36.8125 41.6875 36.8125 41.375 39.875 C39.06598803 42.64581437 37.52193304 42.85629943 33.9375 43.3125 C29.78965705 42.80311578 28.22146788 41.88890717 25.375 38.875 C24.5625 36.625 24.5625 36.625 24.375 34.875 C25.365 34.545 26.355 34.215 27.375 33.875 C27.725625 34.535 28.07625 35.195 28.4375 35.875 C30.34057142 38.28603961 30.34057142 38.28603961 34.0625 38.125 C35.155625 38.0425 36.24875 37.96 37.375 37.875 C36.0660428 34.75302522 36.0660428 34.75302522 33.375 32.875 C30.82884991 32.64327173 28.30103775 32.45605471 25.75 32.3125 C24.69039062 32.24772461 24.69039062 32.24772461 23.609375 32.18164062 C21.86481463 32.07555249 20.11993303 31.97477111 18.375 31.875 C18.2821875 33.545625 18.2821875 33.545625 18.1875 35.25 C17.0556973 44.00984283 12.29432275 51.50285501 5.375 56.875 C-2.80571851 62.02223709 -11.60104719 64.17290432 -21.140625 62.41015625 C-30.14523569 60.07613906 -37.48196075 54.65042324 -42.625 46.875 C-44.98411319 42.13479431 -46.625 38.20786194 -46.625 32.875 C-49.595 32.875 -52.565 32.875 -55.625 32.875 C-55.625 32.215 -55.625 31.555 -55.625 30.875 C-52.655 30.875 -49.685 30.875 -46.625 30.875 C-46.7075 29.740625 -46.79 28.60625 -46.875 27.4375 C-46.84612534 19.25153508 -42.16466506 11.67090508 -36.625 5.875 C-26.35961936 -2.30465842 -12.39129948 -5.93789544 0 0 Z " fill="#283F5F" transform="translate(112.625,35.125)"/>
<path d="M0 0 C5.3504745 2.92853468 8.70802822 6.20554296 11.6875 11.5 C12.06648438 12.07492188 12.44546875 12.64984375 12.8359375 13.2421875 C13.6875 15.5 13.6875 15.5 13.6875 23.5 C-3.1425 23.5 -19.9725 23.5 -37.3125 23.5 C-37.3125 15.5057806 -36.07745217 11.80258175 -31.0625 5.8125 C-21.47123569 -2.25288135 -11.94001644 -5.49359859 0 0 Z " fill="#FEFDFD" transform="translate(110.3125,41.5)"/>
<path d="M0 0 C16.83 0 33.66 0 51 0 C49.79500913 8.43493611 47.73648372 13.14117238 41 18.375 C34.06614724 23.37967598 27.37873349 23.93530048 19 23 C10.5001747 20.39896056 5.58469861 15.30783101 1.125 7.875 C0 5 0 5 0 0 Z " fill="#FEFDFD" transform="translate(73,68)"/>
<path d="M0 0 C1.27746597 0.00141495 2.55493195 0.0028299 3.87110901 0.00428772 C7.24615371 0.00892109 10.62112922 0.01788602 13.99615479 0.0289917 C17.44860236 0.03927199 20.90105712 0.04379944 24.35351562 0.04882812 C31.1119981 0.05983159 37.87044818 0.07655058 44.62890625 0.09765625 C43.53282384 9.61827905 40.73614873 16.97614746 33.515625 23.6328125 C26.06179668 29.41994629 17.00228267 32.06256265 7.62890625 31.09765625 C-1.89466173 29.33786651 -8.96735687 24.55674876 -15.05078125 17.09375 C-18.32239745 12.14760835 -20.37109375 7.02483166 -20.37109375 1.09765625 C-13.59472447 -0.15851484 -6.87390505 -0.02878437 0 0 Z M-13.37109375 1.09765625 C-12.24197418 9.00149323 -10.31452563 13.87976209 -4.078125 18.96875 C3.40757527 24.06098004 9.59776421 24.99254162 18.62890625 24.09765625 C26.32888891 21.75828822 31.79032878 17.24595076 35.65625 10.234375 C37.18411552 6.94629574 37.62890625 4.77099186 37.62890625 1.09765625 C20.79890625 1.09765625 3.96890625 1.09765625 -13.37109375 1.09765625 Z " fill="#D04652" transform="translate(86.37109375,66.90234375)"/>
<path d="M0 0 C2.30078125 1.39453125 2.30078125 1.39453125 4.375 2.875 C5.02855469 3.33261719 5.68210938 3.79023437 6.35546875 4.26171875 C12.38788584 8.956457 16.62795451 15.41035109 18.375 22.875 C18.45022969 25.20712027 18.46825876 27.5435311 18.375 29.875 C16.065 29.875 13.755 29.875 11.375 29.875 C11.30023438 29.25753906 11.22546875 28.64007813 11.1484375 28.00390625 C10.09554218 21.22202172 8.26063813 15.83623794 3.375 10.875 C-2.88339419 6.44387419 -9.22924798 3.88277228 -16.953125 4.3515625 C-23.95581059 5.72343365 -30.18951329 9.26541387 -34.625 14.875 C-37.94204913 20.11007073 -39.18539973 24.72059616 -39.625 30.875 C-41.935 30.875 -44.245 30.875 -46.625 30.875 C-47.29104254 21.71691503 -44.01938291 14.87791456 -38.3984375 7.73046875 C-28.77380488 -2.33935613 -12.83136773 -6.1487756 0 0 Z " fill="#D63E49" transform="translate(112.625,35.125)"/>
<path d="M0 0 C1.28197266 -0.01160156 1.28197266 -0.01160156 2.58984375 -0.0234375 C5.54175464 0.45222587 6.94477182 1.28183944 9.0625 3.375 C9.0625 4.365 9.0625 5.355 9.0625 6.375 C8.5675 6.230625 8.0725 6.08625 7.5625 5.9375 C4.08497078 5.15505593 0.60294877 4.78805236 -2.9375 4.375 C-2.9375 5.365 -2.9375 6.355 -2.9375 7.375 C0.02428773 9.04610042 2.43321192 9.70182752 5.8125 10 C6.61171875 10.07476562 7.4109375 10.14953125 8.234375 10.2265625 C9.13929688 10.30003906 9.13929688 10.30003906 10.0625 10.375 C8.7425 11.035 7.4225 11.695 6.0625 12.375 C6.5575 13.365 6.5575 13.365 7.0625 14.375 C7.375 17.3125 7.375 17.3125 7.0625 20.375 C4.75348803 23.14581437 3.20943304 23.35629943 -0.375 23.8125 C-4.52284295 23.30311578 -6.09103212 22.38890717 -8.9375 19.375 C-9.75 17.125 -9.75 17.125 -9.9375 15.375 C-8.9475 15.045 -7.9575 14.715 -6.9375 14.375 C-6.586875 15.035 -6.23625 15.695 -5.875 16.375 C-3.97192858 18.78603961 -3.97192858 18.78603961 -0.25 18.625 C0.843125 18.5425 1.93625 18.46 3.0625 18.375 C1.7535428 15.25302522 1.7535428 15.25302522 -0.9375 13.375 C-3.74480125 13.2817247 -6.52711098 13.24924075 -9.33447266 13.26147461 C-10.20283249 13.26132858 -11.07119232 13.26118256 -11.96586609 13.2610321 C-14.84445672 13.26173039 -17.72298314 13.2695189 -20.6015625 13.27734375 C-22.59410568 13.27920823 -24.58664931 13.28063199 -26.57919312 13.28163147 C-31.83009094 13.28545431 -37.08096122 13.29528263 -42.33184814 13.30633545 C-47.68737414 13.31655457 -53.04290457 13.32113017 -58.3984375 13.32617188 C-68.91147045 13.33690509 -79.42448294 13.35397873 -89.9375 13.375 C-89.9375 12.715 -89.9375 12.055 -89.9375 11.375 C-79.19323252 10.61358773 -68.48947395 10.18811165 -57.71875 10.05859375 C-56.23945652 10.03794005 -54.7601678 10.01694199 -53.28088379 9.99562073 C-49.44736682 9.9412662 -45.61380464 9.8914872 -41.7802124 9.84277344 C-37.84432099 9.79191232 -33.90849263 9.73656882 -29.97265625 9.68164062 C-22.29432471 9.57512405 -14.61593957 9.47345757 -6.9375 9.375 C-7.4325 8.88 -7.4325 8.88 -7.9375 8.375 C-8.39793809 4.00083818 -8.39793809 4.00083818 -6.73046875 1.734375 C-4.3806813 -0.0471632 -2.92505889 -0.02639151 0 0 Z " fill="#334866" transform="translate(146.9375,54.625)"/>
<path d="M0 0 C0.99 0 1.98 0 3 0 C2.49656013 7.02673515 1.95812032 14.01940909 1 21 C1.66 20.34 2.32 19.68 3 19 C6 18.6875 6 18.6875 9 19 C11 22 11 22 10.9375 25.3125 C9.74548938 30.0010751 8.52938032 31.7059117 5 35 C1.48502692 36.00427802 -1.33085211 36 -5 36 C-4.53251292 23.8219616 -2.20543803 11.95902218 0 0 Z " fill="#435773" transform="translate(176,114)"/>
<path d="M0 0 C1.22589844 0.01353516 1.22589844 0.01353516 2.4765625 0.02734375 C3.41628906 0.04474609 3.41628906 0.04474609 4.375 0.0625 C4.26021587 2.12559376 4.13273802 4.18798354 4 6.25 C3.93039063 7.39855469 3.86078125 8.54710937 3.7890625 9.73046875 C3.39990426 12.86209117 2.6940149 15.21535809 1.375 18.0625 C0.715 18.0625 0.055 18.0625 -0.625 18.0625 C-0.625 15.7525 -0.625 13.4425 -0.625 11.0625 C-1.00011719 11.5678125 -1.37523437 12.073125 -1.76171875 12.59375 C-5.99378216 17.96644511 -5.99378216 17.96644511 -9.5 18.5 C-10.20125 18.355625 -10.9025 18.21125 -11.625 18.0625 C-13.23245059 14.84759882 -13.02805242 12.6323929 -12.625 9.0625 C-9.33089843 3.34596681 -6.7982459 -0.0971178 0 0 Z " fill="#4A5D78" transform="translate(133.625,131.9375)"/>
<path d="M0 0 C0.66 0 1.32 0 2 0 C2.33 1.65 2.66 3.3 3 5 C3.721875 4.154375 4.44375 3.30875 5.1875 2.4375 C8 0 8 0 10.8125 0.1875 C11.534375 0.455625 12.25625 0.72375 13 1 C13.33 2.32 13.66 3.64 14 5 C15.0828125 3.7315625 15.0828125 3.7315625 16.1875 2.4375 C17.115625 1.633125 18.04375 0.82875 19 0 C21.67578125 0.34765625 21.67578125 0.34765625 24 1 C24.3690205 12.52164009 24.3690205 12.52164009 22 18 C21.67 18 21.34 18 21 18 C21 13.05 21 8.1 21 3 C16.32289565 7.54814338 16.32289565 7.54814338 13.6875 12.8125 C13.36136719 13.60269531 13.03523437 14.39289063 12.69921875 15.20703125 C12.46847656 15.79871094 12.23773438 16.39039063 12 17 C11.01 17 10.02 17 9 17 C9.33 12.38 9.66 7.76 10 3 C6.60254 6.39746 4.90942001 8.6274709 2.75 12.75 C2.22921875 13.73484375 1.7084375 14.7196875 1.171875 15.734375 C0.78515625 16.48203125 0.3984375 17.2296875 0 18 C-0.66 18 -1.32 18 -2 18 C-1.85860519 15.74971671 -1.71171997 13.49977794 -1.5625 11.25 C-1.48128906 9.99703125 -1.40007812 8.7440625 -1.31640625 7.453125 C-1.07484478 4.81682447 -0.75716066 2.51962706 0 0 Z " fill="#3B506D" transform="translate(143,132)"/>
<path d="M0 0 C0.99 0 1.98 0 3 0 C3 1.98 3 3.96 3 6 C4.65 4.02 6.3 2.04 8 0 C9.65 0.33 11.3 0.66 13 1 C13.33 2.65 13.66 4.3 14 6 C15.65 4.02 17.3 2.04 19 0 C21.475 0.495 21.475 0.495 24 1 C24.02699725 3.27076842 24.04639453 5.54162821 24.0625 7.8125 C24.07410156 9.07707031 24.08570313 10.34164062 24.09765625 11.64453125 C24 15 24 15 23 18 C22.34 18 21.68 18 21 18 C21.33 12.72 21.66 7.44 22 2 C18.08610821 5.91389179 16.35706013 7.66344259 14.1875 12.3125 C13.76855469 13.19550781 13.34960938 14.07851562 12.91796875 14.98828125 C12.61503906 15.65214844 12.31210938 16.31601563 12 17 C11.34 17 10.68 17 10 17 C10.33 12.38 10.66 7.76 11 3 C6.68771007 6.8049617 4.11180096 10.96415921 1.33203125 15.98828125 C0.67267578 16.98408203 0.67267578 16.98408203 0 18 C-0.66 18 -1.32 18 -2 18 C-2.27560214 11.79895188 -1.22899346 6.06815522 0 0 Z " fill="#3A4F6C" transform="translate(136,195)"/>
<path d="M0 0 C0.99 0 1.98 0 3 0 C3 1.98 3 3.96 3 6 C4.65 4.02 6.3 2.04 8 0 C9.65 0.33 11.3 0.66 13 1 C13.33 2.65 13.66 4.3 14 6 C15.65 4.02 17.3 2.04 19 0 C21.475 0.495 21.475 0.495 24 1 C24.02699725 3.27076842 24.04639453 5.54162821 24.0625 7.8125 C24.07410156 9.07707031 24.08570313 10.34164062 24.09765625 11.64453125 C24 15 24 15 23 18 C22.34 18 21.68 18 21 18 C21.33 12.72 21.66 7.44 22 2 C18.08610821 5.91389179 16.35706013 7.66344259 14.1875 12.3125 C13.76855469 13.19550781 13.34960938 14.07851562 12.91796875 14.98828125 C12.61503906 15.65214844 12.31210938 16.31601563 12 17 C11.34 17 10.68 17 10 17 C10.33 12.38 10.66 7.76 11 3 C6.68771007 6.8049617 4.11180096 10.96415921 1.33203125 15.98828125 C0.67267578 16.98408203 0.67267578 16.98408203 0 18 C-0.66 18 -1.32 18 -2 18 C-2.27560214 11.79895188 -1.22899346 6.06815522 0 0 Z " fill="#3A4F6C" transform="translate(106,195)"/>
<path d="M0 0 C2.4375 1.375 2.4375 1.375 4 3 C4 3.66 4 4.32 4 5 C3.484375 4.835 2.96875 4.67 2.4375 4.5 C-0.93349478 3.80851389 -3.56114169 3.57768407 -7 4 C-12.24843305 8.78190566 -13.80844978 13.76312593 -14.23046875 20.89453125 C-14.21628906 22.18746094 -14.20210938 23.48039062 -14.1875 24.8125 C-14.18105469 26.11832031 -14.17460938 27.42414063 -14.16796875 28.76953125 C-14.22175887 31.88995488 -14.22175887 31.88995488 -13 34 C-9.6365731 33.97350778 -9.6365731 33.97350778 -6 33 C-3.66585353 30.04150073 -3.66585353 30.04150073 -2 27 C-1.34 27 -0.68 27 0 27 C-0.41514897 31.8434046 -2.46208699 33.81587829 -6 37 C-6.495 37.495 -6.495 37.495 -7 38 C-10.3125 38.375 -10.3125 38.375 -14 38 C-17.14924586 35.11925113 -17.94449009 33.40285504 -18.53125 29.14453125 C-18.5483627 27.70058466 -18.53683492 26.25607812 -18.5 24.8125 C-18.48718994 24.05799561 -18.47437988 23.30349121 -18.46118164 22.52612305 C-18.17314582 14.55770176 -16.53832517 8.08087229 -10.6875 2.375 C-7.13817842 -0.31364918 -4.45429932 -0.75639045 0 0 Z " fill="#4C5F7A" transform="translate(97,112)"/>
<path d="M0 0 C0.66 0 1.32 0 2 0 C2.18938393 5.87090174 1.76459057 11.01520319 0.4375 16.73828125 C-0.12661097 19.27059275 -0.12661097 19.27059275 0 23 C0.721875 22.154375 1.44375 21.30875 2.1875 20.4375 C5 18 5 18 7.75 18.0625 C10 19 10 19 11 21 C10.91161539 23.37783105 10.75653579 25.75345146 10.5625 28.125 C10.46066406 29.40632813 10.35882813 30.68765625 10.25390625 32.0078125 C10.17011719 32.99523437 10.08632812 33.98265625 10 35 C8.515 35.495 8.515 35.495 7 36 C6.90961901 30.84828377 7.15318867 26.08086796 8 21 C3.38284757 23.24171796 1.81989103 25.57558452 -0.3125 30.1875 C-1.08013672 31.81751953 -1.08013672 31.81751953 -1.86328125 33.48046875 C-2.23839844 34.31191406 -2.61351563 35.14335937 -3 36 C-3.66 36 -4.32 36 -5 36 C-5.25437289 28.31957998 -4.2787524 21.07527449 -3.0625 13.5 C-2.78889648 11.71335937 -2.78889648 11.71335937 -2.50976562 9.890625 C-1.13553656 1.13553656 -1.13553656 1.13553656 0 0 Z " fill="#4D607B" transform="translate(107,114)"/>
<path d="M0 0 C3.3125 0.5 3.3125 0.5 5.3125 2.5 C5.97009711 8.19917495 4.83751533 11.04189237 1.3125 15.5 C-0.6875 17.5 -0.6875 17.5 -3.6875 17.75 C-6.6875 17.5 -6.6875 17.5 -8.6875 15.5 C-9.39891373 11.75571722 -9.40356224 8.07597628 -7.8125 4.57421875 C-5.47043291 1.34617233 -3.93576501 0.53366305 0 0 Z " fill="#586982" transform="translate(95.6875,194.5)"/>
<path d="M0 0 C0.8125 2.1875 0.8125 2.1875 1 5 C-1.44512307 7.92056367 -3.83343909 9.88895939 -7 12 C-7.99 12 -8.98 12 -10 12 C-9.67 12.66 -9.34 13.32 -9 14 C-4.545 13.505 -4.545 13.505 0 13 C-2 17 -2 17 -4 18 C-6.875 18.375 -6.875 18.375 -10 18 C-12.4375 15.9375 -12.4375 15.9375 -14 13 C-14 7.69918588 -12.66793215 4.77908161 -9 1 C-6.04335481 -0.4783226 -3.25770263 -0.06032783 0 0 Z " fill="#4C5F7A" transform="translate(178,195)"/>
<path d="M0 0 C2 2 2 2 2 4.375 C0.19714248 9.10750099 -4.58749577 10.96345959 -9 13 C-7.96243008 14.2602065 -7.96243008 14.2602065 -5.6875 14.125 C-3.28967362 14.01347319 -1.29105488 13.67883108 1 13 C-0.75 16.875 -0.75 16.875 -3 18 C-5.875 18.375 -5.875 18.375 -9 18 C-11.82998419 15.46790888 -12.84832342 13.79208883 -13.5625 10.0625 C-12.77590045 5.77990245 -11.03113127 4.10330106 -8 1 C-5.23749964 -0.38125018 -3.05268901 -0.19079306 0 0 Z " fill="#4A5D78" transform="translate(229,195)"/>
<path d="M0 0 C2.8125 0.5625 2.8125 0.5625 5.8125 2.5625 C5.8125 3.5525 5.8125 4.5425 5.8125 5.5625 C3.79427083 5.30208333 1.77604167 5.04166667 -0.2421875 4.78125 C-2.19248344 4.5252515 -2.19248344 4.5252515 -4.1875 4.5625 C-4.5175 7.5325 -4.8475 10.5025 -5.1875 13.5625 C-3.5375 13.8925 -1.8875 14.2225 -0.1875 14.5625 C0.4725 13.5725 1.1325 12.5825 1.8125 11.5625 C2.8025 11.8925 3.7925 12.2225 4.8125 12.5625 C3.44266497 15.72365776 2.8234362 16.5552092 -0.1875 18.5625 C-3.44745538 19.0640316 -4.74565654 18.86104288 -7.5 17 C-9.89664473 13.53817983 -9.88909403 11.70190476 -9.1875 7.5625 C-6.85909408 3.46386766 -4.73242783 0.83513432 0 0 Z " fill="#50637C" transform="translate(78.1875,194.4375)"/>
<path d="M0 0 C1.21875 2.05078125 1.21875 2.05078125 2 4 C1.06027344 3.85691406 1.06027344 3.85691406 0.1015625 3.7109375 C-0.71570313 3.60007813 -1.53296875 3.48921875 -2.375 3.375 C-3.18710938 3.25898438 -3.99921875 3.14296875 -4.8359375 3.0234375 C-5.55007812 3.01570312 -6.26421875 3.00796875 -7 3 C-9.18331689 4.76136355 -9.18331689 4.76136355 -9.1953125 6.9453125 C-9.17210937 7.66460937 -9.14890625 8.38390625 -9.125 9.125 C-9.063125 11.043125 -9.063125 11.043125 -9 13 C-7.02 13 -5.04 13 -3 13 C-2.67 12.01 -2.34 11.02 -2 10 C-1.34 10 -0.68 10 0 10 C-0.36793618 12.66753731 -0.81998328 13.81998328 -2.75 15.75 C-5.47830675 17.26572597 -6.92742508 17.55148781 -10 17 C-12.93830822 14.56829664 -13.01326848 12.88058372 -13.4375 9.0625 C-13.29259728 4.97471813 -11.96315444 2.87600284 -9 0 C-5.81926598 -1.59036701 -3.37573597 -0.78365299 0 0 Z " fill="#374C69" transform="translate(212,196)"/>
<path d="M0 0 C1.66611905 -0.042721 3.33382885 -0.04063832 5 0 C6 1 6 1 6.4375 3.25 C5.88982051 6.69255683 4.39598493 7.92902211 1.66796875 9.99609375 C-0.50120022 11.30165915 -2.49008278 11.77853672 -5 12 C-4.67 12.66 -4.34 13.32 -4 14 C-0.7 13.67 2.6 13.34 6 13 C5 16 5 16 3.375 17.25 C-0.0402198 18.32849046 -2.55424873 17.82953271 -6 17 C-8.29013653 13.5647952 -8.17842973 12.014669 -8 8 C-7.34 7.67 -6.68 7.34 -6 7 C-6 7.99 -6 8.98 -6 10 C-4.51478323 9.24088921 -3.03696575 8.46728766 -1.5625 7.6875 C-0.73878906 7.25824219 0.08492187 6.82898438 0.93359375 6.38671875 C3.30647644 5.09979113 3.30647644 5.09979113 4 2 C2.35 2 0.7 2 -1 2 C-0.67 1.34 -0.34 0.68 0 0 Z " fill="#3C516E" transform="translate(198,132)"/>
<path d="M0 0 C0.99 0 1.98 0 3 0 C3.33 0.66 3.66 1.32 4 2 C4.99 1.34 5.98 0.68 7 0 C10.6875 0.375 10.6875 0.375 14 1 C14 1.66 14 2.32 14 3 C12.9275 3.04125 11.855 3.0825 10.75 3.125 C6.85643949 3.65091549 6.85643949 3.65091549 4.6875 6.625 C2.93701077 10.12597846 1.90977159 13.20928505 1 17 C0.01 17 -0.98 17 -2 17 C-1.4618629 11.30948637 -0.8599867 5.65134116 0 0 Z " fill="#455975" transform="translate(184,195)"/>
<path d="M0 0 C0.33 0 0.66 0 1 0 C1.07347656 1.01320312 1.07347656 1.01320312 1.1484375 2.046875 C1.22320312 2.93890625 1.29796875 3.8309375 1.375 4.75 C1.44460937 5.63171875 1.51421875 6.5134375 1.5859375 7.421875 C1.99850055 9.99066382 2.71160957 11.75841015 4 14 C7.3634269 13.97350778 7.3634269 13.97350778 11 13 C13.33414647 10.04150073 13.33414647 10.04150073 15 7 C15.66 7 16.32 7 17 7 C16.58485103 11.8434046 14.53791301 13.81587829 11 17 C10.67 17.33 10.34 17.66 10 18 C6.04997827 18.44717227 3.84649218 18.60773798 0.5625 16.25 C-1.80758826 11.32021643 -1.50382481 6.38514392 -1 1 C-0.67 0.67 -0.34 0.34 0 0 Z " fill="#3C516E" transform="translate(80,132)"/>
<path d="M0 0 C0.99 0 1.98 0 3 0 C3 1.98 3 3.96 3 6 C4.65 4.02 6.3 2.04 8 0 C10 1 10 1 11 3 C10.29875 3.61875 9.5975 4.2375 8.875 4.875 C5.59050224 8.1033525 3.54686718 11.98521368 1.33203125 15.98828125 C0.67267578 16.98408203 0.67267578 16.98408203 0 18 C-0.66 18 -1.32 18 -2 18 C-2.27560214 11.79895188 -1.22899346 6.06815522 0 0 Z " fill="#435773" transform="translate(136,195)"/>
<path d="M0 0 C0.99 0 1.98 0 3 0 C3 1.98 3 3.96 3 6 C4.65 4.02 6.3 2.04 8 0 C10 1 10 1 11 3 C10.29875 3.61875 9.5975 4.2375 8.875 4.875 C5.59050224 8.1033525 3.54686718 11.98521368 1.33203125 15.98828125 C0.67267578 16.98408203 0.67267578 16.98408203 0 18 C-0.66 18 -1.32 18 -2 18 C-2.27560214 11.79895188 -1.22899346 6.06815522 0 0 Z " fill="#435773" transform="translate(106,195)"/>
<path d="M0 0 C0.66 0 1.32 0 2 0 C2.33 0.66 2.66 1.32 3 2 C3.99 1.34 4.98 0.68 6 0 C9.1875 -0.125 9.1875 -0.125 12 0 C12.33 0.99 12.66 1.98 13 3 C11.906875 3.061875 10.81375 3.12375 9.6875 3.1875 C5.96690536 3.6171388 5.96690536 3.6171388 4.25 6.0625 C2.71277709 9.67497385 1.3166957 13.30071208 0 17 C-0.66 17 -1.32 17 -2 17 C-2.22084624 10.90218999 -2.01167675 5.78357065 0 0 Z " fill="#445773" transform="translate(210,132)"/>
<path d="M0 0 C0.92039062 0.29197266 0.92039062 0.29197266 1.859375 0.58984375 C1.51308006 8.84897801 1.51308006 8.84897801 -1.015625 11.71484375 C-3.140625 12.58984375 -3.140625 12.58984375 -6.140625 11.58984375 C-6.62652522 4.3013405 -6.62652522 4.3013405 -4.390625 1.02734375 C-2.140625 -0.41015625 -2.140625 -0.41015625 0 0 Z " fill="#F6F7F8" transform="translate(96.140625,197.41015625)"/>
<path d="M0 0 C0.66 0 1.32 0 2 0 C2.18934639 5.86973809 1.7137395 10.96561956 0.4453125 16.69140625 C-0.09470707 19.4909814 -0.14962031 22.15721408 0 25 C-0.99 25 -1.98 25 -3 25 C-3.98437646 21.85062692 -3.97587391 19.51893102 -3.4765625 16.26953125 C-3.3425 15.38458984 -3.2084375 14.49964844 -3.0703125 13.58789062 C-2.92335938 12.67201172 -2.77640625 11.75613281 -2.625 10.8125 C-2.48578125 9.88501953 -2.3465625 8.95753906 -2.203125 8.00195312 C-1.13875135 1.13875135 -1.13875135 1.13875135 0 0 Z " fill="#50627C" transform="translate(107,114)"/>
<path d="M0 0 C0.7425 0.2475 1.485 0.495 2.25 0.75 C1.5 7.5 1.5 7.5 -0.75 9.75 C-3.3125 9.9375 -3.3125 9.9375 -5.75 9.75 C-6.75 8.75 -6.75 8.75 -7.0625 6.4375 C-6.75 3.75 -6.75 3.75 -5.0625 1.375 C-2.75 -0.25 -2.75 -0.25 0 0 Z " fill="#5C6D85" transform="translate(142.75,173.25)"/>
<path d="M0 0 C0.99 0.33 1.98 0.66 3 1 C2.70673279 4.81247372 2.49869932 7.3293354 0.1875 10.4375 C-2 12 -2 12 -6 12 C-5.49135273 7.62563349 -4.57073772 4.59903281 -2 1 C-1.34 0.67 -0.68 0.34 0 0 Z " fill="#F3F4F6" transform="translate(181,135)"/>
<path d="M0 0 C2.67578125 0.34765625 2.67578125 0.34765625 5 1 C5.3690205 12.52164009 5.3690205 12.52164009 3 18 C2.67 18 2.34 18 2 18 C2 13.05 2 8.1 2 3 C-0.97 5.475 -0.97 5.475 -4 8 C-4.33 7.01 -4.66 6.02 -5 5 C-2.8125 2.4375 -2.8125 2.4375 0 0 Z " fill="#53657F" transform="translate(162,132)"/>
<path d="M0 0 C2.39706123 -0.10854617 4.78915838 -0.18753157 7.1875 -0.25 C7.86103516 -0.28351563 8.53457031 -0.31703125 9.22851562 -0.3515625 C12.99375127 -0.42503051 14.83108854 -0.11393243 17.98828125 2.015625 C18.98408203 2.99789062 18.98408203 2.99789062 20 4 C19.67 4.99 19.34 5.98 19 7 C12.539801 7.36567164 12.539801 7.36567164 10.0625 5.6875 C9 4 9 4 9 1 C6.03 1 3.06 1 0 1 C0 0.67 0 0.34 0 0 Z " fill="#EEF0F2" transform="translate(131,67)"/>
<path d="M0 0 C0 3.92896395 -1.00299863 7.19893228 -2 11 C1.36591866 9.55746343 3.51047079 7.66735273 6 5 C6.99 5.33 7.98 5.66 9 6 C7.33333333 7.66666667 5.66666667 9.33333333 4 11 C3.505 11.598125 3.01 12.19625 2.5 12.8125 C0.3553429 14.51035354 -1.34994106 14.21486964 -4 14 C-5.56935594 10.86128812 -5.35201103 8.46144178 -5 5 C-2.5 2.0625 -2.5 2.0625 0 0 Z " fill="#435773" transform="translate(126,136)"/>
<path d="M0 0 C1.65 0.33 3.3 0.66 5 1 C4.21258141 2.46063143 3.4199095 3.91843173 2.625 5.375 C2.18414062 6.18710938 1.74328125 6.99921875 1.2890625 7.8359375 C0 10 0 10 -2 12 C-2.99 12 -3.98 12 -5 12 C-5.35338623 9.03155565 -5.5417682 6.84401782 -3.88671875 4.265625 C-2.64496832 2.79651181 -1.32662082 1.39295186 0 0 Z " fill="#F0F2F4" transform="translate(129,135)"/>
<path d="M0 0 C1.98 0.66 3.96 1.32 6 2 C5.9375 3.75 5.9375 3.75 5 6 C2.29950956 8.00840495 -0.55126733 10 -4 10 C-4.66 8.68 -5.32 7.36 -6 6 C-4 4 -2 2 0 0 Z " fill="#5E6F87" transform="translate(196,132)"/>
<path d="M0 0 C0.8125 2.1875 0.8125 2.1875 1 5 C-1.4375 7.8125 -1.4375 7.8125 -4 10 C-4.66 9.67 -5.32 9.34 -6 9 C-4.68 6.69 -3.36 4.38 -2 2 C-3.36125 2.7115625 -3.36125 2.7115625 -4.75 3.4375 C-7.26427949 4.64628821 -9.29568209 5.47993886 -12 6 C-9.40401988 0.00927665 -6.20086134 -0.23399477 0 0 Z " fill="#485B76" transform="translate(178,195)"/>
<path d="M0 0 C0.33 0 0.66 0 1 0 C1.41922086 4.19220862 1.40813168 7.04650264 -1.125 10.4375 C-4 13 -4 13 -7.1875 13.5 C-10 13 -10 13 -12 11 C-12.125 7.375 -12.125 7.375 -12 4 C-11.34 3.67 -10.68 3.34 -10 3 C-9.34 5.31 -8.68 7.62 -8 10 C-5.53044606 9.58377402 -5.53044606 9.58377402 -3 8 C-1.65780705 5.4309588 -0.79574295 2.78186561 0 0 Z " fill="#3A4F6C" transform="translate(99,199)"/>
<path d="M0 0 C0.99 0 1.98 0 3 0 C2.85761163 2.04190981 2.71092972 4.08352045 2.5625 6.125 C2.48128906 7.26195313 2.40007812 8.39890625 2.31640625 9.5703125 C2.02269035 12.7540478 1.56875687 15.85510907 1 19 C0.01 18.34 -0.98 17.68 -2 17 C-1.85786703 15.10388566 -1.71113093 13.20811606 -1.5625 11.3125 C-1.48128906 10.25675781 -1.40007812 9.20101562 -1.31640625 8.11328125 C-1.03548319 5.34913703 -0.59843148 2.71054259 0 0 Z " fill="#5B6D85" transform="translate(176,114)"/>
<path d="M0 0 C0 0.33 0 0.66 0 1 C-1.65 1.33 -3.3 1.66 -5 2 C-5.66 4.64 -6.32 7.28 -7 10 C-6.01 10 -5.02 10 -4 10 C-4 10.66 -4 11.32 -4 12 C-5.32 12 -6.64 12 -8 12 C-8.33 14.64 -8.66 17.28 -9 20 C-9.33 20 -9.66 20 -10 20 C-10 17.36 -10 14.72 -10 12 C-10.66 12 -11.32 12 -12 12 C-12 11.34 -12 10.68 -12 10 C-11.01 10 -10.02 10 -9 10 C-8.896875 8.741875 -8.79375 7.48375 -8.6875 6.1875 C-8.35560322 3.62325638 -8.10274153 2.16952353 -6.75 -0.0625 C-4.24456289 -1.40469845 -2.6490937 -0.7875684 0 0 Z " fill="#5F7087" transform="translate(159,163)"/>
<path d="M0 0 C0.99 0.66 1.98 1.32 3 2 C3 2.99 3 3.98 3 5 C0.98177083 4.73958333 -1.03645833 4.47916667 -3.0546875 4.21875 C-5.00498344 3.9627515 -5.00498344 3.9627515 -7 4 C-7.28875 4.94875 -7.5775 5.8975 -7.875 6.875 C-9 10 -9 10 -11 12 C-11.4247346 7.6677071 -11.47048413 5.65037512 -8.875 2.0625 C-5.52111041 -0.34355123 -4.03621805 -0.61420709 0 0 Z " fill="#3D526E" transform="translate(81,195)"/>
<path d="M0 0 C0.99 0.33 1.98 0.66 3 1 C3 2.98 3 4.96 3 7 C3.66 7 4.32 7 5 7 C4.39009109 10.55780196 3.4216319 13.6828589 2 17 C1.01 17 0.02 17 -1 17 C-0.34 12.05 0.32 7.1 1 2 C0.34 1.67 -0.32 1.34 -1 1 C-0.67 0.67 -0.34 0.34 0 0 Z " fill="#3B4F6C" transform="translate(153,132)"/>
<path d="M0 0 C1.21875 2.05078125 1.21875 2.05078125 2 4 C1.06027344 3.85691406 1.06027344 3.85691406 0.1015625 3.7109375 C-0.71570313 3.60007813 -1.53296875 3.48921875 -2.375 3.375 C-3.18710938 3.25898438 -3.99921875 3.14296875 -4.8359375 3.0234375 C-5.55007812 3.01570312 -6.26421875 3.00796875 -7 3 C-9.76223278 5.76223278 -9.57856291 8.20706617 -10 12 C-10.33 12 -10.66 12 -11 12 C-11.144375 11.21625 -11.28875 10.4325 -11.4375 9.625 C-11.87798925 7.03578982 -11.87798925 7.03578982 -13 5 C-8.6902324 -0.60269788 -7.1230045 -1.65355462 0 0 Z " fill="#4F627C" transform="translate(212,196)"/>
<path d="M0 0 C0.33 0.66 0.66 1.32 1 2 C-0.21484375 4.8203125 -0.21484375 4.8203125 -1.9375 8.125 C-2.50339844 9.22070312 -3.06929688 10.31640625 -3.65234375 11.4453125 C-4.09707031 12.28835937 -4.54179688 13.13140625 -5 14 C-5.66 14 -6.32 14 -7 14 C-7.08131463 12.56344146 -7.13933559 11.1255517 -7.1875 9.6875 C-7.22230469 8.88699219 -7.25710937 8.08648437 -7.29296875 7.26171875 C-6.93801608 4.52148416 -6.10633718 3.70828921 -4 2 C-3.67 2.33 -3.34 2.66 -3 3 C-2.01 2.01 -1.02 1.02 0 0 Z " fill="#394E6C" transform="translate(109,136)"/>
<path d="M0 0 C0.33 1.32 0.66 2.64 1 4 C0.01 4.495 0.01 4.495 -1 5 C-1 4.01 -1 3.02 -1 2 C-5.67113881 3.97225861 -7.60363438 5.5667236 -10 10 C-10.66 10 -11.32 10 -12 10 C-12.375 7.8125 -12.375 7.8125 -12 5 C-8.10914359 0.83122528 -5.88270107 -0.70032156 0 0 Z " fill="#3F5370" transform="translate(229,195)"/>
<path d="M0 0 C2.97 0 5.94 0 9 0 C5.57142857 5.75510204 5.57142857 5.75510204 2.8125 6.9375 C2.214375 6.958125 1.61625 6.97875 1 7 C0 6 0 6 -0.0625 2.9375 C-0.041875 1.968125 -0.02125 0.99875 0 0 Z " fill="#EDEFF1" transform="translate(164,67)"/>
<path d="M0 0 C0.99 0.33 1.98 0.66 3 1 C3 2.98 3 4.96 3 7 C0.03 7 -2.94 7 -6 7 C-2.25 1.125 -2.25 1.125 0 0 Z " fill="#D9DDE3" transform="translate(202,58)"/>
<path d="M0 0 C0.66 0.66 1.32 1.32 2 2 C4.44963177 2.02253443 4.44963177 2.02253443 7.125 1.625 C8.03507813 1.51414063 8.94515625 1.40328125 9.8828125 1.2890625 C10.58148438 1.19367188 11.28015625 1.09828125 12 1 C11 4 11 4 9.375 5.25 C6.04805845 6.30061312 3.37991551 5.64998375 0 5 C-0.33 4.01 -0.66 3.02 -1 2 C-0.67 1.34 -0.34 0.68 0 0 Z " fill="#51647D" transform="translate(192,144)"/>
<path d="M0 0 C0.66 0 1.32 0 2 0 C1.58565093 4.83407252 -0.37793954 6.89537674 -4 10 C-4.99 10.33 -5.98 10.66 -7 11 C-7 10.34 -7 9.68 -7 9 C-7.99 8.67 -8.98 8.34 -10 8 C-9.0925 7.79375 -8.185 7.5875 -7.25 7.375 C-3.23537961 5.67650676 -2.22286935 3.6518568 0 0 Z " fill="#4D607A" transform="translate(95,139)"/>
<path d="M0 0 C-0.1875 1.8125 -0.1875 1.8125 -1 4 C-3.90696599 6.14197494 -5.35521088 7 -9 7 C-7.16766277 2.5718517 -4.96404317 0 0 0 Z " fill="#EFF1F3" transform="translate(228,197)"/>
<path d="M0 0 C-0.37994168 2.75457718 -0.8073633 3.82020574 -2.875 5.75 C-5 7 -5 7 -8 7 C-7.62005832 4.24542282 -7.1926367 3.17979426 -5.125 1.25 C-3 0 -3 0 0 0 Z " fill="#EDEFF2" transform="translate(176,197)"/>
<path d="M0 0 C0.78375 0.04125 1.5675 0.0825 2.375 0.125 C2.375 1.115 2.375 2.105 2.375 3.125 C-0.51334003 5.23270759 -2.00962395 6.125 -5.625 6.125 C-4.86443086 2.32215429 -4.27658992 0.20364714 0 0 Z " fill="#EFF1F3" transform="translate(198.625,134.875)"/>
<path d="M0 0 C0.66 0 1.32 0 2 0 C2.21755666 5.4389165 2.10428384 9.87080814 0 15 C-0.33 15 -0.66 15 -1 15 C-1.09038099 9.84828377 -0.84681133 5.08086796 0 0 Z " fill="#354B68" transform="translate(165,135)"/>
<path d="M0 0 C2.5625 0.1875 2.5625 0.1875 4.5625 2.1875 C4.6875 5.8125 4.6875 5.8125 4.5625 9.1875 C3.5725 8.8575 2.5825 8.5275 1.5625 8.1875 C1.48 7.40375 1.3975 6.62 1.3125 5.8125 C0.83443661 3.04000896 0.83443661 3.04000896 -1.5 1.875 C-2.139375 1.648125 -2.77875 1.42125 -3.4375 1.1875 C-2.4375 0.1875 -2.4375 0.1875 0 0 Z " fill="#4B5E79" transform="translate(96.4375,194.8125)"/>
<path d="M0 0 C0.99 0 1.98 0 3 0 C2.67 1.98 2.34 3.96 2 6 C0.68 6.33 -0.64 6.66 -2 7 C-2.125 4.625 -2.125 4.625 -2 2 C-1.34 1.34 -0.68 0.68 0 0 Z " fill="#F4F5F7" transform="translate(140,175)"/>
<path d="M0 0 C2 1 2 1 3 2 C3.04080783 3.99958364 3.04254356 6.00045254 3 8 C2.67 8 2.34 8 2 8 C2 6.35 2 4.7 2 3 C1.21625 3.66 0.4325 4.32 -0.375 5 C-3 7 -3 7 -5 7 C-3.70700306 4.11562221 -2.34058637 2.12780579 0 0 Z " fill="#51647D" transform="translate(151,132)"/>
<path d="M0 0 C0.33 0 0.66 0 1 0 C1 5.28 1 10.56 1 16 C0.67 16 0.34 16 0 16 C-0.33 13.03 -0.66 10.06 -1 7 C-1.33 7 -1.66 7 -2 7 C-2.125 4.625 -2.125 4.625 -2 2 C-1.34 1.34 -0.68 0.68 0 0 Z " fill="#607188" transform="translate(81,126)"/>
<path d="M0 0 C0.33 0 0.66 0 1 0 C1.36630156 3.93774177 1.30233203 5.56539771 -1 8.875 C-1.66 9.57625 -2.32 10.2775 -3 11 C-3.66 10.67 -4.32 10.34 -5 10 C-3.35 6.7 -1.7 3.4 0 0 Z " fill="#3A4F6C" transform="translate(185,137)"/>
<path d="M0 0 C3.375 0.25 3.375 0.25 7 1 C8.4375 3.0625 8.4375 3.0625 9 5 C5.58978257 4.21302675 2.31114834 3.12880057 -1 2 C-0.67 1.34 -0.34 0.68 0 0 Z " fill="#3B506D" transform="translate(92,112)"/>
<path d="M0 0 C5.625 -0.25 5.625 -0.25 9 2 C9 2.99 9 3.98 9 5 C6.69 4.34 4.38 3.68 2 3 C2 2.34 2 1.68 2 1 C1.34 0.67 0.68 0.34 0 0 Z " fill="#4B5F79" transform="translate(75,195)"/>
<path d="M0 0 C0.66 0 1.32 0 2 0 C1.63206382 2.66753731 1.18001672 3.81998328 -0.75 5.75 C-3.37943983 7.21079991 -5.0374441 7.24687966 -8 7 C-7.360625 6.71125 -6.72125 6.4225 -6.0625 6.125 C-3.84793921 5.17176549 -3.84793921 5.17176549 -3 3 C-2.34 3 -1.68 3 -1 3 C-0.67 2.01 -0.34 1.02 0 0 Z " fill="#556780" transform="translate(210,206)"/>
<path d="M0 0 C1.65 0.33 3.3 0.66 5 1 C5.33 3.31 5.66 5.62 6 8 C3 6 3 6 2 3 C1.01 3 0.02 3 -1 3 C-0.67 2.01 -0.34 1.02 0 0 Z " fill="#4D607A" transform="translate(181,133)"/>
<path d="M0 0 C0 1.65 0 3.3 0 5 C-0.66 4.67 -1.32 4.34 -2 4 C-2 3.01 -2 2.02 -2 1 C-3.65 1.66 -5.3 2.32 -7 3 C-7 2.01 -7 1.02 -7 0 C-4.3333581 -1.33332095 -2.83319697 -0.67102033 0 0 Z " fill="#6B7B91" transform="translate(145,174)"/>
<path d="M0 0 C0.66 0 1.32 0 2 0 C2 2.97 2 5.94 2 9 C1.01 8.34 0.02 7.68 -1 7 C-1.25 3.9375 -1.25 3.9375 -1 1 C-0.67 0.67 -0.34 0.34 0 0 Z " fill="#586A82" transform="translate(107,114)"/>
<path d="M0 0 C0.66 0 1.32 0 2 0 C1.3125 2.375 1.3125 2.375 0 5 C-2.625 6.3125 -2.625 6.3125 -5 7 C-3.625 4.5 -3.625 4.5 -2 2 C-1.34 2 -0.68 2 0 2 C0 1.34 0 0.68 0 0 Z " fill="#3E526F" transform="translate(177,198)"/>
<path d="M0 0 C2 1 2 1 3 3 C-1.75 6 -1.75 6 -4 6 C-2.84826645 3.53199953 -1.95216435 1.95216435 0 0 Z " fill="#4E617B" transform="translate(144,195)"/>
<path d="M0 0 C2 1 2 1 3 3 C-1.75 6 -1.75 6 -4 6 C-2.84826645 3.53199953 -1.95216435 1.95216435 0 0 Z " fill="#4E617B" transform="translate(114,195)"/>
<path d="M0 0 C2.72426311 2.35277269 3.8141763 4.62496331 5 8 C3.35 7.67 1.7 7.34 0 7 C0 4.69 0 2.38 0 0 Z " fill="#63738A" transform="translate(69,202)"/>
<path d="M0 0 C-0.33 0.99 -0.66 1.98 -1 3 C-3.31 3.33 -5.62 3.66 -8 4 C-3.375 0 -3.375 0 0 0 Z " fill="#445874" transform="translate(204,145)"/>
<path d="M0 0 C-0.33 2.64 -0.66 5.28 -1 8 C-1.99 7.34 -2.98 6.68 -4 6 C-3.625 3.5625 -3.625 3.5625 -3 1 C-1 0 -1 0 0 0 Z " fill="#556780" transform="translate(84,121)"/>
<path d="M0 0 C0.33 0 0.66 0 1 0 C1 2.31 1 4.62 1 7 C0.01 7.33 -0.98 7.66 -2 8 C-1.125 1.125 -1.125 1.125 0 0 Z " fill="#3B506D" transform="translate(135,142)"/>
<path d="M0 0 C0.33 0.99 0.66 1.98 1 3 C1.66 3 2.32 3 3 3 C3 3.66 3 4.32 3 5 C2.34 5 1.68 5 1 5 C1 5.66 1 6.32 1 7 C0.34 7 -0.32 7 -1 7 C-1.04254356 5.00045254 -1.04080783 2.99958364 -1 1 C-0.67 0.67 -0.34 0.34 0 0 Z " fill="#314665" transform="translate(191,139)"/>
</svg>
